<?xml version="1.0" encoding="utf-8"?>
<!-- Generator: Adobe Illustrator 16.0.0, SVG Export Plug-In . SVG Version: 6.00 Build 0)  -->
<!DOCTYPE svg PUBLIC "-//W3C//DTD SVG 1.1//EN" "http://www.w3.org/Graphics/SVG/1.1/DTD/svg11.dtd">
<svg version="1.1" id="Layer_1" xmlns="http://www.w3.org/2000/svg" xmlns:xlink="http://www.w3.org/1999/xlink" x="0px" y="0px"
	 width="40px" height="40px" viewBox="0 0 40 40" enable-background="new 0 0 40 40" xml:space="preserve">
<g>
	<path fill="#161616" d="M33.45,15.73c0,2.01-1.63,3.64-3.641,3.64c-0.729,0-1.399-0.21-1.96-0.58L13.47,31.42
		c0.23,0.469,0.351,1,0.351,1.559c0,2.012-1.62,3.641-3.63,3.641c-2.011,0-3.641-1.629-3.641-3.641c0-2.01,1.63-3.629,3.641-3.629
		c0.729,0,1.399,0.209,1.96,0.58l14.38-12.64c-0.23-0.47-0.351-1-0.351-1.56c0-0.44,0.08-0.85,0.221-1.24l-6.53-4.76
		c-0.64,0.58-1.48,0.92-2.41,0.92c-2.01,0-3.64-1.62-3.64-3.63c0-2.01,1.63-3.64,3.64-3.64c2,0,3.63,1.63,3.63,3.64
		c0,0.35-0.05,0.69-0.14,1.01l6.63,4.84c0.61-0.48,1.38-0.77,2.229-0.77C31.82,12.1,33.45,13.73,33.45,15.73z"/>
</g>
</svg>
