<?xml version="1.0" encoding="utf-8"?>
<!-- Generator: Adobe Illustrator 16.0.0, SVG Export Plug-In . SVG Version: 6.00 Build 0)  -->
<!DOCTYPE svg PUBLIC "-//W3C//DTD SVG 1.1//EN" "http://www.w3.org/Graphics/SVG/1.1/DTD/svg11.dtd">
<svg version="1.1" id="Layer_1" xmlns="http://www.w3.org/2000/svg" xmlns:xlink="http://www.w3.org/1999/xlink" x="0px" y="0px"
	 width="40px" height="40px" viewBox="0 0 40 40" enable-background="new 0 0 40 40" xml:space="preserve">
<g>
	<path fill="#040000" d="M15.031,9.295c0-0.217,0.031-0.686,0.09-1.404c0.064-0.72,0.338-1.473,0.824-2.264
		c0.484-0.788,1.268-1.495,2.355-2.122c1.086-0.623,2.654-0.937,4.701-0.937h5.764v6.284h-4.221c-0.418,0-0.807,0.156-1.158,0.465
		c-0.35,0.309-0.529,0.603-0.529,0.877v3.909h5.906c-0.061,0.764-0.129,1.509-0.209,2.227l-0.232,1.899
		c-0.094,0.641-0.189,1.236-0.281,1.784h-5.227v17.418h-7.783v-17.42h-3.797v-5.908h3.797V9.295z"/>
</g>
</svg>
