<?xml version="1.0" encoding="utf-8"?>
<!-- Generator: Adobe Illustrator 16.0.0, SVG Export Plug-In . SVG Version: 6.00 Build 0)  -->
<!DOCTYPE svg PUBLIC "-//W3C//DTD SVG 1.1//EN" "http://www.w3.org/Graphics/SVG/1.1/DTD/svg11.dtd">
<svg version="1.1" id="Layer_1" xmlns="http://www.w3.org/2000/svg" xmlns:xlink="http://www.w3.org/1999/xlink" x="0px" y="0px"
	 width="40px" height="40px" viewBox="0 0 40 40" enable-background="new 0 0 40 40" xml:space="preserve">
<g>
	<defs>
		<rect id="SVGID_1_" width="40" height="40"/>
	</defs>
	<clipPath id="SVGID_2_">
		<use xlink:href="#SVGID_1_"  overflow="visible"/>
	</clipPath>
	<path clip-path="url(#SVGID_2_)" fill="#161616" d="M14.182,32.744c11.837,0,18.309-9.806,18.309-18.308
		c0-0.278-0.006-0.557-0.019-0.831c1.256-0.908,2.349-2.042,3.211-3.332c-1.154,0.512-2.395,0.856-3.696,1.012
		c1.329-0.796,2.349-2.057,2.829-3.559C33.573,8.464,32.195,9,30.729,9.288c-1.174-1.251-2.846-2.032-4.696-2.032
		c-3.554,0-6.437,2.881-6.437,6.434c0,0.504,0.057,0.996,0.168,1.467c-5.349-0.268-10.091-2.829-13.264-6.723
		C5.948,9.385,5.63,10.489,5.63,11.668c0,2.232,1.136,4.203,2.863,5.355c-1.056-0.031-2.047-0.322-2.914-0.805
		c-0.002,0.027-0.002,0.055-0.002,0.082c0,3.117,2.219,5.719,5.163,6.309c-0.541,0.147-1.109,0.227-1.696,0.227
		c-0.415,0-0.818-0.041-1.21-0.116c0.818,2.557,3.194,4.417,6.012,4.47c-2.203,1.726-4.978,2.755-7.992,2.755
		c-0.52,0-1.031-0.03-1.536-0.09C7.166,31.68,10.547,32.744,14.182,32.744"/>
</g>
</svg>
