<?xml version="1.0" encoding="utf-8"?>
<!-- Generator: Adobe Illustrator 16.0.0, SVG Export Plug-In . SVG Version: 6.00 Build 0)  -->
<!DOCTYPE svg PUBLIC "-//W3C//DTD SVG 1.1//EN" "http://www.w3.org/Graphics/SVG/1.1/DTD/svg11.dtd">
<svg version="1.1" id="Layer_1" xmlns="http://www.w3.org/2000/svg" xmlns:xlink="http://www.w3.org/1999/xlink" x="0px" y="0px"
	 width="40px" height="40px" viewBox="0 0 40 40" enable-background="new 0 0 40 40" xml:space="preserve">
<g>
	<path fill="#161616" d="M37.449,30.471c0,3.855-3.124,6.979-6.98,6.979H9.529c-3.854,0-6.979-3.123-6.979-6.979V9.531
		c0-3.855,3.125-6.98,6.979-6.98h20.939c3.856,0,6.98,3.125,6.98,6.98V30.471z"/>
	<path fill="#FFFFFF" d="M30.222,5.219H9.778c-2.608,0-4.721,2.121-4.721,4.736v11.238c0,2.616,2.112,4.736,4.721,4.736h7.04
		l2.405,3.913c0,0,0.025,0.047,0.078,0.111c0.14,0.241,0.399,0.405,0.698,0.405c0.298,0,0.554-0.163,0.695-0.4
		c0.061-0.071,0.081-0.116,0.081-0.116l2.403-3.913h7.042c2.606,0,4.721-2.12,4.721-4.736V9.955
		C34.942,7.34,32.828,5.219,30.222,5.219z"/>
	<g>
		<g>
			<path fill="#161616" d="M11.693,13.452c0,0-0.813,0-1.555,0.72v-2.9H8.31v7.622h1.849v-0.596c0,0,0.436,0.786,1.535,0.786
				c0,0,2.579-0.095,2.579-2.844C14.272,16.24,14.179,13.452,11.693,13.452z M11.291,17.476c-0.648,0-1.175-0.526-1.175-1.177
				c0-0.648,0.526-1.175,1.175-1.175c0.649,0,1.176,0.526,1.176,1.175C12.467,16.949,11.94,17.476,11.291,17.476z"/>
			<path fill="#161616" d="M14.86,11.101v1.764c0,0,0.836-0.038,0.836,1.518v4.512h1.763v-4.93
				C17.459,13.964,17.535,11.101,14.86,11.101z"/>
			<path fill="#161616" d="M21.771,13.477c0,0-3.024,0-3.024,2.822c0,0-0.098,2.785,3.024,2.785c0,0,3.092-0.003,3.092-2.785
				C24.863,16.299,24.964,13.477,21.771,13.477z M21.771,17.476c-0.648,0-1.177-0.526-1.177-1.177c0-0.648,0.528-1.175,1.177-1.175
				c0.649,0,1.176,0.526,1.176,1.175C22.947,16.949,22.421,17.476,21.771,17.476z"/>
			<path fill="#161616" d="M29.912,13.662v0.51c0,0-0.527-0.695-1.536-0.695c0,0-2.588-0.108-2.588,2.803
				c0,0-0.029,2.715,2.517,2.715c0,0,1.038,0.043,1.607-0.696v0.427c0,0,0.128,1.336-1.167,1.336h-0.44v1.622h0.712
				c0,0,2.673,0.027,2.673-2.858v-5.162H29.912z M28.818,17.476c-0.65,0-1.177-0.526-1.177-1.177c0-0.648,0.526-1.175,1.177-1.175
				c0.648,0,1.175,0.526,1.175,1.175C29.993,16.949,29.467,17.476,28.818,17.476z"/>
		</g>
	</g>
</g>
</svg>
