<?xml version="1.0" encoding="utf-8"?>
<!-- Generator: Adobe Illustrator 16.0.0, SVG Export Plug-In . SVG Version: 6.00 Build 0)  -->
<!DOCTYPE svg PUBLIC "-//W3C//DTD SVG 1.1//EN" "http://www.w3.org/Graphics/SVG/1.1/DTD/svg11.dtd">
<svg version="1.1" id="Capa_1" xmlns="http://www.w3.org/2000/svg" xmlns:xlink="http://www.w3.org/1999/xlink" x="0px" y="0px"
	 width="50px" height="50px" viewBox="0 0 50 50" enable-background="new 0 0 50 50" xml:space="preserve">
<g>
	<g>
		<path d="M49.73,14.474c-0.012-0.012-0.023-0.024-0.035-0.036L39.373,5.265c-0.094-0.086-0.203-0.152-0.324-0.196L31.584,2.4
			c-0.51-0.185-1.072,0.078-1.258,0.587c-0.033,0.092-0.053,0.188-0.058,0.286c0,0.216-0.323,5.19-5.298,5.269
			c-5.004-0.079-5.318-5.053-5.328-5.269c-0.028-0.541-0.49-0.956-1.031-0.927c-0.094,0.005-0.186,0.023-0.273,0.054l-7.456,2.698
			c-0.12,0.044-0.229,0.11-0.323,0.196L0.305,14.438c-0.393,0.373-0.408,0.994-0.035,1.387c0.012,0.012,0.023,0.024,0.035,0.035
			l8.164,8.251v22.565c0,0.542,0.439,0.981,0.98,0.981h31.102c0.541,0,0.98-0.439,0.98-0.981V24.112l8.164-8.251
			C50.088,15.488,50.104,14.867,49.73,14.474z M41.502,21.316v-4.552c0-0.542-0.439-0.981-0.98-0.981
			c-0.542,0-0.981,0.439-0.981,0.981v28.884H10.391V16.764c0-0.542-0.438-0.981-0.98-0.981s-0.98,0.439-0.98,0.981v4.562
			l-6.035-6.112l9.341-8.359l6.142-2.217c0.762,3.92,4.556,6.481,8.477,5.721c2.895-0.562,5.158-2.826,5.721-5.721l6.142,2.217
			l9.311,8.359L41.502,21.316z"/>
	</g>
</g>
</svg>
