<?xml version="1.0" encoding="utf-8"?>
<!-- Generator: Adobe Illustrator 16.0.0, SVG Export Plug-In . SVG Version: 6.00 Build 0)  -->
<!DOCTYPE svg PUBLIC "-//W3C//DTD SVG 1.1//EN" "http://www.w3.org/Graphics/SVG/1.1/DTD/svg11.dtd">
<svg version="1.1" id="Layer_1" xmlns="http://www.w3.org/2000/svg" xmlns:xlink="http://www.w3.org/1999/xlink" x="0px" y="0px"
	 width="51px" height="51px" viewBox="0 0 51 51" enable-background="new 0 0 51 51" xml:space="preserve">
<g>
	<path fill="#FFFFFF" d="M39.938,41.938c-0.512,0-1.024-0.195-1.414-0.586L9.648,12.477c-0.781-0.781-0.781-2.047,0-2.828
		c0.78-0.781,2.048-0.781,2.828,0l28.875,28.875c0.781,0.781,0.781,2.047,0,2.828C40.961,41.742,40.449,41.938,39.938,41.938z"/>
</g>
<g>
	<path fill="#FFFFFF" d="M11.063,41.938c-0.512,0-1.024-0.195-1.414-0.586c-0.781-0.781-0.781-2.047,0-2.828L38.523,9.648
		c0.78-0.781,2.048-0.781,2.828,0c0.781,0.781,0.781,2.047,0,2.828L12.477,41.352C12.086,41.742,11.574,41.938,11.063,41.938z"/>
</g>
</svg>
