<?xml version="1.0" encoding="utf-8"?>
<!-- Generator: Adobe Illustrator 16.0.0, SVG Export Plug-In . SVG Version: 6.00 Build 0)  -->
<!DOCTYPE svg PUBLIC "-//W3C//DTD SVG 1.1//EN" "http://www.w3.org/Graphics/SVG/1.1/DTD/svg11.dtd">
<svg version="1.1" id="Capa_1" xmlns="http://www.w3.org/2000/svg" xmlns:xlink="http://www.w3.org/1999/xlink" x="0px" y="0px"
	 width="111px" height="130.174px" viewBox="-146.607 47.159 111 130.174" enable-background="new -146.607 47.159 111 130.174"
	 xml:space="preserve">
<rect x="-126.696" y="58.001" fill="none" stroke="#000000" stroke-width="2" stroke-miterlimit="10" width="71.177" height="106.166"/>
<g>
	<path fill="none" stroke="#000000" stroke-width="1.5" stroke-miterlimit="10" d="M-79.17,136.485c0,3.313-2.687,6-6,6h-11.875
		c-3.313,0-6-2.687-6-6v-20.75c0-3.313,2.687-6,6-6h11.875c3.313,0,6,2.687,6,6V136.485z"/>
	<circle fill="none" stroke="#000000" stroke-width="1.5" stroke-miterlimit="10" cx="-96.696" cy="146.762" r="2.555"/>
	<circle fill="none" stroke="#000000" stroke-width="1.5" stroke-miterlimit="10" cx="-85.519" cy="146.762" r="2.555"/>
	<g>
		<path fill="none" stroke="#000000" stroke-miterlimit="10" d="M-94.564,136.88c0,0.943-0.765,1.708-1.708,1.708l0,0
			c-0.944,0-1.708-0.765-1.708-1.708v-19.251c0-0.943,0.765-1.708,1.708-1.708l0,0c0.943,0,1.708,0.765,1.708,1.708V136.88z"/>
		<path fill="none" stroke="#000000" stroke-miterlimit="10" d="M-84.234,137.028c0,0.943-0.765,1.708-1.708,1.708l0,0
			c-0.944,0-1.708-0.765-1.708-1.708v-19.251c0-0.943,0.765-1.708,1.708-1.708l0,0c0.943,0,1.708,0.765,1.708,1.708V137.028z"/>
	</g>
	<path fill="none" stroke="#000000" stroke-width="1.5" stroke-miterlimit="10" d="M-96.696,109.735V98.86c0-1.657,1.343-3,3-3
		h5.178c1.657,0,3,1.343,3,3v10.875"/>
</g>
<g>
	<path d="M-112.922,79.988h-1.875V72.43h-2.766v-1.629h7.406v1.629h-2.766V79.988z"/>
	<path d="M-108.539,73.215h1.676v1.184h0.012c0.227-0.453,0.445-0.773,0.656-0.961c0.313-0.273,0.719-0.41,1.219-0.41l0.34,0.023
		v1.84c-0.078-0.023-0.164-0.039-0.258-0.047c-0.055,0-0.129,0-0.223,0c-0.648,0-1.109,0.176-1.383,0.527
		c-0.195,0.258-0.293,0.625-0.293,1.102v3.516h-1.746V73.215z"/>
	<path d="M-97.594,78.688c0,0.359,0.035,0.621,0.105,0.785c0.055,0.117,0.145,0.207,0.27,0.27v0.246h-1.863
		c-0.055-0.156-0.094-0.281-0.117-0.375c-0.016-0.094-0.031-0.227-0.047-0.398c-0.297,0.297-0.559,0.512-0.785,0.645
		c-0.398,0.234-0.852,0.352-1.359,0.352c-0.555,0-1.016-0.16-1.383-0.48c-0.422-0.359-0.633-0.867-0.633-1.523
		c0-0.633,0.184-1.141,0.551-1.523c0.328-0.352,0.785-0.57,1.371-0.656l1.57-0.234c0.18-0.039,0.316-0.09,0.41-0.152
		c0.141-0.094,0.211-0.219,0.211-0.375c0-0.336-0.137-0.563-0.41-0.68c-0.164-0.078-0.406-0.117-0.727-0.117
		c-0.398,0-0.684,0.105-0.855,0.316c-0.133,0.156-0.207,0.367-0.223,0.633h-1.676c0.086-0.945,0.43-1.605,1.031-1.98
		c0.445-0.273,1.086-0.41,1.922-0.41c0.648,0,1.203,0.117,1.664,0.352c0.648,0.344,0.973,0.887,0.973,1.629V78.688z M-99.293,76.684
		c-0.086,0.078-0.215,0.145-0.387,0.199c-0.18,0.063-0.441,0.121-0.785,0.176c-0.398,0.078-0.68,0.172-0.844,0.281
		c-0.234,0.164-0.352,0.414-0.352,0.75c0,0.289,0.09,0.508,0.27,0.656c0.148,0.117,0.328,0.176,0.539,0.176
		c0.414,0,0.77-0.121,1.066-0.363c0.328-0.258,0.492-0.586,0.492-0.984V76.684z"/>
	<path d="M-91.945,80.211h-1.852l-2.391-7.184h1.934l1.383,5.391h0.047l1.43-5.391h1.852L-91.945,80.211z"/>
	<path d="M-82.336,78.02c-0.211,0.75-0.609,1.316-1.195,1.699c-0.484,0.328-1.043,0.492-1.676,0.492c-0.992,0-1.766-0.273-2.32-0.82
		c-0.625-0.633-0.938-1.605-0.938-2.918c-0.008-0.766,0.156-1.445,0.492-2.039c0.531-0.938,1.41-1.406,2.637-1.406
		c0.82,0,1.492,0.234,2.016,0.703c0.695,0.633,1.043,1.641,1.043,3.023v0.352h-4.453v0.047c0.063,0.445,0.164,0.781,0.305,1.008
		c0.242,0.406,0.648,0.609,1.219,0.609c0.242,0,0.465-0.066,0.668-0.199c0.211-0.141,0.359-0.324,0.445-0.551H-82.336z
		 M-84.035,75.922c-0.047-0.492-0.211-0.863-0.492-1.113c-0.234-0.195-0.508-0.293-0.82-0.293c-0.383,0-0.688,0.125-0.914,0.375
		c-0.219,0.242-0.352,0.586-0.398,1.031H-84.035z"/>
	<path d="M-78.492,79.988h-1.746v-9.188h1.746V79.988z"/>
	<path d="M-70.336,78.02c-0.211,0.75-0.609,1.316-1.195,1.699c-0.484,0.328-1.043,0.492-1.676,0.492c-0.992,0-1.766-0.273-2.32-0.82
		c-0.625-0.633-0.938-1.605-0.938-2.918c-0.008-0.766,0.156-1.445,0.492-2.039c0.531-0.938,1.41-1.406,2.637-1.406
		c0.82,0,1.492,0.234,2.016,0.703c0.695,0.633,1.043,1.641,1.043,3.023v0.352h-4.453v0.047c0.063,0.445,0.164,0.781,0.305,1.008
		c0.242,0.406,0.648,0.609,1.219,0.609c0.242,0,0.465-0.066,0.668-0.199c0.211-0.141,0.359-0.324,0.445-0.551H-70.336z
		 M-72.035,75.922c-0.047-0.492-0.211-0.863-0.492-1.113c-0.234-0.195-0.508-0.293-0.82-0.293c-0.383,0-0.688,0.125-0.914,0.375
		c-0.219,0.242-0.352,0.586-0.398,1.031H-72.035z"/>
	<path d="M-68.543,73.215h1.676v1.184h0.012c0.227-0.453,0.445-0.773,0.656-0.961c0.313-0.273,0.719-0.41,1.219-0.41l0.34,0.023
		v1.84c-0.078-0.023-0.164-0.039-0.258-0.047c-0.055,0-0.129,0-0.223,0c-0.648,0-1.109,0.176-1.383,0.527
		c-0.195,0.258-0.293,0.625-0.293,1.102v3.516h-1.746V73.215z"/>
</g>
<line fill="none" stroke="#000000" stroke-width="2" stroke-miterlimit="10" x1="-120.529" y1="154" x2="-61.686" y2="154"/>
</svg>
