<?xml version="1.0" encoding="utf-8"?>
<!-- Generator: Adobe Illustrator 16.0.0, SVG Export Plug-In . SVG Version: 6.00 Build 0)  -->
<!DOCTYPE svg PUBLIC "-//W3C//DTD SVG 1.1//EN" "http://www.w3.org/Graphics/SVG/1.1/DTD/svg11.dtd">
<svg version="1.1" id="Capa_1" xmlns="http://www.w3.org/2000/svg" xmlns:xlink="http://www.w3.org/1999/xlink" x="0px" y="0px"
	 width="111px" height="130.174px" viewBox="-295.68 47.159 111 130.174" enable-background="new -295.68 47.159 111 130.174"
	 xml:space="preserve">
<rect x="-275.769" y="58.001" fill="none" stroke="#000000" stroke-width="2" stroke-miterlimit="10" width="71.177" height="106.166"/>
<g>
	<path d="M-262.583,79.989h-1.601v-6.542l-1.536,6.542h-1.654l-1.504-6.542h-0.032v6.542h-1.601v-8.422h2.514l1.493,6.37h0.011
		l1.439-6.37h2.471V79.989z"/>
	<path d="M-255.74,78.797c0,0.329,0.032,0.569,0.097,0.72c0.05,0.107,0.132,0.189,0.247,0.247v0.226h-1.708
		c-0.05-0.144-0.086-0.258-0.107-0.344c-0.015-0.086-0.029-0.208-0.043-0.365c-0.272,0.272-0.512,0.469-0.72,0.591
		c-0.365,0.215-0.781,0.322-1.246,0.322c-0.509,0-0.931-0.146-1.268-0.44c-0.387-0.329-0.58-0.795-0.58-1.396
		c0-0.58,0.168-1.046,0.505-1.396c0.301-0.322,0.72-0.522,1.257-0.602l1.439-0.215c0.165-0.036,0.29-0.082,0.376-0.14
		c0.129-0.086,0.193-0.2,0.193-0.344c0-0.308-0.125-0.516-0.376-0.623c-0.15-0.071-0.373-0.107-0.666-0.107
		c-0.365,0-0.627,0.097-0.784,0.29c-0.122,0.144-0.19,0.337-0.204,0.58h-1.536c0.079-0.866,0.394-1.472,0.945-1.815
		c0.408-0.251,0.995-0.376,1.762-0.376c0.594,0,1.103,0.107,1.525,0.322c0.594,0.315,0.892,0.813,0.892,1.493V78.797z
		 M-257.298,76.96c-0.079,0.071-0.197,0.133-0.354,0.183c-0.165,0.058-0.405,0.111-0.72,0.161c-0.365,0.071-0.623,0.157-0.773,0.258
		c-0.215,0.15-0.322,0.38-0.322,0.688c0,0.265,0.082,0.466,0.247,0.602c0.136,0.107,0.301,0.161,0.494,0.161
		c0.379,0,0.705-0.111,0.978-0.333c0.301-0.236,0.451-0.537,0.451-0.902V76.96z"/>
	<path d="M-248.339,73.78v5.317c-0.007,0.651-0.15,1.153-0.43,1.504c-0.473,0.595-1.357,0.892-2.653,0.892
		c-0.716,0-1.3-0.122-1.751-0.365c-0.544-0.279-0.842-0.702-0.892-1.268h1.719c0.1,0.129,0.204,0.219,0.312,0.269
		c0.179,0.086,0.455,0.129,0.827,0.129c0.408,0,0.72-0.075,0.935-0.226c0.229-0.157,0.344-0.397,0.344-0.72v-0.623l-0.043-0.021
		c-0.15,0.286-0.333,0.505-0.548,0.655c-0.272,0.193-0.627,0.29-1.063,0.29c-0.773,0-1.396-0.262-1.869-0.784
		c-0.509-0.552-0.763-1.317-0.763-2.299c0-0.902,0.254-1.626,0.763-2.17c0.479-0.501,1.07-0.752,1.772-0.752
		c0.494,0,0.906,0.129,1.235,0.387c0.222,0.172,0.408,0.408,0.559,0.709h0.021V73.78H-248.339z M-252.281,77.669
		c0.229,0.372,0.559,0.559,0.988,0.559c0.487,0,0.849-0.189,1.085-0.569c0.186-0.294,0.279-0.659,0.279-1.096
		c0-0.394-0.122-0.737-0.365-1.031c-0.265-0.329-0.602-0.494-1.01-0.494c-0.344,0-0.63,0.122-0.859,0.365
		c-0.265,0.286-0.397,0.698-0.397,1.235C-252.561,77.031-252.468,77.375-252.281,77.669z"/>
	<path d="M-241.539,78.797c0,0.329,0.032,0.569,0.097,0.72c0.05,0.107,0.132,0.189,0.247,0.247v0.226h-1.708
		c-0.05-0.144-0.086-0.258-0.107-0.344c-0.015-0.086-0.029-0.208-0.043-0.365c-0.272,0.272-0.512,0.469-0.72,0.591
		c-0.365,0.215-0.781,0.322-1.246,0.322c-0.509,0-0.931-0.146-1.268-0.44c-0.387-0.329-0.58-0.795-0.58-1.396
		c0-0.58,0.168-1.046,0.505-1.396c0.301-0.322,0.72-0.522,1.257-0.602l1.439-0.215c0.165-0.036,0.29-0.082,0.376-0.14
		c0.129-0.086,0.193-0.2,0.193-0.344c0-0.308-0.125-0.516-0.376-0.623c-0.15-0.071-0.373-0.107-0.666-0.107
		c-0.365,0-0.627,0.097-0.784,0.29c-0.122,0.144-0.19,0.337-0.204,0.58h-1.536c0.079-0.866,0.394-1.472,0.945-1.815
		c0.408-0.251,0.995-0.376,1.762-0.376c0.594,0,1.103,0.107,1.525,0.322c0.594,0.315,0.892,0.813,0.892,1.493V78.797z
		 M-243.097,76.96c-0.079,0.071-0.197,0.133-0.354,0.183c-0.165,0.058-0.405,0.111-0.72,0.161c-0.365,0.071-0.623,0.157-0.773,0.258
		c-0.215,0.15-0.322,0.38-0.322,0.688c0,0.265,0.082,0.466,0.247,0.602c0.136,0.107,0.301,0.161,0.494,0.161
		c0.379,0,0.705-0.111,0.978-0.333c0.301-0.236,0.451-0.537,0.451-0.902V76.96z"/>
	<path d="M-238.026,78.646h3.298v1.343h-5.35v-1.278l3.18-3.781h-3.019v-1.321h5.027v1.364L-238.026,78.646z"/>
	<path d="M-231.366,73.104h-1.601v-1.536h1.601V73.104z M-231.366,73.834v6.155h-1.601v-6.155H-231.366z"/>
	<path d="M-223.696,79.989h-1.59v-3.771c-0.007-0.344-0.058-0.605-0.15-0.784c-0.158-0.294-0.451-0.44-0.881-0.44
		c-0.373,0-0.677,0.122-0.913,0.365c-0.244,0.258-0.365,0.616-0.365,1.074v3.556h-1.59V73.78h1.536v0.913h0.011
		c0.179-0.301,0.369-0.53,0.569-0.688c0.344-0.265,0.763-0.397,1.257-0.397c0.623,0,1.124,0.176,1.504,0.526
		c0.408,0.372,0.612,0.896,0.612,1.568V79.989z"/>
	<path d="M-216.563,78.185c-0.193,0.688-0.559,1.207-1.096,1.558c-0.444,0.301-0.956,0.451-1.536,0.451
		c-0.91,0-1.619-0.251-2.127-0.752c-0.573-0.58-0.859-1.472-0.859-2.675c-0.007-0.702,0.143-1.325,0.451-1.869
		c0.487-0.859,1.292-1.289,2.417-1.289c0.752,0,1.368,0.215,1.848,0.645c0.637,0.58,0.956,1.504,0.956,2.771v0.322h-4.082v0.043
		c0.057,0.408,0.15,0.716,0.279,0.924c0.222,0.372,0.594,0.559,1.117,0.559c0.222,0,0.426-0.061,0.612-0.183
		c0.193-0.129,0.329-0.297,0.408-0.505H-216.563z M-218.121,76.262c-0.043-0.451-0.193-0.791-0.451-1.021
		c-0.215-0.179-0.466-0.269-0.752-0.269c-0.351,0-0.63,0.114-0.838,0.344c-0.201,0.222-0.322,0.537-0.365,0.945H-218.121z"/>
	<path d="M-211.439,75.692c-0.043-0.265-0.122-0.458-0.236-0.58c-0.172-0.165-0.455-0.247-0.849-0.247
		c-0.394,0-0.666,0.068-0.816,0.204c-0.107,0.093-0.161,0.229-0.161,0.408c0,0.172,0.129,0.308,0.387,0.408
		c0.157,0.071,0.465,0.154,0.924,0.247c0.773,0.157,1.321,0.329,1.644,0.516c0.559,0.308,0.838,0.767,0.838,1.375
		c0,0.802-0.322,1.39-0.967,1.762c-0.466,0.272-1.028,0.408-1.687,0.408c-0.802,0-1.458-0.157-1.966-0.473
		c-0.623-0.38-0.942-0.949-0.956-1.708h1.654c0,0.294,0.093,0.516,0.279,0.666c0.215,0.179,0.562,0.269,1.042,0.269
		c0.358,0,0.63-0.079,0.816-0.236c0.143-0.122,0.215-0.262,0.215-0.419c0-0.193-0.136-0.348-0.408-0.462
		c-0.165-0.064-0.483-0.146-0.956-0.247c-0.759-0.157-1.296-0.326-1.611-0.505c-0.537-0.308-0.806-0.767-0.806-1.375
		c0-0.559,0.172-1.024,0.516-1.396c0.43-0.466,1.078-0.698,1.944-0.698c0.73,0,1.314,0.125,1.751,0.376
		c0.587,0.337,0.909,0.906,0.967,1.708H-211.439z"/>
</g>
<line fill="none" stroke="#000000" stroke-width="2" stroke-miterlimit="10" x1="-269.602" y1="154" x2="-210.758" y2="154"/>
<g>
	
		<line fill="none" stroke="#000000" stroke-width="1.5" stroke-miterlimit="10" x1="-259.819" y1="111.802" x2="-259.819" y2="118.792"/>
	<polygon fill="none" stroke="#000000" stroke-miterlimit="10" points="-261.157,123.035 -259.819,118.031 -258.48,123.035 	"/>
	<g>
		<path fill="none" stroke="#000000" stroke-width="1.5" stroke-miterlimit="10" d="M-240.18,119.43l-15.099-5.691v10.657
			c0,0,1.381,5.521,15.099,5.521c13.717,0,15.099-5.521,15.099-5.521v-10.673L-240.18,119.43z"/>
		<polygon fill="none" stroke="#000000" stroke-width="1.5" stroke-miterlimit="10" points="-240.18,102.222 -263.627,110.583 
			-255.279,113.738 -240.18,119.444 -225.082,113.738 -216.734,110.583 		"/>
	</g>
</g>
</svg>
