<?xml version="1.0" encoding="utf-8"?>
<!-- Generator: Adobe Illustrator 16.0.0, SVG Export Plug-In . SVG Version: 6.00 Build 0)  -->
<!DOCTYPE svg PUBLIC "-//W3C//DTD SVG 1.1//EN" "http://www.w3.org/Graphics/SVG/1.1/DTD/svg11.dtd">
<svg version="1.1" id="Layer_1" xmlns="http://www.w3.org/2000/svg" xmlns:xlink="http://www.w3.org/1999/xlink" x="0px" y="0px"
	 width="2500px" height="760px" viewBox="0 866.5 2500 760" enable-background="new 0 866.5 2500 760" xml:space="preserve">
<g>
	<path fill="#F7D730" d="M110.295,915.159h467.378v669.682H110.295V915.159z M177.659,1517.424h332.415V982.603H177.659V1517.424
		L177.659,1517.424z"/>
	<path d="M888.13,1215.617h-28.909c-37.976-53.644-75.64-106.949-113.252-167.193h-0.272v167.193h-31.958V982.499h28.936
		c37.976,53.267,75.588,106.196,112.851,166.129h0.661V982.499h31.957v233.118H888.13z M964.094,1123.351
		c9.273-30.648,18.611-58.948,26.951-94.926h0.675c9.313,35.978,17.651,64.291,26.303,94.926H964.094L964.094,1123.351z
		 M979.372,982.499l-80.542,233.118h34.629l20.259-63.63h70.31l18.301,63.63h44.654l-74.291-233.118H979.372z M1124.582,1215.617
		v-201.849h-61.295v-31.27h162.498v31.27h-61.243v201.849H1124.582L1124.582,1215.617z M1238.742,982.499h39.688v233.118h-39.688
		V982.499z M1401.642,1186.267c-41.671,0-56.314-45.952-56.314-90.581c0-42.942,16.641-83.914,56.314-83.914
		c39.623,0,56.211,40.972,56.211,83.914C1457.853,1140.314,1443.237,1186.267,1401.642,1186.267z M1401.642,1219.56
		c60.919,0,98.869-54.252,98.869-123.887c0-65.251-41.893-117.195-98.869-117.195c-56.924,0-98.998,51.944-98.998,117.195
		C1302.656,1165.32,1340.671,1219.56,1401.642,1219.56z M1699.311,1215.617h-28.948c-38.001-53.644-75.64-106.949-113.226-167.193
		h-0.324v167.193h-31.919V982.499h28.948c37.924,53.267,75.563,106.196,112.799,166.129h0.688V982.499h31.996v233.118H1699.311z
		 M1775.237,1123.351c9.351-30.648,18.624-58.948,27.003-94.926h0.661c9.325,35.978,17.626,64.291,26.264,94.926H1775.237
		L1775.237,1123.351z M1790.592,982.499l-80.58,233.118h34.654l20.259-63.63h70.296l18.313,63.63h44.604l-74.278-233.118H1790.592
		L1790.592,982.499z M1909.745,982.499h39.701v201.796h78.882v31.322h-118.583V982.499z M863.566,1410.604v96.21
		c-21.335,8.365-43.656,14.318-66.236,14.318c-68.623,0-111.903-53.28-111.903-121.89c0-63.63,43.28-119.219,113.213-119.219
		c21.607,0,43.268,8.029,56.6,18.003l-12.995,27.638c-10.636-6.602-27.327-12.269-42.619-12.269
		c-42.593,0-71.593,33.644-71.593,86.599c0,55.238,33.319,87.845,67.624,87.845c10.609,0,19.649-1.271,28.015-5.643v-71.593H863.566
		z M1006.492,1315.394h-66.678v63.902h65.264v31.309h-65.264v75.212h78.584v31.348H899.829v-233.132h106.663V1315.394z
		 M1129.692,1487.826c-41.671,0-56.34-45.913-56.34-90.567c0-42.917,16.652-83.876,56.34-83.876
		c39.598,0,56.211,40.959,56.211,83.876C1185.903,1441.913,1171.221,1487.826,1129.692,1487.826z M1129.692,1521.133
		c60.906,0,98.843-54.278,98.843-123.888c0-65.25-41.931-117.233-98.843-117.233c-57.015,0-98.92,51.983-98.92,117.233
		C1030.759,1466.867,1068.656,1521.133,1129.692,1521.133z M1420.319,1410.604v96.21c-21.335,8.365-43.592,14.318-66.263,14.318
		c-68.571,0-111.89-53.28-111.89-121.89c0-63.63,43.318-119.219,113.252-119.219c21.659,0,43.267,8.029,56.561,18.003
		l-12.995,27.638c-10.661-6.602-27.211-12.269-42.554-12.269c-42.684,0-71.658,33.644-71.658,86.599
		c0,55.238,33.332,87.845,67.638,87.845c10.687,0,19.636-1.271,27.988-5.643v-71.593H1420.319z M1496.996,1315.394h17.6
		c23.579,0,36.938,13.592,36.938,37.6c0,31.27-18.948,45.238-37.949,46.237c-4.008,0.401-13.346,0.739-16.588,1.024V1315.394z
		 M1598.199,1517.164l-47.042-96.534c25.642-13.618,40.375-41.334,40.375-69.311c0-45.329-27.69-67.287-72.319-67.287h-62.268
		v233.132h40.051v-87.909h17.963l37.561,87.909H1598.199L1598.199,1517.164z M1664.112,1424.91
		c9.299-30.687,18.625-58.96,26.977-94.926h0.662c9.325,35.966,17.626,64.239,26.289,94.926H1664.112L1664.112,1424.91z
		 M1679.403,1284.032l-80.606,233.132h34.629l20.337-63.63h70.296l18.21,63.63h44.707l-74.305-233.132H1679.403L1679.403,1284.032z
		 M1861.874,1284.032h-62.268v233.132h39.973v-87.909h17.937c47.651,0,76.652-38.637,76.652-77.936
		C1934.168,1305.978,1906.503,1284.032,1861.874,1284.032z M1856.272,1399.243c-4.151,0.376-13.904,0.688-16.692,0.96v-84.81h17.937
		c23.307,0,36.679,13.592,36.679,37.6C1894.195,1384.263,1875.272,1398.244,1856.272,1399.243z M2119.285,1517.164h-39.947v-112.188
		h-82.98v112.188h-39.519v-233.132h39.519v89.582h82.98v-88.92h39.947V1517.164L2119.285,1517.164z M2157.546,1284.032h39.714
		v233.132h-39.714V1284.032z M2377.007,1326.353c-9.675-6.005-25.589-12.97-40.984-12.97c-40.686,0-70.218,33.644-70.218,86.6
		c0,55.238,32.605,87.845,71.256,87.845c14.146-0.067,27.989-4.112,39.946-11.674l11.024,29.001
		c-12.062,8.313-33.306,15.979-52.592,15.979c-68.623,0-111.942-53.279-111.942-121.89c0-63.63,42.943-119.218,112.526-119.218
		c20.699,0,39.946,8.715,53.682,18.002L2377.007,1326.353L2377.007,1326.353z"/>
</g>
</svg>
