<?xml version="1.0" encoding="utf-8"?>
<!-- Generator: Adobe Illustrator 16.0.0, SVG Export Plug-In . SVG Version: 6.00 Build 0)  -->
<!DOCTYPE svg PUBLIC "-//W3C//DTD SVG 1.1//EN" "http://www.w3.org/Graphics/SVG/1.1/DTD/svg11.dtd">
<svg version="1.1" id="Layer_1" xmlns="http://www.w3.org/2000/svg" xmlns:xlink="http://www.w3.org/1999/xlink" x="0px" y="0px"
	 width="2500px" height="760px" viewBox="0 0 2500 760" enable-background="new 0 0 2500 760" xml:space="preserve">
<path fill="#F7D730" d="M110.295,45.159h467.378v669.682H110.295V45.159z M177.659,647.424h332.414V112.603H177.659V647.424
	L177.659,647.424z"/>
<path fill="#FFFFFF" d="M888.13,345.617h-28.909c-37.977-53.645-75.641-106.949-113.252-167.193h-0.272v167.193h-31.958V112.499
	h28.937c37.976,53.267,75.588,106.196,112.851,166.129h0.661V112.499h31.957v233.118H888.13L888.13,345.617z M964.094,253.351
	c9.272-30.647,18.61-58.947,26.951-94.926h0.675c9.313,35.979,17.65,64.291,26.303,94.926H964.094L964.094,253.351z
	 M979.371,112.499l-80.542,233.118h34.63l20.259-63.63h70.31l18.301,63.63h44.654l-74.291-233.118H979.371L979.371,112.499z
	 M1124.582,345.617v-201.85h-61.296v-31.27h162.498v31.27h-61.243v201.85H1124.582L1124.582,345.617z M1238.741,112.499h39.688
	v233.118h-39.688V112.499z M1401.642,316.267c-41.671,0-56.314-45.951-56.314-90.581c0-42.941,16.642-83.914,56.314-83.914
	c39.623,0,56.211,40.973,56.211,83.914C1457.853,270.313,1443.237,316.267,1401.642,316.267z M1401.642,349.56
	c60.919,0,98.869-54.252,98.869-123.887c0-65.251-41.894-117.194-98.869-117.194c-56.924,0-98.998,51.943-98.998,117.194
	C1302.656,295.32,1340.671,349.56,1401.642,349.56z M1699.311,345.617h-28.948c-38.001-53.645-75.64-106.949-113.226-167.193h-0.324
	v167.193h-31.919V112.499h28.948c37.924,53.267,75.563,106.196,112.799,166.129h0.688V112.499h31.996v233.118H1699.311
	L1699.311,345.617z M1775.237,253.351c9.352-30.647,18.624-58.947,27.003-94.926h0.661c9.325,35.979,17.626,64.291,26.265,94.926
	H1775.237L1775.237,253.351z M1790.592,112.499l-80.58,233.118h34.654l20.259-63.63h70.296l18.313,63.63h44.604l-74.278-233.118
	H1790.592L1790.592,112.499z M1909.744,112.499h39.701v201.796h78.882v31.322h-118.583V112.499z M863.566,540.604v96.209
	c-21.335,8.365-43.656,14.318-66.236,14.318c-68.623,0-111.902-53.28-111.902-121.89c0-63.63,43.279-119.22,113.213-119.22
	c21.606,0,43.268,8.029,56.6,18.004l-12.995,27.638c-10.636-6.603-27.327-12.269-42.619-12.269
	c-42.593,0-71.593,33.644-71.593,86.599c0,55.238,33.319,87.845,67.624,87.845c10.609,0,19.649-1.271,28.016-5.643v-71.594h39.894
	V540.604z M1006.491,445.394h-66.678v63.902h65.264v31.309h-65.264v75.213h78.584v31.348H899.828V414.033h106.663V445.394z
	 M1129.692,617.826c-41.671,0-56.34-45.913-56.34-90.567c0-42.917,16.652-83.876,56.34-83.876c39.598,0,56.211,40.959,56.211,83.876
	C1185.903,571.913,1171.221,617.826,1129.692,617.826z M1129.692,651.133c60.906,0,98.843-54.277,98.843-123.888
	c0-65.25-41.931-117.233-98.843-117.233c-57.015,0-98.92,51.983-98.92,117.233C1030.759,596.867,1068.656,651.133,1129.692,651.133z
	 M1420.319,540.604v96.209c-21.335,8.365-43.592,14.318-66.263,14.318c-68.571,0-111.891-53.28-111.891-121.89
	c0-63.63,43.318-119.22,113.252-119.22c21.659,0,43.268,8.029,56.562,18.004l-12.995,27.638
	c-10.661-6.603-27.211-12.269-42.554-12.269c-42.685,0-71.658,33.644-71.658,86.599c0,55.238,33.332,87.845,67.638,87.845
	c10.688,0,19.636-1.271,27.988-5.643v-71.594h39.921V540.604z M1496.995,445.394h17.601c23.579,0,36.938,13.593,36.938,37.601
	c0,31.27-18.947,45.238-37.949,46.237c-4.008,0.4-13.346,0.738-16.588,1.023L1496.995,445.394L1496.995,445.394z M1598.198,647.164
	l-47.042-96.534c25.643-13.618,40.375-41.334,40.375-69.311c0-45.329-27.689-67.287-72.318-67.287h-62.269v233.132h40.052v-87.909
	h17.963l37.561,87.909H1598.198L1598.198,647.164z M1664.112,554.91c9.299-30.688,18.625-58.96,26.978-94.926h0.662
	c9.324,35.966,17.626,64.238,26.288,94.926H1664.112L1664.112,554.91z M1679.403,414.032l-80.605,233.132h34.629l20.337-63.63
	h70.296l18.21,63.63h44.707l-74.305-233.132H1679.403L1679.403,414.032z M1861.873,414.032h-62.268v233.132h39.973v-87.909h17.938
	c47.651,0,76.652-38.637,76.652-77.936C1934.168,435.978,1906.503,414.032,1861.873,414.032z M1856.272,529.243
	c-4.151,0.376-13.904,0.688-16.692,0.96v-84.81h17.938c23.307,0,36.679,13.592,36.679,37.6
	C1894.195,514.263,1875.272,528.244,1856.272,529.243z M2119.284,647.164h-39.946V534.976h-82.98v112.188h-39.52V414.032h39.52
	v89.582h82.98v-88.92h39.946V647.164L2119.284,647.164z M2157.545,414.032h39.715v233.132h-39.715V414.032z M2377.007,456.353
	c-9.675-6.005-25.589-12.97-40.984-12.97c-40.686,0-70.218,33.645-70.218,86.601c0,55.237,32.605,87.845,71.256,87.845
	c14.146-0.067,27.989-4.112,39.946-11.674l11.024,29.001c-12.063,8.313-33.307,15.979-52.593,15.979
	c-68.623,0-111.941-53.279-111.941-121.89c0-63.63,42.942-119.218,112.526-119.218c20.698,0,39.945,8.715,53.682,18.002
	L2377.007,456.353L2377.007,456.353z"/>
</svg>
