<?xml version="1.0" encoding="utf-8"?>
<!-- Generator: Adobe Illustrator 16.0.0, SVG Export Plug-In . SVG Version: 6.00 Build 0)  -->
<!DOCTYPE svg PUBLIC "-//W3C//DTD SVG 1.1//EN" "http://www.w3.org/Graphics/SVG/1.1/DTD/svg11.dtd">
<svg version="1.1" xmlns="http://www.w3.org/2000/svg" xmlns:xlink="http://www.w3.org/1999/xlink" x="0px" y="0px" width="50px"
	 height="40px" viewBox="0 0 50 40" enable-background="new 0 0 50 40" xml:space="preserve">
<g id="Layer_1">
	<rect x="-262.78" y="-66.5" fill="#161616" width="530" height="366"/>
	<g>
		<path fill="none" stroke="#FFFFFF" stroke-width="4" stroke-linecap="round" stroke-linejoin="round" stroke-miterlimit="10" d="
			M31.22,36.545c-2.323,1.109-3.917,1.289-6.663,1.289c-9.849,0-17.834-7.985-17.834-17.834c0-9.85,7.985-17.833,17.834-17.833
			c4.573,0,8.745,1.722,11.901,4.552"/>
		<path fill="none" stroke="#FFFFFF" stroke-width="3" stroke-linecap="round" stroke-linejoin="round" stroke-miterlimit="10" d="
			M32.228,36.104"/>
		<g>
			<path fill="#FFFFFF" d="M25.824,22.765l-0.896,3.3h-3.014l3.929-12.855h3.796l4.006,12.855h-3.128l-0.992-3.3H25.824z
				 M29.086,20.59l-0.802-2.728c-0.209-0.763-0.438-1.736-0.629-2.479h-0.058c-0.171,0.763-0.381,1.736-0.572,2.479l-0.781,2.728
				H29.086z"/>
			<path fill="#FFFFFF" d="M35.151,12.522h2.899v13.542h-2.899V12.522z"/>
			<path fill="#FFFFFF" d="M40.378,12.522h2.899v13.542h-2.899V12.522z"/>
		</g>
		
			<circle fill="none" stroke="#FFFFFF" stroke-width="3" stroke-linecap="round" stroke-linejoin="round" stroke-miterlimit="10" cx="35.277" cy="33.776" r="4.058"/>
	</g>
</g>
<g id="Layer_2">
</g>
</svg>
