<?xml version="1.0" encoding="utf-8"?>
<!-- Generator: Adobe Illustrator 16.0.0, SVG Export Plug-In . SVG Version: 6.00 Build 0)  -->
<!DOCTYPE svg PUBLIC "-//W3C//DTD SVG 1.1//EN" "http://www.w3.org/Graphics/SVG/1.1/DTD/svg11.dtd">
<svg version="1.1" xmlns="http://www.w3.org/2000/svg" xmlns:xlink="http://www.w3.org/1999/xlink" x="0px" y="0px" width="50px"
	 height="40px" viewBox="0 0 50 40" enable-background="new 0 0 50 40" xml:space="preserve">
<g id="Layer_1">
	<rect x="-309" y="-66.5" fill="#161616" width="530" height="366"/>
	<g>
		
			<path fill="#212121" stroke="#FFFFFF" stroke-width="3" stroke-linecap="round" stroke-linejoin="round" stroke-miterlimit="10" d="
			M38.914,28.753c0,0.875-0.711,1.585-1.588,1.585H6.922c-0.877,0-1.586-0.71-1.586-1.585V8.393c0-0.876,0.709-1.586,1.586-1.586
			h30.404c0.877,0,1.588,0.71,1.588,1.586V28.753z"/>
		
			<path fill="#212121" stroke="#FFFFFF" stroke-width="3" stroke-linecap="round" stroke-linejoin="round" stroke-miterlimit="10" d="
			M44.664,33.213c0,0.877-0.711,1.588-1.586,1.588H12.674c-0.877,0-1.588-0.711-1.588-1.588V12.854c0-0.876,0.711-1.586,1.588-1.586
			h30.404c0.875,0,1.586,0.71,1.586,1.586V33.213z"/>
		<circle fill="#FFFFFF" cx="20.969" cy="18.572" r="2.545"/>
		<path fill="#FFFFFF" d="M15.877,31.098h25.979l-4.066-9.98c0,0-0.893-2.71-1.486-3.041c-0.338-0.188-2.545,2.247-2.545,2.247
			l-5.883,5.717l-2.545-2.379c0,0-1.473-1.316-1.816-1.289c-0.404,0.031-2.082,2.18-2.082,2.18L15.877,31.098z"/>
	</g>
</g>
<g id="Layer_2">
</g>
</svg>
