<?xml version="1.0" encoding="utf-8"?>
<!-- Generator: Adobe Illustrator 16.0.0, SVG Export Plug-In . SVG Version: 6.00 Build 0)  -->
<!DOCTYPE svg PUBLIC "-//W3C//DTD SVG 1.1//EN" "http://www.w3.org/Graphics/SVG/1.1/DTD/svg11.dtd">
<svg version="1.1" xmlns="http://www.w3.org/2000/svg" xmlns:xlink="http://www.w3.org/1999/xlink" x="0px" y="0px" width="130px"
	 height="40px" viewBox="0 0 130 40" enable-background="new 0 0 130 40" xml:space="preserve">
<g id="Layer_1">
	<rect x="-164.5" y="-140.5" fill="#161616" width="530" height="366"/>
	<g>
		<path fill="#FFFFFF" d="M60.848,8.322v20.219h-4.56V8.322H60.848z"/>
		<path fill="#FFFFFF" d="M64.538,24.581c0.84,0.511,2.58,1.08,3.93,1.08c1.38,0,1.95-0.45,1.95-1.2c0-0.779-0.451-1.14-2.131-1.709
			c-3.06-0.99-4.229-2.67-4.199-4.381c0-2.76,2.34-4.83,5.97-4.83c1.71,0,3.21,0.42,4.11,0.871l-0.781,3.119
			c-0.659-0.33-1.949-0.81-3.18-0.81c-1.109,0-1.739,0.45-1.739,1.17s0.569,1.079,2.37,1.71c2.789,0.93,3.93,2.369,3.959,4.5
			c0,2.76-2.129,4.77-6.329,4.77c-1.92,0-3.63-0.45-4.74-1.05L64.538,24.581z"/>
		<path fill="#FFFFFF" d="M77.557,24.581c0.84,0.511,2.58,1.08,3.931,1.08c1.38,0,1.95-0.45,1.95-1.2
			c0-0.779-0.451-1.14-2.131-1.709c-3.06-0.99-4.229-2.67-4.199-4.381c0-2.76,2.34-4.83,5.97-4.83c1.71,0,3.21,0.42,4.11,0.871
			l-0.781,3.119c-0.659-0.33-1.949-0.81-3.18-0.81c-1.109,0-1.739,0.45-1.739,1.17s0.569,1.079,2.37,1.71
			c2.789,0.93,3.93,2.369,3.959,4.5c0,2.76-2.129,4.77-6.329,4.77c-1.92,0-3.63-0.45-4.74-1.05L77.557,24.581z"/>
		<path fill="#FFFFFF" d="M104.437,23.831c0,1.92,0.06,3.479,0.12,4.71h-3.96l-0.21-2.07h-0.09c-0.57,0.9-1.949,2.4-4.59,2.4
			c-3,0-5.16-1.859-5.16-6.39v-8.61h4.561v7.891c0,2.129,0.689,3.42,2.31,3.42c1.26,0,2.01-0.871,2.28-1.59
			c0.119-0.271,0.18-0.601,0.18-0.99v-8.73h4.56V23.831z"/>
		<path fill="#FFFFFF" d="M111.607,22.631c0.149,1.92,2.01,2.82,4.139,2.82c1.561,0,2.82-0.21,4.051-0.63l0.6,3.09
			c-1.5,0.63-3.33,0.93-5.311,0.93c-4.979,0-7.829-2.88-7.829-7.499c0-3.721,2.341-7.83,7.409-7.83c4.74,0,6.541,3.689,6.541,7.32
			c0,0.779-0.09,1.469-0.15,1.829L111.607,22.631z M116.977,19.512c0-1.08-0.48-2.971-2.551-2.971c-1.949,0-2.729,1.771-2.85,2.971
			H116.977z"/>
	</g>
	<g>
		
			<path fill="#212121" stroke="#FFFFFF" stroke-width="3" stroke-linecap="round" stroke-linejoin="round" stroke-miterlimit="10" d="
			M27.856,13.968H9.517c-2.778,0-5.031,2.253-5.031,5.03v8.909c0,2.778,2.253,5.03,5.031,5.03h13.31c1.311,0,5.03,4.401,5.03,4.401
			s0-7.965,0-9.432"/>
		
			<path fill="#212121" stroke="#FFFFFF" stroke-width="3" stroke-linecap="round" stroke-linejoin="round" stroke-miterlimit="10" d="
			M45.987,18.475c0,2.777-2.253,5.03-5.03,5.03H27.646c-1.311,0-5.03,4.402-5.03,4.402s0-7.965,0-9.433V9.566
			c0-2.777,2.253-5.03,5.03-5.03h13.311c2.777,0,5.03,2.253,5.03,5.03V18.475z"/>
		<circle fill="#FFFFFF" cx="12.137" cy="23.61" r="0.943"/>
		<circle fill="#FFFFFF" cx="16.171" cy="23.61" r="0.943"/>
		<circle fill="#FFFFFF" cx="34.302" cy="18.685" r="0.943"/>
		<path fill="none" stroke="#FFFFFF" stroke-width="2" stroke-linecap="round" stroke-miterlimit="10" d="M32.729,10.82
			c0,0,0.315-2.044,2.044-2.044c1.729,0,2.148,0.892,2.148,2.148c0,1.258-2.567,1.571-2.567,2.567s0,1.729,0,1.729"/>
	</g>
</g>
<g id="Layer_2">
</g>
</svg>
