<?xml version="1.0" encoding="utf-8"?>
<!-- Generator: Adobe Illustrator 16.0.0, SVG Export Plug-In . SVG Version: 6.00 Build 0)  -->
<!DOCTYPE svg PUBLIC "-//W3C//DTD SVG 1.1//EN" "http://www.w3.org/Graphics/SVG/1.1/DTD/svg11.dtd">
<svg version="1.1" xmlns="http://www.w3.org/2000/svg" xmlns:xlink="http://www.w3.org/1999/xlink" x="0px" y="0px" width="50px"
	 height="40px" viewBox="0 0 50 40" enable-background="new 0 0 50 40" xml:space="preserve">
<g id="Layer_1">
	<rect x="-309" y="-140.5" fill="#161616" width="530" height="366"/>
	<g>
		
			<path fill="#212121" stroke="#FFFFFF" stroke-width="3" stroke-linecap="round" stroke-linejoin="round" stroke-miterlimit="10" d="
			M27.62,13.968H9.28c-2.778,0-5.031,2.253-5.031,5.03v8.909c0,2.778,2.253,5.03,5.031,5.03h13.31c1.311,0,5.03,4.401,5.03,4.401
			s0-7.965,0-9.432"/>
		
			<path fill="#212121" stroke="#FFFFFF" stroke-width="3" stroke-linecap="round" stroke-linejoin="round" stroke-miterlimit="10" d="
			M45.751,18.475c0,2.777-2.253,5.03-5.03,5.03H27.41c-1.311,0-5.03,4.402-5.03,4.402s0-7.965,0-9.433V9.566
			c0-2.777,2.253-5.03,5.03-5.03h13.311c2.777,0,5.03,2.253,5.03,5.03V18.475z"/>
		<circle fill="#FFFFFF" cx="11.9" cy="23.61" r="0.943"/>
		<circle fill="#FFFFFF" cx="15.935" cy="23.61" r="0.943"/>
		<circle fill="#FFFFFF" cx="34.065" cy="18.685" r="0.943"/>
		<path fill="none" stroke="#FFFFFF" stroke-width="2" stroke-linecap="round" stroke-miterlimit="10" d="M32.493,10.82
			c0,0,0.315-2.044,2.044-2.044c1.729,0,2.148,0.892,2.148,2.148c0,1.258-2.567,1.571-2.567,2.567s0,1.729,0,1.729"/>
	</g>
</g>
<g id="Layer_2">
</g>
</svg>
