<?xml version="1.0" encoding="utf-8"?>
<!-- Generator: Adobe Illustrator 16.0.0, SVG Export Plug-In . SVG Version: 6.00 Build 0)  -->
<!DOCTYPE svg PUBLIC "-//W3C//DTD SVG 1.1//EN" "http://www.w3.org/Graphics/SVG/1.1/DTD/svg11.dtd">
<svg version="1.1" xmlns="http://www.w3.org/2000/svg" xmlns:xlink="http://www.w3.org/1999/xlink" x="0px" y="0px" width="130px"
	 height="40px" viewBox="0 0 130 40" enable-background="new 0 0 130 40" xml:space="preserve">
<g id="Layer_1">
	<rect x="-164.5" y="-219.5" fill="#161616" width="530" height="366"/>
	<g>
		<path fill="#FFFFFF" d="M74.826,14.07h-5.824V9.975h16.575v4.096h-5.888v17.471h-4.863V14.07z"/>
		<path fill="#FFFFFF" d="M91.625,15.895l2.112,7.264c0.384,1.312,0.64,2.559,0.896,3.807h0.097
			c0.256-1.279,0.512-2.463,0.864-3.807l2.016-7.264h5.119l-5.823,15.646h-4.864l-5.695-15.646H91.625z"/>
	</g>
	<g>
		<path fill="#FFFFFF" d="M43.879,34.077c0,1.657-1.25,3-2.791,3H9.384c-1.541,0-2.791-1.343-2.791-3v-19.25c0-1.657,1.25-3,2.791-3
			h31.705c1.541,0,2.791,1.343,2.791,3V34.077z"/>
		<path fill="#212121" d="M33.546,31.027c0,1.133-0.781,2.05-1.743,2.05H11.994c-0.962,0-1.743-0.917-1.743-2.05v-13.15
			c0-1.133,0.781-2.05,1.743-2.05h19.809c0.962,0,1.743,0.917,1.743,2.05V31.027z"/>
		
			<polyline fill="none" stroke="#FFFFFF" stroke-width="3" stroke-linecap="round" stroke-linejoin="round" stroke-miterlimit="10" points="
			19.66,6.763 23.95,11.052 30.813,3.416 		"/>
		<circle fill="#212121" cx="39.421" cy="19.952" r="2.375"/>
		<circle fill="#212121" cx="39.421" cy="28.452" r="2.375"/>
	</g>
</g>
<g id="Layer_2">
</g>
</svg>
