<?xml version="1.0" encoding="utf-8"?>
<!-- Generator: Adobe Illustrator 16.0.0, SVG Export Plug-In . SVG Version: 6.00 Build 0)  -->
<!DOCTYPE svg PUBLIC "-//W3C//DTD SVG 1.1//EN" "http://www.w3.org/Graphics/SVG/1.1/DTD/svg11.dtd">
<svg version="1.1" id="Capa_1" xmlns="http://www.w3.org/2000/svg" xmlns:xlink="http://www.w3.org/1999/xlink" x="0px" y="0px"
	 width="111px" height="130.174px" viewBox="-295.68 203.325 111 130.174" enable-background="new -295.68 203.325 111 130.174"
	 xml:space="preserve">
<rect x="-275.769" y="214.167" fill="none" stroke="#FFFFFF" stroke-width="2" stroke-miterlimit="10" width="71.177" height="106.166"/>
<text transform="matrix(1 0 0 1 -271.3379 236.166)" fill="#FFFFFF" font-family="'H2gtrE'" font-size="11">Magazines</text>
<line fill="none" stroke="#FFFFFF" stroke-width="2" stroke-miterlimit="10" x1="-269.602" y1="310.166" x2="-210.758" y2="310.166"/>
<g>
	
		<line fill="none" stroke="#FFFFFF" stroke-width="1.5" stroke-miterlimit="10" x1="-259.819" y1="267.968" x2="-259.819" y2="274.958"/>
	<polygon fill="none" stroke="#FFFFFF" stroke-miterlimit="10" points="-261.157,279.201 -259.819,274.197 -258.48,279.201 	"/>
	<g>
		<path fill="none" stroke="#FFFFFF" stroke-width="1.5" stroke-miterlimit="10" d="M-240.18,275.596l-15.099-5.691v10.657
			c0,0,1.381,5.521,15.099,5.521c13.717,0,15.099-5.521,15.099-5.521v-10.673L-240.18,275.596z"/>
		<polygon fill="none" stroke="#FFFFFF" stroke-width="1.5" stroke-miterlimit="10" points="-240.18,258.388 -263.627,266.749 
			-255.279,269.904 -240.18,275.61 -225.082,269.904 -216.734,266.749 		"/>
	</g>
</g>
</svg>
