<?xml version="1.0" encoding="utf-8"?>
<!-- Generator: Adobe Illustrator 16.0.0, SVG Export Plug-In . SVG Version: 6.00 Build 0)  -->
<!DOCTYPE svg PUBLIC "-//W3C//DTD SVG 1.1//EN" "http://www.w3.org/Graphics/SVG/1.1/DTD/svg11.dtd">
<svg version="1.1" id="Capa_1" xmlns="http://www.w3.org/2000/svg" xmlns:xlink="http://www.w3.org/1999/xlink" x="0px" y="0px"
	 width="111px" height="130.174px" viewBox="-146.607 205.992 111 130.174" enable-background="new -146.607 205.992 111 130.174"
	 xml:space="preserve">
<rect x="-126.696" y="216.834" fill="none" stroke="#FFFFFF" stroke-width="2" stroke-miterlimit="10" width="71.177" height="106.166"/>
<g>
	<path fill="none" stroke="#FFFFFF" stroke-width="1.5" stroke-miterlimit="10" d="M-79.17,295.318c0,3.313-2.687,6-6,6h-11.875
		c-3.313,0-6-2.687-6-6v-20.75c0-3.313,2.687-6,6-6h11.875c3.313,0,6,2.687,6,6V295.318z"/>
	<circle fill="none" stroke="#FFFFFF" stroke-width="1.5" stroke-miterlimit="10" cx="-96.696" cy="305.595" r="2.555"/>
	<circle fill="none" stroke="#FFFFFF" stroke-width="1.5" stroke-miterlimit="10" cx="-85.519" cy="305.595" r="2.555"/>
	<g>
		<path fill="none" stroke="#FFFFFF" stroke-miterlimit="10" d="M-94.564,295.713c0,0.943-0.765,1.708-1.708,1.708l0,0
			c-0.944,0-1.708-0.765-1.708-1.708v-19.251c0-0.943,0.765-1.708,1.708-1.708l0,0c0.943,0,1.708,0.765,1.708,1.708V295.713z"/>
		<path fill="none" stroke="#FFFFFF" stroke-miterlimit="10" d="M-84.234,295.861c0,0.943-0.765,1.708-1.708,1.708l0,0
			c-0.944,0-1.708-0.765-1.708-1.708V276.61c0-0.943,0.765-1.708,1.708-1.708l0,0c0.943,0,1.708,0.765,1.708,1.708V295.861z"/>
	</g>
	<path fill="none" stroke="#FFFFFF" stroke-width="1.5" stroke-miterlimit="10" d="M-96.696,268.568v-10.875c0-1.657,1.343-3,3-3
		h5.178c1.657,0,3,1.343,3,3v10.875"/>
</g>
<g>
	<path fill="#FFFFFF" d="M-113.354,238.822h-1.719v-6.929h-2.535V230.4h6.789v1.493h-2.535V238.822z"/>
	<path fill="#FFFFFF" d="M-109.336,232.613h1.536v1.085h0.011c0.208-0.415,0.408-0.709,0.602-0.881
		c0.286-0.251,0.659-0.376,1.117-0.376l0.312,0.021v1.687c-0.072-0.021-0.15-0.036-0.236-0.043c-0.05,0-0.118,0-0.204,0
		c-0.595,0-1.017,0.161-1.268,0.483c-0.179,0.236-0.269,0.573-0.269,1.01v3.223h-1.601V232.613z"/>
	<path fill="#FFFFFF" d="M-99.303,237.63c0,0.329,0.032,0.569,0.097,0.72c0.05,0.107,0.132,0.189,0.247,0.247v0.226h-1.708
		c-0.05-0.144-0.086-0.258-0.107-0.344c-0.015-0.086-0.029-0.208-0.043-0.365c-0.272,0.272-0.512,0.469-0.72,0.591
		c-0.365,0.215-0.781,0.322-1.246,0.322c-0.509,0-0.931-0.146-1.268-0.44c-0.387-0.329-0.58-0.795-0.58-1.396
		c0-0.58,0.168-1.046,0.505-1.396c0.301-0.322,0.72-0.522,1.257-0.602l1.439-0.215c0.165-0.036,0.29-0.082,0.376-0.14
		c0.129-0.086,0.193-0.2,0.193-0.344c0-0.308-0.125-0.516-0.376-0.623c-0.15-0.071-0.373-0.107-0.666-0.107
		c-0.365,0-0.627,0.097-0.784,0.29c-0.122,0.144-0.19,0.337-0.204,0.58h-1.536c0.079-0.866,0.394-1.472,0.945-1.815
		c0.408-0.251,0.995-0.376,1.762-0.376c0.594,0,1.103,0.107,1.525,0.322c0.594,0.315,0.892,0.813,0.892,1.493V237.63z
		 M-100.86,235.793c-0.079,0.071-0.197,0.133-0.354,0.183c-0.165,0.058-0.405,0.111-0.72,0.161
		c-0.365,0.071-0.623,0.157-0.773,0.258c-0.215,0.15-0.322,0.38-0.322,0.688c0,0.265,0.082,0.466,0.247,0.602
		c0.136,0.107,0.301,0.161,0.494,0.161c0.379,0,0.705-0.111,0.978-0.333c0.301-0.236,0.451-0.537,0.451-0.902V235.793z"/>
	<path fill="#FFFFFF" d="M-94.125,239.026h-1.697l-2.191-6.585h1.772l1.268,4.941h0.043l1.311-4.941h1.697L-94.125,239.026z"/>
	<path fill="#FFFFFF" d="M-85.316,237.018c-0.193,0.688-0.559,1.207-1.096,1.558c-0.444,0.301-0.956,0.451-1.536,0.451
		c-0.91,0-1.619-0.251-2.127-0.752c-0.573-0.58-0.859-1.472-0.859-2.675c-0.007-0.702,0.143-1.325,0.451-1.869
		c0.487-0.859,1.292-1.289,2.417-1.289c0.752,0,1.368,0.215,1.848,0.645c0.637,0.58,0.956,1.504,0.956,2.771v0.322h-4.082v0.043
		c0.057,0.408,0.15,0.716,0.279,0.924c0.222,0.372,0.594,0.559,1.117,0.559c0.222,0,0.426-0.061,0.612-0.183
		c0.193-0.129,0.329-0.297,0.408-0.505H-85.316z M-86.874,235.095c-0.043-0.451-0.193-0.791-0.451-1.021
		c-0.215-0.179-0.466-0.269-0.752-0.269c-0.351,0-0.63,0.114-0.838,0.344c-0.201,0.222-0.322,0.537-0.365,0.945H-86.874z"/>
	<path fill="#FFFFFF" d="M-81.793,238.822h-1.601V230.4h1.601V238.822z"/>
	<path fill="#FFFFFF" d="M-74.316,237.018c-0.193,0.688-0.559,1.207-1.096,1.558c-0.444,0.301-0.956,0.451-1.536,0.451
		c-0.91,0-1.619-0.251-2.127-0.752c-0.573-0.58-0.859-1.472-0.859-2.675c-0.007-0.702,0.143-1.325,0.451-1.869
		c0.487-0.859,1.292-1.289,2.417-1.289c0.752,0,1.368,0.215,1.848,0.645c0.637,0.58,0.956,1.504,0.956,2.771v0.322h-4.082v0.043
		c0.057,0.408,0.15,0.716,0.279,0.924c0.222,0.372,0.594,0.559,1.117,0.559c0.222,0,0.426-0.061,0.612-0.183
		c0.193-0.129,0.329-0.297,0.408-0.505H-74.316z M-75.874,235.095c-0.043-0.451-0.193-0.791-0.451-1.021
		c-0.215-0.179-0.466-0.269-0.752-0.269c-0.351,0-0.63,0.114-0.838,0.344c-0.201,0.222-0.322,0.537-0.365,0.945H-75.874z"/>
	<path fill="#FFFFFF" d="M-72.673,232.613h1.536v1.085h0.011c0.208-0.415,0.408-0.709,0.602-0.881
		c0.286-0.251,0.659-0.376,1.117-0.376l0.312,0.021v1.687c-0.072-0.021-0.15-0.036-0.236-0.043c-0.05,0-0.118,0-0.204,0
		c-0.595,0-1.017,0.161-1.268,0.483c-0.179,0.236-0.269,0.573-0.269,1.01v3.223h-1.601V232.613z"/>
</g>
<line fill="none" stroke="#FFFFFF" stroke-width="2" stroke-miterlimit="10" x1="-120.529" y1="312.833" x2="-61.686" y2="312.833"/>
</svg>
