<?xml version="1.0" encoding="utf-8"?>
<!-- Generator: Adobe Illustrator 16.0.0, SVG Export Plug-In . SVG Version: 6.00 Build 0)  -->
<!DOCTYPE svg PUBLIC "-//W3C//DTD SVG 1.1//EN" "http://www.w3.org/Graphics/SVG/1.1/DTD/svg11.dtd">
<svg version="1.1" id="Capa_1" xmlns="http://www.w3.org/2000/svg" xmlns:xlink="http://www.w3.org/1999/xlink" x="0px" y="0px"
	 width="111px" height="130.174px" viewBox="-146.607 47.159 111 130.174" enable-background="new -146.607 47.159 111 130.174"
	 xml:space="preserve">
<rect x="-126.696" y="58.001" fill="none" stroke="#000000" stroke-width="2" stroke-miterlimit="10" width="71.177" height="106.166"/>
<g>
	<path fill="none" stroke="#000000" stroke-width="1.5" stroke-miterlimit="10" d="M-79.17,136.485c0,3.313-2.687,6-6,6h-11.875
		c-3.313,0-6-2.687-6-6v-20.75c0-3.313,2.687-6,6-6h11.875c3.313,0,6,2.687,6,6V136.485z"/>
	<circle fill="none" stroke="#000000" stroke-width="1.5" stroke-miterlimit="10" cx="-96.696" cy="146.762" r="2.555"/>
	<circle fill="none" stroke="#000000" stroke-width="1.5" stroke-miterlimit="10" cx="-85.519" cy="146.762" r="2.555"/>
	<g>
		<path fill="none" stroke="#000000" stroke-miterlimit="10" d="M-94.564,136.88c0,0.943-0.765,1.708-1.708,1.708l0,0
			c-0.944,0-1.708-0.765-1.708-1.708v-19.251c0-0.943,0.765-1.708,1.708-1.708l0,0c0.943,0,1.708,0.765,1.708,1.708V136.88z"/>
		<path fill="none" stroke="#000000" stroke-miterlimit="10" d="M-84.234,137.028c0,0.943-0.765,1.708-1.708,1.708l0,0
			c-0.944,0-1.708-0.765-1.708-1.708v-19.251c0-0.943,0.765-1.708,1.708-1.708l0,0c0.943,0,1.708,0.765,1.708,1.708V137.028z"/>
	</g>
	<path fill="none" stroke="#000000" stroke-width="1.5" stroke-miterlimit="10" d="M-96.696,109.735V98.86c0-1.657,1.343-3,3-3
		h5.178c1.657,0,3,1.343,3,3v10.875"/>
</g>
<text transform="matrix(1 0 0 1 -118.1016 80)" font-family="'H2gtrE'" font-size="12">Traveler</text>
<line fill="none" stroke="#000000" stroke-width="2" stroke-miterlimit="10" x1="-120.529" y1="154" x2="-61.686" y2="154"/>
</svg>
