<?xml version="1.0" encoding="utf-8"?>
<!-- Generator: Adobe Illustrator 16.0.0, SVG Export Plug-In . SVG Version: 6.00 Build 0)  -->
<!DOCTYPE svg PUBLIC "-//W3C//DTD SVG 1.1//EN" "http://www.w3.org/Graphics/SVG/1.1/DTD/svg11.dtd">
<svg version="1.1" id="Capa_1" xmlns="http://www.w3.org/2000/svg" xmlns:xlink="http://www.w3.org/1999/xlink" x="0px" y="0px"
	 width="111px" height="130.174px" viewBox="-295.68 47.159 111 130.174" enable-background="new -295.68 47.159 111 130.174"
	 xml:space="preserve">
<rect x="-275.769" y="58.001" fill="none" stroke="#000000" stroke-width="2" stroke-miterlimit="10" width="71.177" height="106.166"/>
<text transform="matrix(1 0 0 1 -271.3379 80)" font-family="'H2gtrE'" font-size="11">Magazines</text>
<line fill="none" stroke="#000000" stroke-width="2" stroke-miterlimit="10" x1="-269.602" y1="154" x2="-210.758" y2="154"/>
<g>
	
		<line fill="none" stroke="#000000" stroke-width="1.5" stroke-miterlimit="10" x1="-259.819" y1="111.802" x2="-259.819" y2="118.792"/>
	<polygon fill="none" stroke="#000000" stroke-miterlimit="10" points="-261.157,123.035 -259.819,118.031 -258.48,123.035 	"/>
	<g>
		<path fill="none" stroke="#000000" stroke-width="1.5" stroke-miterlimit="10" d="M-240.18,119.43l-15.099-5.691v10.657
			c0,0,1.381,5.521,15.099,5.521c13.717,0,15.099-5.521,15.099-5.521v-10.673L-240.18,119.43z"/>
		<polygon fill="none" stroke="#000000" stroke-width="1.5" stroke-miterlimit="10" points="-240.18,102.222 -263.627,110.583 
			-255.279,113.738 -240.18,119.444 -225.082,113.738 -216.734,110.583 		"/>
	</g>
</g>
</svg>
