<?xml version="1.0" encoding="utf-8"?>
<!-- Generator: Adobe Illustrator 16.0.0, SVG Export Plug-In . SVG Version: 6.00 Build 0)  -->
<!DOCTYPE svg PUBLIC "-//W3C//DTD SVG 1.1//EN" "http://www.w3.org/Graphics/SVG/1.1/DTD/svg11.dtd">
<svg version="1.1" id="Layer_1" xmlns="http://www.w3.org/2000/svg" xmlns:xlink="http://www.w3.org/1999/xlink" x="0px" y="0px"
	 width="595.073px" height="279.904px" viewBox="0 0 595.073 279.904" enable-background="new 0 0 595.073 279.904"
	 xml:space="preserve">
<g>
	<path fill="none" stroke="#303232" stroke-width="2.7818" stroke-linecap="round" stroke-miterlimit="10" d="M170.723,210.569
		c-37.063,0-67.215-30.154-67.215-67.215s30.152-67.215,67.215-67.215c37.064,0,67.217,30.154,67.217,67.215
		S207.788,210.569,170.723,210.569z"/>
	<g>
		<g>
			<path fill="#303232" d="M187.188,150.216h-82.482c-0.525,0-0.951-0.475-0.951-1s0.426-1,0.951-1h82.482
				c0.523,0,0.951,0.475,0.951,1S187.711,150.216,187.188,150.216z"/>
		</g>
		<g>
			<path fill="#303232" d="M177.676,175.384c-9.885,0-11.293-13.771-11.348-14.357c-0.016-0.113-0.381-3.408,2.004-6.102
				c1.947-2.197,5.092-3.311,9.344-3.311c3.342,0,5.838,0.949,7.42,2.82c2.629,3.117,1.828,7.816,1.566,9.361
				c-0.018,0.094-0.031,0.174-0.043,0.24c0.021,0.172-0.004,0.318-0.047,0.441l-0.189,2.066c1.6-1.615,3.121-3.826,4.012-6.061
				c0.641-1.6,1.465-4.432-0.186-5.996c-3.756-3.564-4.631-7.271-4.818-8.271h-43.736l0.068-1.193
				c0.012-0.178,1.414-17.805,19.719-17.805h1.102l-0.527,3.668c3.205-3.754,10.178-8.23,25.172-8.23
				c0.172,0,17.184,0.273,17.184,21.898C204.372,166.325,186.985,175.384,177.676,175.384z M160.336,129.317
				c-6.391,0.271-11.121,2.961-14.072,7.926c-1.633,2.742-2.271,4.975-2.512,6.973h43.596l-0.102,1
				c-0.002,0.027-0.221,3.559,4.273,7.822c1.826,1.732,2.053,4.762,0.643,8.299c-1.84,4.613-6.402,9.879-10.006,9.879h-0.002
				c-0.826,0-1.557-0.396-2.17-0.906c-4.748-3.947-2.037-10.775-1.922-11.061l0.088-0.248l0.172-0.164
				c0.537-0.459,1.154-0.699,1.836-0.699c1.754,0,3.551,1.666,4.795,3.203l0.119-1.305c-0.051-1.494-0.391-3.139-1.432-4.373
				c-1.203-1.424-3.209-2.146-5.965-2.146c-3.686,0-6.35,0.9-7.92,2.672c-1.824,2.059-1.539,4.607-1.537,4.633
				c0.016,0.152,1.303,12.66,9.457,12.66c8.645,0,24.795-8.479,24.795-28.906c0-19.684-14.662-19.971-15.285-19.973
				c-23.539,0-25.93,11.533-25.951,11.65 M179.737,160.14c-0.385,1.113-1.775,5.877,1.465,8.568
				c0.266,0.223,0.578,0.328,0.953,0.328h0.002c1.027,0,2.348-0.752,3.662-1.949l-0.932-2.365c-0.088-0.119-0.143-0.256-0.168-0.406
				c-0.482-0.947-2.963-4.285-4.561-4.285C180.006,160.03,179.87,160.065,179.737,160.14z"/>
		</g>
		<g>
			<path fill="#303232" d="M153.934,150.216h-0.002c-0.945,0-2.242-0.076-2.242-1.166c0-0.328,0.223-0.984,1.053-1.01
				c0.396-0.209,1.148-1.693,1.568-3.082l-0.021-0.689l5.238,0.029v0.943c0,1.805-0.586,3.268-2.125,4.088
				C156.149,149.999,154.928,150.216,153.934,150.216z M155.911,146.171c-0.205,0.58-0.49,1.277-0.855,1.912
				c0.545-0.076,1.152-0.227,1.682-0.51c0.627-0.332,1.025-0.783,1.213-1.389L155.911,146.171z"/>
		</g>
		<g>
			<path fill="#303232" d="M173.456,150.063L173.456,150.063c-0.947,0-2.244,0-2.244-1.09c0-0.328,0.223-0.947,1.053-0.973
				c0.398-0.207,1.15-1.674,1.57-3.063l0.217-0.68l5.477,0.039v0.943c0,1.805-0.824,3.191-2.363,4.012
				C175.911,149.923,174.452,150.063,173.456,150.063z M175.432,146.171c-0.205,0.58-0.49,1.277-0.854,1.912
				c0.545-0.076,1.15-0.227,1.68-0.51c0.627-0.332,1.023-0.783,1.215-1.389L175.432,146.171z"/>
		</g>
	</g>
	<g opacity="0.15">
		<g>
			<path fill="#727171" d="M277.301,135.04c0.031-0.518,0.064-1.475,0.064-2.365v-9.139h2.463v4.52h0.033
				c0.469-0.68,1.295-1.117,2.398-1.117c1.895,0,3.289,1.57,3.273,4.002c0,2.852-1.816,4.277-3.631,4.277
				c-0.924,0-1.814-0.34-2.383-1.279h-0.031l-0.098,1.102H277.301z M279.829,131.669c0,0.162,0.016,0.309,0.049,0.438
				c0.162,0.666,0.729,1.168,1.441,1.168c1.055,0,1.703-0.811,1.703-2.236c0-1.232-0.551-2.205-1.703-2.205
				c-0.664,0-1.279,0.504-1.441,1.217c-0.033,0.145-0.049,0.291-0.049,0.453V131.669z"/>
			<path fill="#727171" d="M289.452,124.913c0,0.68-0.52,1.23-1.33,1.23c-0.777,0-1.295-0.551-1.279-1.23
				c-0.016-0.713,0.502-1.248,1.297-1.248C288.932,123.665,289.434,124.2,289.452,124.913z M286.907,135.04v-7.924h2.463v7.924
				H286.907z"/>
			<path fill="#727171" d="M291.163,129.726c0-1.168-0.033-1.93-0.064-2.609h2.121l0.082,1.459h0.064
				c0.404-1.15,1.377-1.637,2.139-1.637c0.227,0,0.342,0,0.52,0.031v2.318c-0.178-0.033-0.391-0.064-0.666-0.064
				c-0.906,0-1.523,0.484-1.686,1.246c-0.031,0.162-0.047,0.357-0.047,0.553v4.018h-2.463V129.726z"/>
			<path fill="#727171" d="M300.354,124.849v2.268h1.766v1.814h-1.766v2.869c0,0.955,0.227,1.393,0.973,1.393
				c0.307,0,0.551-0.031,0.729-0.064l0.016,1.863c-0.324,0.131-0.906,0.211-1.604,0.211c-0.795,0-1.459-0.275-1.848-0.68
				c-0.453-0.471-0.68-1.232-0.68-2.35v-3.242h-1.055v-1.814h1.055v-1.717L300.354,124.849z"/>
			<path fill="#727171" d="M303.401,123.536h2.463v4.52h0.033c0.26-0.34,0.584-0.6,0.973-0.811c0.355-0.193,0.826-0.307,1.279-0.307
				c1.572,0,2.771,1.086,2.771,3.467v4.635h-2.463v-4.359c0-1.037-0.357-1.75-1.281-1.75c-0.646,0-1.053,0.422-1.23,0.859
				c-0.064,0.162-0.082,0.373-0.082,0.551v4.699h-2.463V123.536z"/>
			<path fill="#727171" d="M320.422,123.536v9.139c0,0.891,0.033,1.83,0.064,2.365h-2.188l-0.113-1.166h-0.033
				c-0.502,0.891-1.457,1.344-2.479,1.344c-1.879,0-3.387-1.604-3.387-4.066c-0.016-2.674,1.652-4.213,3.549-4.213
				c0.973,0,1.734,0.34,2.09,0.891h0.033v-4.293H320.422z M317.959,130.47c0-0.129-0.016-0.307-0.033-0.438
				c-0.145-0.664-0.68-1.215-1.441-1.215c-1.119,0-1.701,1.006-1.701,2.252c0,1.346,0.664,2.188,1.686,2.188
				c0.713,0,1.279-0.484,1.426-1.182c0.049-0.178,0.064-0.357,0.064-0.568V130.47z"/>
			<path fill="#727171" d="M326.762,135.04l-0.146-0.793h-0.049c-0.52,0.631-1.328,0.971-2.27,0.971
				c-1.604,0-2.561-1.166-2.561-2.43c0-2.059,1.848-3.047,4.652-3.031v-0.113c0-0.42-0.227-1.02-1.443-1.02
				c-0.811,0-1.668,0.275-2.188,0.6l-0.453-1.59c0.551-0.307,1.637-0.695,3.078-0.695c2.643,0,3.484,1.555,3.484,3.418v2.756
				c0,0.762,0.033,1.49,0.113,1.928H326.762z M326.469,131.298c-1.297-0.018-2.301,0.291-2.301,1.246
				c0,0.633,0.422,0.941,0.973,0.941c0.615,0,1.117-0.406,1.279-0.908c0.033-0.129,0.049-0.275,0.049-0.422V131.298z"/>
			<path fill="#727171" d="M332.368,127.116l1.184,3.889c0.129,0.471,0.291,1.055,0.389,1.475h0.049
				c0.113-0.42,0.242-1.02,0.357-1.475l0.971-3.889h2.643l-1.848,5.219c-1.135,3.143-1.896,4.408-2.787,5.201
				c-0.859,0.746-1.768,1.004-2.383,1.086l-0.518-2.09c0.307-0.049,0.695-0.195,1.068-0.422c0.373-0.195,0.779-0.584,1.021-0.988
				c0.08-0.113,0.129-0.244,0.129-0.357c0-0.08-0.016-0.211-0.113-0.404l-2.9-7.244H332.368z"/>
			<path fill="#727171" d="M337.952,133.728c0-0.875,0.6-1.508,1.459-1.508c0.857,0,1.441,0.617,1.441,1.508
				c0,0.859-0.584,1.49-1.459,1.49C338.551,135.218,337.952,134.587,337.952,133.728z"/>
		</g>
	</g>
	<g opacity="0.15">
		<g>
			<path fill="#727171" d="M277.366,146.657c0-0.988-0.033-1.832-0.064-2.527h2.074l0.113,1.068h0.049
				c0.34-0.502,1.037-1.248,2.398-1.248c1.02,0,1.83,0.52,2.17,1.346h0.033c0.291-0.404,0.648-0.729,1.021-0.955
				c0.438-0.26,0.924-0.391,1.506-0.391c1.523,0,2.674,1.07,2.674,3.436v4.668h-2.398v-4.311c0-1.15-0.371-1.814-1.166-1.814
				c-0.566,0-0.973,0.389-1.135,0.857c-0.064,0.18-0.096,0.438-0.096,0.633v4.635h-2.398v-4.439c0-1.006-0.357-1.686-1.135-1.686
				c-0.633,0-1.006,0.486-1.15,0.891c-0.082,0.195-0.098,0.422-0.098,0.615v4.619h-2.398V146.657z"/>
			<path fill="#727171" d="M298.973,148.003c0,2.9-2.059,4.229-4.182,4.229c-2.318,0-4.1-1.523-4.1-4.084s1.686-4.197,4.229-4.197
				C297.352,143.95,298.973,145.62,298.973,148.003z M293.235,148.083c0,1.361,0.568,2.383,1.621,2.383
				c0.957,0,1.572-0.957,1.572-2.383c0-1.184-0.453-2.383-1.572-2.383C293.672,145.7,293.235,146.917,293.235,148.083z"/>
			<path fill="#727171" d="M300.282,152.054c0.033-0.52,0.064-1.475,0.064-2.365v-9.139h2.463v4.52h0.033
				c0.471-0.682,1.297-1.119,2.398-1.119c1.896,0,3.289,1.572,3.273,4.004c0,2.852-1.814,4.277-3.631,4.277
				c-0.924,0-1.814-0.34-2.381-1.279h-0.033l-0.098,1.102H300.282z M302.809,148.683c0,0.162,0.018,0.309,0.049,0.438
				c0.162,0.664,0.73,1.168,1.443,1.168c1.053,0,1.701-0.811,1.701-2.236c0-1.232-0.551-2.205-1.701-2.205
				c-0.664,0-1.281,0.502-1.443,1.215c-0.031,0.146-0.049,0.293-0.049,0.455V148.683z"/>
			<path fill="#727171" d="M309.17,150.741c0-0.875,0.6-1.508,1.457-1.508c0.859,0,1.443,0.615,1.443,1.508
				c0,0.859-0.584,1.49-1.459,1.49C309.77,152.231,309.17,151.601,309.17,150.741z"/>
		</g>
	</g>
	<g opacity="0.15">
		<g>
			<path fill="#727171" d="M279.301,165.894c0.08,1.021,1.086,1.508,2.236,1.508c0.842,0,1.523-0.115,2.188-0.324l0.324,1.668
				c-0.811,0.324-1.799,0.486-2.869,0.486c-2.689,0-4.229-1.555-4.229-4.035c0-2.01,1.248-4.229,4.002-4.229
				c2.561,0,3.533,1.992,3.533,3.953c0,0.422-0.049,0.795-0.082,0.973H279.301z M282.202,164.208c0-0.6-0.26-1.604-1.395-1.604
				c-1.037,0-1.457,0.939-1.523,1.604H282.202z"/>
			<path fill="#727171" d="M285.817,163.673c0-0.988-0.033-1.83-0.064-2.527h2.074l0.113,1.07h0.049
				c0.34-0.504,1.037-1.248,2.396-1.248c1.021,0,1.832,0.518,2.172,1.344h0.033c0.291-0.404,0.646-0.729,1.02-0.955
				c0.438-0.26,0.924-0.389,1.508-0.389c1.523,0,2.674,1.068,2.674,3.436v4.666h-2.398v-4.311c0-1.15-0.373-1.814-1.166-1.814
				c-0.568,0-0.973,0.389-1.135,0.859c-0.064,0.178-0.098,0.438-0.098,0.631v4.635h-2.398v-4.439c0-1.006-0.355-1.686-1.133-1.686
				c-0.633,0-1.006,0.486-1.152,0.891c-0.08,0.195-0.096,0.422-0.096,0.617v4.617h-2.398V163.673z"/>
			<path fill="#727171" d="M304.108,169.069l-0.146-0.793h-0.049c-0.518,0.631-1.328,0.971-2.268,0.971
				c-1.604,0-2.561-1.166-2.561-2.43c0-2.059,1.848-3.047,4.65-3.031v-0.113c0-0.42-0.227-1.02-1.441-1.02
				c-0.811,0-1.67,0.275-2.188,0.6l-0.455-1.59c0.551-0.307,1.637-0.695,3.08-0.695c2.641,0,3.484,1.555,3.484,3.418v2.756
				c0,0.762,0.031,1.49,0.113,1.928H304.108z M303.817,165.327c-1.297-0.018-2.301,0.291-2.301,1.246
				c0,0.633,0.42,0.941,0.971,0.941c0.617,0,1.119-0.406,1.281-0.908c0.031-0.129,0.049-0.275,0.049-0.422V165.327z"/>
			<path fill="#727171" d="M310.524,158.942c0,0.68-0.52,1.23-1.328,1.23c-0.779,0-1.297-0.551-1.281-1.23
				c-0.016-0.713,0.502-1.248,1.297-1.248C310.004,157.694,310.508,158.229,310.524,158.942z M307.979,169.069v-7.924h2.463v7.924
				H307.979z"/>
			<path fill="#727171" d="M312.227,157.563h2.465v11.506h-2.465V157.563z"/>
			<path fill="#727171" d="M316.178,167.757c0-0.875,0.6-1.508,1.457-1.508c0.859,0,1.443,0.617,1.443,1.508
				c0,0.859-0.584,1.49-1.459,1.49C316.778,169.247,316.178,168.616,316.178,167.757z"/>
		</g>
	</g>
	<g opacity="0.15">
		<g>
			<path fill="#727171" d="M281.917,186.085l-0.146-0.793h-0.049c-0.518,0.631-1.328,0.971-2.268,0.971
				c-1.605,0-2.561-1.166-2.561-2.43c0-2.059,1.848-3.047,4.65-3.031v-0.113c0-0.42-0.227-1.02-1.441-1.02
				c-0.811,0-1.67,0.275-2.189,0.6l-0.453-1.59c0.551-0.307,1.637-0.695,3.08-0.695c2.641,0,3.482,1.555,3.482,3.418v2.756
				c0,0.762,0.033,1.49,0.113,1.928H281.917z M281.624,182.343c-1.295-0.018-2.301,0.291-2.301,1.246
				c0,0.633,0.422,0.941,0.973,0.941c0.615,0,1.119-0.406,1.281-0.908c0.031-0.129,0.047-0.275,0.047-0.422V182.343z"/>
			<path fill="#727171" d="M293.506,174.579v9.141c0,0.891,0.033,1.83,0.064,2.365h-2.188l-0.113-1.166h-0.031
				c-0.502,0.891-1.459,1.344-2.48,1.344c-1.879,0-3.387-1.604-3.387-4.066c-0.016-2.674,1.654-4.213,3.549-4.213
				c0.973,0,1.734,0.34,2.092,0.891h0.031v-4.295H293.506z M291.043,181.515c0-0.129-0.016-0.307-0.031-0.438
				c-0.146-0.664-0.682-1.215-1.443-1.215c-1.117,0-1.701,1.006-1.701,2.252c0,1.346,0.664,2.188,1.686,2.188
				c0.713,0,1.279-0.484,1.426-1.182c0.049-0.178,0.064-0.357,0.064-0.568V181.515z"/>
			<path fill="#727171" d="M303.016,174.579v9.141c0,0.891,0.033,1.83,0.064,2.365h-2.188l-0.113-1.166h-0.033
				c-0.502,0.891-1.457,1.344-2.479,1.344c-1.879,0-3.387-1.604-3.387-4.066c-0.018-2.674,1.652-4.213,3.549-4.213
				c0.973,0,1.734,0.34,2.09,0.891h0.033v-4.295H303.016z M300.553,181.515c0-0.129-0.016-0.307-0.033-0.438
				c-0.145-0.664-0.68-1.215-1.441-1.215c-1.119,0-1.701,1.006-1.701,2.252c0,1.346,0.664,2.188,1.686,2.188
				c0.713,0,1.279-0.484,1.426-1.182c0.049-0.178,0.064-0.357,0.064-0.568V181.515z"/>
			<path fill="#727171" d="M304.805,180.771c0-1.168-0.033-1.93-0.064-2.609h2.121l0.082,1.459h0.064
				c0.406-1.15,1.377-1.637,2.139-1.637c0.227,0,0.342,0,0.52,0.031v2.318c-0.178-0.033-0.389-0.064-0.664-0.064
				c-0.908,0-1.523,0.484-1.686,1.246c-0.033,0.162-0.049,0.357-0.049,0.551v4.02h-2.463V180.771z"/>
			<path fill="#727171" d="M312.641,182.909c0.082,1.021,1.086,1.508,2.236,1.508c0.844,0,1.523-0.115,2.189-0.324l0.322,1.668
				c-0.809,0.324-1.797,0.486-2.867,0.486c-2.689,0-4.23-1.555-4.23-4.035c0-2.01,1.248-4.229,4.004-4.229
				c2.561,0,3.531,1.992,3.531,3.953c0,0.422-0.047,0.795-0.08,0.973H312.641z M315.543,181.224c0-0.6-0.26-1.604-1.395-1.604
				c-1.037,0-1.459,0.939-1.523,1.604H315.543z"/>
			<path fill="#727171" d="M319.18,183.931c0.455,0.275,1.395,0.6,2.123,0.6c0.746,0,1.053-0.26,1.053-0.666
				c0-0.404-0.242-0.6-1.166-0.906c-1.637-0.551-2.27-1.443-2.252-2.383c0-1.475,1.264-2.592,3.225-2.592
				c0.924,0,1.75,0.211,2.236,0.453l-0.438,1.701c-0.357-0.193-1.037-0.453-1.719-0.453c-0.6,0-0.939,0.242-0.939,0.648
				c0,0.373,0.309,0.566,1.281,0.906c1.506,0.52,2.139,1.281,2.154,2.447c0,1.475-1.166,2.561-3.436,2.561
				c-1.037,0-1.961-0.227-2.561-0.551L319.18,183.931z"/>
			<path fill="#727171" d="M326.108,183.931c0.455,0.275,1.395,0.6,2.123,0.6c0.746,0,1.055-0.26,1.055-0.666
				c0-0.404-0.244-0.6-1.168-0.906c-1.637-0.551-2.268-1.443-2.252-2.383c0-1.475,1.264-2.592,3.225-2.592
				c0.924,0,1.75,0.211,2.236,0.453l-0.438,1.701c-0.357-0.193-1.037-0.453-1.717-0.453c-0.6,0-0.941,0.242-0.941,0.648
				c0,0.373,0.309,0.566,1.281,0.906c1.506,0.52,2.139,1.281,2.154,2.447c0,1.475-1.166,2.561-3.436,2.561
				c-1.037,0-1.961-0.227-2.561-0.551L326.108,183.931z"/>
			<path fill="#727171" d="M332.686,184.772c0-0.875,0.6-1.508,1.457-1.508c0.859,0,1.443,0.617,1.443,1.508
				c0,0.859-0.584,1.49-1.459,1.49C333.286,186.263,332.686,185.632,332.686,184.772z"/>
		</g>
	</g>
	<g opacity="0.15">
		<g>
			<path fill="#727171" d="M279.141,195.177l0.633,3.24c0.162,0.826,0.324,1.701,0.453,2.609h0.033
				c0.162-0.908,0.389-1.814,0.584-2.594l0.842-3.256h1.945l0.793,3.16c0.211,0.891,0.422,1.781,0.584,2.689h0.031
				c0.115-0.908,0.277-1.799,0.455-2.707l0.68-3.143h2.414l-2.43,7.924h-2.316l-0.746-2.787c-0.195-0.777-0.34-1.492-0.502-2.463
				h-0.033c-0.146,0.988-0.309,1.717-0.518,2.463l-0.795,2.787h-2.316l-2.303-7.924H279.141z"/>
			<path fill="#727171" d="M291.317,199.925c0.082,1.02,1.086,1.506,2.236,1.506c0.844,0,1.523-0.113,2.189-0.324l0.324,1.67
				c-0.811,0.324-1.801,0.486-2.869,0.486c-2.689,0-4.229-1.557-4.229-4.035c0-2.01,1.248-4.23,4.002-4.23
				c2.561,0,3.533,1.994,3.533,3.955c0,0.422-0.049,0.793-0.082,0.973H291.317z M294.219,198.239c0-0.6-0.26-1.605-1.395-1.605
				c-1.037,0-1.459,0.941-1.523,1.605H294.219z"/>
			<path fill="#727171" d="M297.77,203.101c0.031-0.52,0.064-1.475,0.064-2.365v-9.141h2.463v4.521h0.033
				c0.469-0.682,1.295-1.119,2.398-1.119c1.895,0,3.289,1.572,3.273,4.004c0,2.852-1.816,4.277-3.631,4.277
				c-0.924,0-1.814-0.34-2.383-1.279h-0.031l-0.098,1.102H297.77z M300.297,199.729c0,0.162,0.016,0.309,0.049,0.438
				c0.162,0.664,0.729,1.168,1.441,1.168c1.055,0,1.703-0.811,1.703-2.236c0-1.232-0.551-2.205-1.703-2.205
				c-0.664,0-1.279,0.502-1.441,1.215c-0.033,0.146-0.049,0.293-0.049,0.455V199.729z"/>
			<path fill="#727171" d="M307.442,192.323c0.762-0.129,1.832-0.227,3.338-0.227c1.523,0,2.609,0.293,3.338,0.875
				c0.697,0.551,1.168,1.459,1.168,2.529c0,1.068-0.357,1.977-1.006,2.592c-0.842,0.795-2.09,1.15-3.549,1.15
				c-0.324,0-0.615-0.016-0.842-0.049v3.906h-2.447V192.323z M309.889,197.282c0.211,0.049,0.469,0.064,0.826,0.064
				c1.313,0,2.123-0.664,2.123-1.781c0-1.006-0.697-1.605-1.928-1.605c-0.504,0-0.844,0.049-1.021,0.098V197.282z"/>
			<path fill="#727171" d="M320.889,203.101l-0.146-0.795h-0.049c-0.52,0.633-1.328,0.973-2.27,0.973
				c-1.604,0-2.561-1.166-2.561-2.43c0-2.059,1.848-3.047,4.652-3.031v-0.113c0-0.422-0.227-1.021-1.443-1.021
				c-0.811,0-1.668,0.275-2.188,0.6l-0.453-1.588c0.551-0.307,1.637-0.697,3.078-0.697c2.643,0,3.484,1.557,3.484,3.42v2.756
				c0,0.76,0.033,1.49,0.113,1.928H320.889z M320.596,199.356c-1.297-0.016-2.301,0.293-2.301,1.248
				c0,0.633,0.422,0.939,0.973,0.939c0.615,0,1.117-0.404,1.279-0.906c0.033-0.131,0.049-0.275,0.049-0.422V199.356z"/>
			<path fill="#727171" d="M332.366,195.177c-0.031,0.502-0.064,1.166-0.064,2.35v4.424c0,1.523-0.307,2.771-1.199,3.564
				c-0.875,0.746-2.057,0.973-3.225,0.973c-1.037,0-2.139-0.211-2.852-0.615l0.486-1.865c0.502,0.293,1.377,0.6,2.301,0.6
				c1.166,0,2.059-0.631,2.059-2.09v-0.518h-0.033c-0.471,0.664-1.23,1.037-2.139,1.037c-1.961,0-3.355-1.588-3.355-3.873
				c0-2.545,1.654-4.166,3.598-4.166c1.086,0,1.768,0.471,2.172,1.119h0.033l0.08-0.939H332.366z M329.838,198.401
				c0-0.162-0.016-0.324-0.049-0.455c-0.178-0.646-0.648-1.084-1.328-1.084c-0.891,0-1.621,0.809-1.621,2.252
				c0,1.184,0.584,2.105,1.621,2.105c0.631,0,1.135-0.42,1.297-1.004c0.064-0.178,0.08-0.438,0.08-0.648V198.401z"/>
			<path fill="#727171" d="M336.024,199.925c0.082,1.02,1.086,1.506,2.236,1.506c0.844,0,1.523-0.113,2.189-0.324l0.322,1.67
				c-0.809,0.324-1.797,0.486-2.867,0.486c-2.689,0-4.23-1.557-4.23-4.035c0-2.01,1.248-4.23,4.004-4.23
				c2.561,0,3.531,1.994,3.531,3.955c0,0.422-0.047,0.793-0.08,0.973H336.024z M338.926,198.239c0-0.6-0.26-1.605-1.395-1.605
				c-1.037,0-1.459,0.941-1.523,1.605H338.926z"/>
			<path fill="#727171" d="M342.116,201.788c0-0.875,0.6-1.508,1.457-1.508c0.859,0,1.443,0.615,1.443,1.508
				c0,0.859-0.584,1.49-1.459,1.49C342.715,203.278,342.116,202.647,342.116,201.788z"/>
		</g>
	</g>
	<g opacity="0.15">
		<g>
			<path fill="#727171" d="M284.973,212.192c-0.033,0.502-0.066,1.168-0.066,2.35v4.424c0,1.523-0.307,2.771-1.199,3.566
				c-0.875,0.744-2.057,0.971-3.225,0.971c-1.037,0-2.139-0.209-2.852-0.615l0.486-1.863c0.502,0.291,1.377,0.6,2.301,0.6
				c1.168,0,2.059-0.633,2.059-2.09v-0.52h-0.033c-0.469,0.664-1.23,1.037-2.139,1.037c-1.961,0-3.354-1.588-3.354-3.873
				c0-2.543,1.652-4.164,3.598-4.164c1.084,0,1.766,0.471,2.17,1.117h0.033l0.08-0.939H284.973z M282.444,215.417
				c0-0.162-0.016-0.324-0.049-0.453c-0.178-0.648-0.646-1.086-1.328-1.086c-0.891,0-1.621,0.811-1.621,2.252
				c0,1.184,0.584,2.107,1.621,2.107c0.633,0,1.135-0.422,1.297-1.004c0.064-0.18,0.08-0.438,0.08-0.648V215.417z"/>
			<path fill="#727171" d="M289.241,209.989c0,0.68-0.52,1.23-1.328,1.23c-0.779,0-1.297-0.551-1.281-1.23
				c-0.016-0.713,0.502-1.248,1.297-1.248C288.721,208.741,289.225,209.276,289.241,209.989z M286.696,220.116v-7.924h2.463v7.924
				H286.696z"/>
			<path fill="#727171" d="M293.77,209.925v2.268h1.768v1.814h-1.768v2.869c0,0.957,0.227,1.395,0.973,1.395
				c0.309,0,0.551-0.033,0.729-0.066l0.018,1.863c-0.324,0.131-0.908,0.211-1.605,0.211c-0.793,0-1.457-0.275-1.848-0.68
				c-0.453-0.471-0.68-1.232-0.68-2.35v-3.242h-1.053v-1.814h1.053v-1.717L293.77,209.925z"/>
			<path fill="#727171" d="M296.819,208.612h2.463v4.52h0.031c0.26-0.34,0.584-0.6,0.973-0.809c0.357-0.195,0.826-0.309,1.281-0.309
				c1.572,0,2.77,1.086,2.77,3.467v4.635h-2.463v-4.357c0-1.037-0.355-1.752-1.279-1.752c-0.648,0-1.053,0.422-1.232,0.859
				c-0.064,0.162-0.08,0.373-0.08,0.551v4.699h-2.463V208.612z"/>
			<path fill="#727171" d="M313.586,217.573c0,1.037,0.033,1.879,0.064,2.543h-2.139l-0.113-1.117h-0.049
				c-0.309,0.486-1.053,1.297-2.479,1.297c-1.605,0-2.787-1.006-2.787-3.453v-4.65h2.479v4.262c0,1.15,0.373,1.848,1.232,1.848
				c0.68,0,1.068-0.469,1.23-0.859c0.064-0.145,0.082-0.34,0.082-0.533v-4.717h2.479V217.573z"/>
			<path fill="#727171" d="M315.311,220.116c0.031-0.518,0.064-1.475,0.064-2.365v-9.139h2.463v4.52h0.033
				c0.469-0.68,1.295-1.117,2.398-1.117c1.895,0,3.289,1.572,3.273,4.002c0,2.854-1.816,4.279-3.631,4.279
				c-0.924,0-1.814-0.342-2.383-1.281h-0.031l-0.098,1.102H315.311z M317.838,216.747c0,0.162,0.016,0.307,0.049,0.438
				c0.162,0.664,0.729,1.166,1.441,1.166c1.055,0,1.703-0.811,1.703-2.236c0-1.232-0.551-2.203-1.703-2.203
				c-0.664,0-1.279,0.502-1.441,1.215c-0.033,0.146-0.049,0.291-0.049,0.453V216.747z"/>
			<path fill="#727171" d="M324.198,218.804c0-0.875,0.6-1.506,1.459-1.506s1.443,0.615,1.443,1.506
				c0,0.859-0.584,1.492-1.459,1.492C324.797,220.296,324.198,219.663,324.198,218.804z"/>
		</g>
	</g>
	<g>
		<g>
			<path fill="#4C4948" d="M348.442,130.438h-0.016l-0.916,0.494l-0.139-0.543l1.15-0.615h0.609v5.266h-0.689V130.438z"/>
			<path fill="#4C4948" d="M351.461,134.538c0.154,0.016,0.332,0,0.576-0.025c0.412-0.057,0.803-0.227,1.102-0.51
				c0.348-0.316,0.6-0.777,0.697-1.402h-0.025c-0.291,0.357-0.713,0.568-1.238,0.568c-0.949,0-1.557-0.713-1.557-1.613
				c0-0.996,0.721-1.871,1.799-1.871s1.742,0.875,1.742,2.221c0,1.158-0.389,1.969-0.908,2.471
				c-0.404,0.396-0.963,0.641-1.531,0.705c-0.258,0.041-0.486,0.049-0.656,0.041V134.538z M351.721,131.507
				c0,0.656,0.396,1.119,1.014,1.119c0.477,0,0.85-0.234,1.037-0.551c0.039-0.064,0.064-0.146,0.064-0.26
				c0-0.898-0.332-1.588-1.078-1.588C352.151,130.228,351.721,130.763,351.721,131.507z"/>
			<path fill="#4C4948" d="M355.618,134.538c0.152,0.016,0.332,0,0.574-0.025c0.414-0.057,0.803-0.227,1.102-0.51
				c0.35-0.316,0.6-0.777,0.697-1.402h-0.023c-0.293,0.357-0.713,0.568-1.24,0.568c-0.947,0-1.557-0.713-1.557-1.613
				c0-0.996,0.723-1.871,1.799-1.871c1.078,0,1.742,0.875,1.742,2.221c0,1.158-0.389,1.969-0.906,2.471
				c-0.406,0.396-0.965,0.641-1.531,0.705c-0.26,0.041-0.486,0.049-0.656,0.041V134.538z M355.875,131.507
				c0,0.656,0.398,1.119,1.014,1.119c0.479,0,0.852-0.234,1.037-0.551c0.041-0.064,0.064-0.146,0.064-0.26
				c0-0.898-0.332-1.588-1.078-1.588C356.305,130.228,355.875,130.763,355.875,131.507z"/>
			<path fill="#4C4948" d="M361.563,135.04v-1.434h-2.447v-0.471l2.35-3.361h0.77v3.273h0.738v0.559h-0.738v1.434H361.563z
				 M361.563,133.048v-1.76c0-0.275,0.008-0.551,0.023-0.826h-0.023c-0.162,0.309-0.293,0.535-0.438,0.779l-1.289,1.789v0.018
				H361.563z"/>
			<path fill="#4C4948" d="M363.571,134.618c0-0.299,0.203-0.51,0.486-0.51s0.479,0.211,0.479,0.51c0,0.293-0.188,0.512-0.486,0.512
				C363.764,135.13,363.571,134.911,363.571,134.618z"/>
			<path fill="#4C4948" d="M368.69,132.351c0,1.791-0.664,2.779-1.83,2.779c-1.029,0-1.727-0.965-1.742-2.707
				c0-1.766,0.762-2.738,1.83-2.738C368.059,129.685,368.69,130.673,368.69,132.351z M365.831,132.431
				c0,1.369,0.422,2.148,1.068,2.148c0.73,0,1.078-0.852,1.078-2.197c0-1.295-0.332-2.146-1.068-2.146
				C366.284,130.235,365.831,130.997,365.831,132.431z"/>
			<path fill="#4C4948" d="M370.893,130.438h-0.018l-0.914,0.494l-0.139-0.543l1.15-0.615h0.607v5.266h-0.688V130.438z"/>
			<path fill="#4C4948" d="M373.557,134.618c0-0.299,0.201-0.51,0.486-0.51c0.283,0,0.477,0.211,0.477,0.51
				c0,0.293-0.186,0.512-0.486,0.512C373.75,135.13,373.557,134.911,373.557,134.618z"/>
			<path fill="#4C4948" d="M375.176,135.04v-0.438l0.559-0.543c1.346-1.279,1.953-1.961,1.961-2.754c0-0.535-0.26-1.029-1.045-1.029
				c-0.479,0-0.875,0.242-1.119,0.445l-0.227-0.502c0.365-0.309,0.883-0.535,1.49-0.535c1.135,0,1.613,0.777,1.613,1.531
				c0,0.973-0.705,1.758-1.814,2.828l-0.422,0.389v0.016h2.365v0.592H375.176z"/>
			<path fill="#4C4948" d="M379.331,135.04v-0.438l0.561-0.543c1.344-1.279,1.951-1.961,1.959-2.754
				c0-0.535-0.258-1.029-1.045-1.029c-0.477,0-0.875,0.242-1.117,0.445l-0.227-0.502c0.363-0.309,0.883-0.535,1.49-0.535
				c1.135,0,1.613,0.777,1.613,1.531c0,0.973-0.705,1.758-1.816,2.828l-0.42,0.389v0.016h2.365v0.592H379.331z"/>
		</g>
	</g>
	<g>
		<g>
			<path fill="#727171" d="M383.885,68.798h2.932v13.602h6.598v2.453h-9.529V68.798z"/>
			<path fill="#727171" d="M397.184,79.874c0.07,2.096,1.715,3,3.572,3c1.357,0,2.334-0.189,3.215-0.523l0.43,2.025
				c-1.002,0.404-2.383,0.715-4.051,0.715c-3.762,0-5.979-2.311-5.979-5.859c0-3.217,1.953-6.242,5.67-6.242
				c3.764,0,5.002,3.098,5.002,5.646c0,0.547-0.047,0.977-0.096,1.238H397.184z M402.28,77.825c0.025-1.072-0.451-2.834-2.404-2.834
				c-1.811,0-2.574,1.643-2.691,2.834H402.28z"/>
			<path fill="#727171" d="M409.309,79.874c0.072,2.096,1.715,3,3.574,3c1.357,0,2.334-0.189,3.215-0.523l0.428,2.025
				c-1,0.404-2.381,0.715-4.049,0.715c-3.764,0-5.979-2.311-5.979-5.859c0-3.217,1.953-6.242,5.67-6.242
				c3.764,0,5.002,3.098,5.002,5.646c0,0.547-0.049,0.977-0.096,1.238H409.309z M414.407,77.825
				c0.023-1.072-0.453-2.834-2.406-2.834c-1.811,0-2.572,1.643-2.691,2.834H414.407z"/>
			<path fill="#727171" d="M417.713,87.733c0.643-1.811,1.287-4.311,1.596-6.287l3.072-0.238c-0.666,2.238-1.738,4.811-2.666,6.336
				L417.713,87.733z"/>
			<path fill="#727171" d="M429.518,81.659c0.953,0.549,2.383,1.025,3.883,1.025c1.883,0,2.93-0.881,2.93-2.191
				c0-1.215-0.809-1.93-2.857-2.668c-2.645-0.953-4.336-2.357-4.336-4.668c0-2.621,2.191-4.621,5.67-4.621
				c1.738,0,3.025,0.381,3.857,0.809l-0.713,2.359c-0.572-0.311-1.691-0.762-3.193-0.762c-1.857,0-2.666,1-2.666,1.928
				c0,1.24,0.928,1.811,3.072,2.645c2.787,1.049,4.145,2.453,4.145,4.764c0,2.572-1.953,4.813-6.098,4.813
				c-1.691,0-3.455-0.477-4.336-1.002L429.518,81.659z"/>
			<path fill="#727171" d="M452.823,78.944c0,4.264-3,6.17-5.953,6.17c-3.287,0-5.813-2.264-5.813-5.979
				c0-3.813,2.5-6.146,6.002-6.146C450.514,72.989,452.823,75.419,452.823,78.944z M444.083,79.063c0,2.24,1.096,3.93,2.881,3.93
				c1.668,0,2.836-1.643,2.836-3.977c0-1.811-0.811-3.883-2.811-3.883C444.917,75.134,444.083,77.134,444.083,79.063z"/>
			<path fill="#727171" d="M462.954,68.798v6.432h6.789v-6.432h2.93v16.055h-2.93v-7.074h-6.789v7.074h-2.93V68.798H462.954z"/>
			<path fill="#727171" d="M478.864,70.013c0,0.881-0.643,1.572-1.666,1.572c-0.977,0-1.621-0.691-1.621-1.572
				c0-0.904,0.668-1.596,1.645-1.596C478.221,68.417,478.84,69.108,478.864,70.013z M475.745,84.853v-11.6h2.953v11.6H475.745z"/>
		</g>
	</g>
	<g>
		<g>
			<path fill="#727171" d="M278.383,99.585l-2.217-8.732h1.193l1.035,4.418c0.26,1.088,0.492,2.176,0.648,3.018h0.025
				c0.143-0.867,0.414-1.904,0.713-3.031l1.166-4.404h1.178l1.063,4.432c0.246,1.035,0.48,2.072,0.609,2.992h0.025
				c0.182-0.959,0.428-1.932,0.701-3.02l1.152-4.404h1.152l-2.475,8.732h-1.178l-1.102-4.547c-0.271-1.115-0.453-1.969-0.57-2.85
				h-0.025c-0.156,0.867-0.35,1.723-0.674,2.85l-1.244,4.547H278.383z"/>
			<path fill="#727171" d="M288.03,96.657c0.025,1.541,1.01,2.176,2.15,2.176c0.816,0,1.309-0.143,1.734-0.324l0.195,0.816
				c-0.402,0.182-1.088,0.389-2.086,0.389c-1.93,0-3.082-1.27-3.082-3.16c0-1.893,1.113-3.381,2.939-3.381
				c2.047,0,2.592,1.801,2.592,2.953c0,0.232-0.027,0.414-0.039,0.531H288.03z M291.372,95.841c0.012-0.725-0.297-1.854-1.58-1.854
				c-1.152,0-1.658,1.063-1.75,1.854H291.372z"/>
			<path fill="#727171" d="M293.7,99.585c0.025-0.428,0.051-1.063,0.051-1.619v-7.578h1.127v3.938h0.025
				c0.402-0.699,1.129-1.152,2.139-1.152c1.555,0,2.656,1.295,2.643,3.199c0,2.24-1.412,3.355-2.811,3.355
				c-0.906,0-1.633-0.35-2.1-1.18h-0.039l-0.051,1.037H293.7z M294.877,97.071c0,0.143,0.025,0.285,0.053,0.414
				c0.219,0.791,0.881,1.334,1.709,1.334c1.193,0,1.904-0.971,1.904-2.408c0-1.258-0.646-2.332-1.865-2.332
				c-0.777,0-1.502,0.531-1.736,1.398c-0.025,0.129-0.064,0.285-0.064,0.467V97.071z"/>
			<path fill="#727171" d="M303.762,90.97c0.688-0.104,1.504-0.182,2.398-0.182c1.619,0,2.771,0.377,3.535,1.088
				c0.777,0.713,1.23,1.725,1.23,3.135c0,1.426-0.439,2.592-1.256,3.395c-0.816,0.816-2.164,1.256-3.861,1.256
				c-0.803,0-1.477-0.037-2.047-0.104V90.97z M304.891,98.69c0.283,0.051,0.699,0.064,1.139,0.064c2.41,0,3.719-1.348,3.719-3.705
				c0.012-2.059-1.152-3.367-3.537-3.367c-0.582,0-1.023,0.051-1.32,0.117V98.69z"/>
			<path fill="#727171" d="M312.944,96.657c0.025,1.541,1.01,2.176,2.15,2.176c0.816,0,1.309-0.143,1.736-0.324l0.193,0.816
				c-0.4,0.182-1.088,0.389-2.084,0.389c-1.932,0-3.084-1.27-3.084-3.16c0-1.893,1.113-3.381,2.941-3.381
				c2.047,0,2.59,1.801,2.59,2.953c0,0.232-0.025,0.414-0.039,0.531H312.944z M316.286,95.841c0.014-0.725-0.297-1.854-1.58-1.854
				c-1.152,0-1.658,1.063-1.748,1.854H316.286z"/>
			<path fill="#727171" d="M318.549,98.419c0.336,0.219,0.932,0.453,1.502,0.453c0.83,0,1.219-0.414,1.219-0.934
				c0-0.543-0.324-0.842-1.166-1.152c-1.127-0.402-1.658-1.023-1.658-1.775c0-1.01,0.816-1.838,2.162-1.838
				c0.635,0,1.193,0.18,1.543,0.389l-0.285,0.828c-0.246-0.154-0.699-0.363-1.283-0.363c-0.674,0-1.049,0.389-1.049,0.855
				c0,0.518,0.375,0.752,1.191,1.063c1.088,0.414,1.645,0.959,1.645,1.891c0,1.102-0.854,1.879-2.344,1.879
				c-0.688,0-1.322-0.168-1.762-0.428L318.549,98.419z"/>
			<path fill="#727171" d="M324.973,91.554c0.014,0.389-0.271,0.699-0.725,0.699c-0.402,0-0.688-0.311-0.688-0.699
				c0-0.402,0.299-0.713,0.713-0.713C324.702,90.841,324.973,91.151,324.973,91.554z M323.704,99.585v-6.27h1.141v6.27H323.704z"/>
			<path fill="#727171" d="M332.006,93.315c-0.025,0.453-0.051,0.957-0.051,1.723v3.639c0,1.439-0.285,2.32-0.895,2.863
				c-0.607,0.57-1.49,0.752-2.279,0.752c-0.752,0-1.58-0.182-2.086-0.518l0.285-0.869c0.414,0.26,1.063,0.492,1.84,0.492
				c1.166,0,2.021-0.609,2.021-2.189v-0.699h-0.027c-0.35,0.584-1.023,1.049-1.994,1.049c-1.555,0-2.67-1.32-2.67-3.057
				c0-2.125,1.387-3.328,2.824-3.328c1.09,0,1.686,0.568,1.957,1.088h0.025l0.053-0.945H332.006z M330.829,95.788
				c0-0.193-0.014-0.363-0.064-0.518c-0.207-0.66-0.766-1.205-1.594-1.205c-1.088,0-1.865,0.92-1.865,2.371
				c0,1.23,0.621,2.254,1.852,2.254c0.699,0,1.334-0.441,1.58-1.166c0.066-0.193,0.092-0.414,0.092-0.609V95.788z"/>
			<path fill="#727171" d="M333.592,95.011c0-0.646-0.012-1.178-0.051-1.695h1.01l0.064,1.035h0.027
				c0.311-0.596,1.035-1.178,2.072-1.178c0.867,0,2.215,0.518,2.215,2.668v3.744h-1.141V95.97c0-1.01-0.375-1.852-1.451-1.852
				c-0.75,0-1.334,0.531-1.527,1.166c-0.053,0.141-0.078,0.336-0.078,0.529v3.771h-1.141V95.011z"/>
			<path fill="#727171" d="M341.28,96.657c0.025,1.541,1.01,2.176,2.15,2.176c0.816,0,1.309-0.143,1.736-0.324l0.193,0.816
				c-0.4,0.182-1.088,0.389-2.084,0.389c-1.932,0-3.084-1.27-3.084-3.16c0-1.893,1.113-3.381,2.941-3.381
				c2.047,0,2.59,1.801,2.59,2.953c0,0.232-0.025,0.414-0.039,0.531H341.28z M344.622,95.841c0.014-0.725-0.297-1.854-1.58-1.854
				c-1.152,0-1.658,1.063-1.748,1.854H344.622z"/>
			<path fill="#727171" d="M347,95.271c0-0.738-0.012-1.373-0.051-1.955h0.998l0.037,1.23h0.053
				c0.285-0.842,0.971-1.373,1.736-1.373c0.129,0,0.221,0.012,0.324,0.039v1.074c-0.117-0.025-0.234-0.039-0.389-0.039
				c-0.805,0-1.373,0.609-1.529,1.463c-0.025,0.156-0.053,0.338-0.053,0.531v3.344H347V95.271z"/>
			<path fill="#727171" d="M359.432,99.585c-0.246-0.246-0.479-0.492-0.816-0.855c-0.752,0.699-1.594,0.998-2.553,0.998
				c-1.695,0-2.682-1.141-2.682-2.449c0-1.191,0.713-2.008,1.711-2.551v-0.039c-0.453-0.57-0.725-1.205-0.725-1.828
				c0-1.061,0.764-2.15,2.215-2.15c1.088,0,1.93,0.727,1.93,1.854c0,0.92-0.531,1.645-1.918,2.332v0.039
				c0.74,0.854,1.568,1.813,2.125,2.434c0.402-0.607,0.674-1.449,0.842-2.551h1.037c-0.232,1.373-0.609,2.461-1.256,3.225
				c0.465,0.492,0.92,0.984,1.438,1.543H359.432z M358.059,98.081c-0.518-0.57-1.49-1.633-2.461-2.746
				c-0.467,0.299-1.127,0.855-1.127,1.775c0,0.996,0.738,1.762,1.787,1.762C357.01,98.872,357.645,98.534,358.059,98.081z
				 M355.403,92.757c0,0.623,0.285,1.102,0.66,1.568c0.883-0.506,1.451-0.973,1.451-1.711c0-0.531-0.297-1.127-1.01-1.127
				C355.78,91.487,355.403,92.083,355.403,92.757z"/>
			<path fill="#727171" d="M367.229,99.585c-0.248-0.246-0.48-0.492-0.816-0.855c-0.752,0.699-1.594,0.998-2.553,0.998
				c-1.697,0-2.682-1.141-2.682-2.449c0-1.191,0.713-2.008,1.711-2.551v-0.039c-0.455-0.57-0.727-1.205-0.727-1.828
				c0-1.061,0.764-2.15,2.215-2.15c1.088,0,1.932,0.727,1.932,1.854c0,0.92-0.531,1.645-1.918,2.332v0.039
				c0.738,0.854,1.568,1.813,2.125,2.434c0.4-0.607,0.674-1.449,0.842-2.551h1.035c-0.232,1.373-0.607,2.461-1.256,3.225
				c0.467,0.492,0.92,0.984,1.438,1.543H367.229z M365.854,98.081c-0.518-0.57-1.488-1.633-2.461-2.746
				c-0.467,0.299-1.127,0.855-1.127,1.775c0,0.996,0.738,1.762,1.787,1.762C364.805,98.872,365.44,98.534,365.854,98.081z
				 M363.2,92.757c0,0.623,0.285,1.102,0.66,1.568c0.881-0.506,1.451-0.973,1.451-1.711c0-0.531-0.299-1.127-1.01-1.127
				C363.575,91.487,363.2,92.083,363.2,92.757z"/>
			<path fill="#727171" d="M372.247,90.853h4.701V91.8h-3.574v2.9h3.303v0.934h-3.303v3.951h-1.127V90.853z"/>
			<path fill="#727171" d="M378.03,95.271c0-0.738-0.014-1.373-0.051-1.955h0.996l0.039,1.23h0.053
				c0.285-0.842,0.971-1.373,1.734-1.373c0.131,0,0.221,0.012,0.324,0.039v1.074c-0.115-0.025-0.232-0.039-0.389-0.039
				c-0.803,0-1.373,0.609-1.527,1.463c-0.027,0.156-0.053,0.338-0.053,0.531v3.344h-1.127V95.271z"/>
			<path fill="#727171" d="M387.743,96.397c0,2.318-1.605,3.33-3.121,3.33c-1.697,0-3.006-1.244-3.006-3.227
				c0-2.098,1.373-3.328,3.109-3.328C386.526,93.173,387.743,94.481,387.743,96.397z M382.768,96.462c0,1.373,0.791,2.41,1.906,2.41
				c1.088,0,1.904-1.023,1.904-2.436c0-1.063-0.531-2.41-1.879-2.41S382.768,95.271,382.768,96.462z"/>
			<path fill="#727171" d="M389.045,95.011c0-0.646-0.014-1.178-0.053-1.695h1.012l0.064,1.035h0.025
				c0.311-0.596,1.037-1.178,2.072-1.178c0.869,0,2.217,0.518,2.217,2.668v3.744h-1.141V95.97c0-1.01-0.375-1.852-1.451-1.852
				c-0.752,0-1.334,0.531-1.529,1.166c-0.051,0.141-0.076,0.336-0.076,0.529v3.771h-1.141V95.011z"/>
			<path fill="#727171" d="M397.444,91.515v1.801h1.633v0.867h-1.633v3.381c0,0.777,0.221,1.217,0.855,1.217
				c0.299,0,0.518-0.039,0.66-0.076l0.053,0.854c-0.221,0.092-0.57,0.156-1.01,0.156c-0.531,0-0.959-0.168-1.232-0.479
				c-0.322-0.338-0.439-0.895-0.439-1.633v-3.42h-0.971v-0.867h0.971v-1.504L397.444,91.515z"/>
			<path fill="#727171" d="M400.834,96.657c0.027,1.541,1.012,2.176,2.15,2.176c0.816,0,1.309-0.143,1.736-0.324l0.195,0.816
				c-0.402,0.182-1.088,0.389-2.086,0.389c-1.932,0-3.084-1.27-3.084-3.16c0-1.893,1.115-3.381,2.941-3.381
				c2.047,0,2.59,1.801,2.59,2.953c0,0.232-0.025,0.414-0.039,0.531H400.834z M404.178,95.841c0.012-0.725-0.299-1.854-1.582-1.854
				c-1.152,0-1.658,1.063-1.748,1.854H404.178z"/>
			<path fill="#727171" d="M406.557,95.011c0-0.646-0.014-1.178-0.053-1.695h1.01l0.066,1.035h0.025
				c0.311-0.596,1.035-1.178,2.072-1.178c0.867,0,2.215,0.518,2.215,2.668v3.744h-1.139V95.97c0-1.01-0.377-1.852-1.451-1.852
				c-0.752,0-1.334,0.531-1.529,1.166c-0.051,0.141-0.078,0.336-0.078,0.529v3.771h-1.139V95.011z"/>
			<path fill="#727171" d="M419.024,90.388v7.578c0,0.557,0.012,1.191,0.051,1.619h-1.023L418,98.495h-0.025
				c-0.352,0.701-1.115,1.232-2.139,1.232c-1.516,0-2.682-1.283-2.682-3.188c-0.012-2.086,1.283-3.367,2.811-3.367
				c0.959,0,1.607,0.453,1.893,0.957h0.025v-3.742H419.024z M417.883,95.866c0-0.143-0.012-0.336-0.051-0.479
				c-0.17-0.727-0.791-1.322-1.646-1.322c-1.178,0-1.879,1.037-1.879,2.422c0,1.27,0.623,2.32,1.854,2.32
				c0.764,0,1.463-0.506,1.672-1.361c0.039-0.154,0.051-0.311,0.051-0.492V95.866z"/>
			<path fill="#727171" d="M423.516,90.97c0.686-0.104,1.502-0.182,2.396-0.182c1.619,0,2.771,0.377,3.537,1.088
				c0.777,0.713,1.23,1.725,1.23,3.135c0,1.426-0.441,2.592-1.258,3.395c-0.816,0.816-2.162,1.256-3.859,1.256
				c-0.805,0-1.477-0.037-2.047-0.104V90.97z M424.643,98.69c0.285,0.051,0.699,0.064,1.139,0.064c2.41,0,3.719-1.348,3.719-3.705
				c0.014-2.059-1.152-3.367-3.537-3.367c-0.582,0-1.023,0.051-1.32,0.117V98.69z"/>
			<path fill="#727171" d="M432.696,96.657c0.027,1.541,1.012,2.176,2.15,2.176c0.816,0,1.309-0.143,1.736-0.324l0.195,0.816
				c-0.402,0.182-1.088,0.389-2.086,0.389c-1.932,0-3.084-1.27-3.084-3.16c0-1.893,1.115-3.381,2.941-3.381
				c2.047,0,2.59,1.801,2.59,2.953c0,0.232-0.025,0.414-0.039,0.531H432.696z M436.04,95.841c0.012-0.725-0.299-1.854-1.582-1.854
				c-1.152,0-1.658,1.063-1.748,1.854H436.04z"/>
			<path fill="#727171" d="M438.932,93.315l1.23,3.521c0.207,0.57,0.375,1.09,0.504,1.607h0.039
				c0.143-0.518,0.324-1.037,0.531-1.607l1.219-3.521h1.191l-2.461,6.27h-1.088l-2.385-6.27H438.932z"/>
			<path fill="#727171" d="M445.167,96.657c0.025,1.541,1.01,2.176,2.15,2.176c0.816,0,1.309-0.143,1.736-0.324l0.193,0.816
				c-0.4,0.182-1.088,0.389-2.084,0.389c-1.932,0-3.084-1.27-3.084-3.16c0-1.893,1.113-3.381,2.941-3.381
				c2.047,0,2.59,1.801,2.59,2.953c0,0.232-0.025,0.414-0.039,0.531H445.167z M448.508,95.841c0.014-0.725-0.297-1.854-1.58-1.854
				c-1.152,0-1.658,1.063-1.748,1.854H448.508z"/>
			<path fill="#727171" d="M450.883,90.388h1.141v9.197h-1.141V90.388z"/>
			<path fill="#727171" d="M459.469,96.397c0,2.318-1.605,3.33-3.123,3.33c-1.695,0-3.004-1.244-3.004-3.227
				c0-2.098,1.373-3.328,3.109-3.328C458.252,93.173,459.469,94.481,459.469,96.397z M454.495,96.462c0,1.373,0.791,2.41,1.904,2.41
				c1.088,0,1.904-1.023,1.904-2.436c0-1.063-0.531-2.41-1.879-2.41S454.495,95.271,454.495,96.462z"/>
			<path fill="#727171" d="M460.77,95.36c0-0.803-0.025-1.449-0.051-2.045h1.023l0.051,1.074h0.027
				c0.465-0.764,1.203-1.217,2.227-1.217c1.516,0,2.656,1.281,2.656,3.186c0,2.254-1.373,3.369-2.85,3.369
				c-0.83,0-1.555-0.363-1.93-0.986h-0.027v3.408h-1.127V95.36z M461.897,97.032c0,0.168,0.027,0.324,0.053,0.467
				c0.207,0.789,0.895,1.334,1.709,1.334c1.205,0,1.904-0.984,1.904-2.422c0-1.258-0.66-2.332-1.865-2.332
				c-0.777,0-1.502,0.557-1.723,1.412c-0.039,0.143-0.078,0.311-0.078,0.465V97.032z"/>
			<path fill="#727171" d="M468.68,96.657c0.025,1.541,1.01,2.176,2.15,2.176c0.816,0,1.309-0.143,1.736-0.324l0.193,0.816
				c-0.4,0.182-1.088,0.389-2.084,0.389c-1.932,0-3.084-1.27-3.084-3.16c0-1.893,1.113-3.381,2.941-3.381
				c2.047,0,2.59,1.801,2.59,2.953c0,0.232-0.025,0.414-0.039,0.531H468.68z M472.022,95.841c0.014-0.725-0.297-1.854-1.58-1.854
				c-1.152,0-1.658,1.063-1.748,1.854H472.022z"/>
			<path fill="#727171" d="M474.403,95.271c0-0.738-0.014-1.373-0.053-1.955h0.998l0.039,1.23h0.051
				c0.285-0.842,0.973-1.373,1.736-1.373c0.129,0,0.221,0.012,0.324,0.039v1.074c-0.117-0.025-0.234-0.039-0.389-0.039
				c-0.803,0-1.373,0.609-1.529,1.463c-0.025,0.156-0.051,0.338-0.051,0.531v3.344h-1.127V95.271z"/>
		</g>
	</g>
	<path fill="#C4181F" d="M381.336,66.153c-1.525,2.262-2.691,5.406-2.691,9.691c0,4.217,1.191,7.336,2.691,9.623h-2.145
		c-1.357-1.906-2.881-5.002-2.881-9.623c0.023-4.645,1.523-7.764,2.881-9.691H381.336z"/>
	<path fill="#C4181F" d="M480.37,85.468c1.502-2.264,2.668-5.432,2.668-9.67s-1.166-7.359-2.668-9.645h2.119
		c1.381,1.904,2.906,5,2.906,9.668c-0.023,4.645-1.525,7.717-2.906,9.646H480.37z"/>
	<g>
		<g>
			<path fill="#4C4948" d="M350.395,149.364c0,1.791-0.664,2.779-1.832,2.779c-1.029,0-1.725-0.965-1.742-2.707
				c0-1.766,0.762-2.738,1.832-2.738C349.762,146.698,350.395,147.687,350.395,149.364z M347.534,149.446
				c0,1.369,0.422,2.146,1.07,2.146c0.729,0,1.078-0.852,1.078-2.195c0-1.297-0.332-2.148-1.07-2.148
				C347.989,147.249,347.534,148.011,347.534,149.446z"/>
			<path fill="#4C4948" d="M352.596,147.452h-0.016l-0.916,0.494l-0.137-0.543l1.15-0.615h0.607v5.266h-0.689V147.452z"/>
			<path fill="#4C4948" d="M358.704,149.364c0,1.791-0.664,2.779-1.83,2.779c-1.029,0-1.727-0.965-1.742-2.707
				c0-1.766,0.762-2.738,1.83-2.738C358.073,146.698,358.704,147.687,358.704,149.364z M355.844,149.446
				c0,1.369,0.422,2.146,1.068,2.146c0.73,0,1.078-0.852,1.078-2.195c0-1.297-0.332-2.148-1.068-2.148
				C356.297,147.249,355.844,148.011,355.844,149.446z"/>
			<path fill="#4C4948" d="M359.415,151.634c0-0.301,0.203-0.512,0.486-0.512s0.479,0.211,0.479,0.512
				c0,0.291-0.186,0.51-0.486,0.51C359.61,152.144,359.415,151.925,359.415,151.634z"/>
			<path fill="#4C4948" d="M361.206,151.235c0.203,0.131,0.672,0.332,1.166,0.332c0.916,0,1.199-0.582,1.191-1.02
				c-0.008-0.738-0.672-1.055-1.361-1.055h-0.396v-0.533h0.396c0.52,0,1.176-0.268,1.176-0.893c0-0.42-0.268-0.793-0.924-0.793
				c-0.422,0-0.826,0.186-1.055,0.348l-0.186-0.518c0.275-0.203,0.811-0.406,1.377-0.406c1.037,0,1.508,0.617,1.508,1.256
				c0,0.543-0.324,1.006-0.973,1.24v0.016c0.648,0.131,1.176,0.617,1.176,1.354c0,0.842-0.656,1.58-1.922,1.58
				c-0.59,0-1.109-0.186-1.369-0.357L361.206,151.235z"/>
			<path fill="#4C4948" d="M365.604,151.552c0.152,0.016,0.332,0,0.574-0.023c0.414-0.057,0.803-0.227,1.102-0.512
				c0.35-0.314,0.6-0.777,0.697-1.4h-0.023c-0.293,0.355-0.713,0.566-1.24,0.566c-0.947,0-1.557-0.713-1.557-1.611
				c0-0.998,0.723-1.873,1.799-1.873c1.078,0,1.742,0.875,1.742,2.221c0,1.158-0.389,1.969-0.906,2.471
				c-0.406,0.396-0.965,0.641-1.531,0.705c-0.26,0.041-0.486,0.049-0.656,0.041V151.552z M365.862,148.522
				c0,0.656,0.398,1.117,1.014,1.117c0.479,0,0.852-0.234,1.037-0.551c0.041-0.064,0.064-0.146,0.064-0.26
				c0-0.898-0.332-1.588-1.078-1.588C366.292,147.241,365.862,147.776,365.862,148.522z"/>
			<path fill="#4C4948" d="M369.344,152.054v-0.438l0.561-0.543c1.344-1.279,1.951-1.961,1.959-2.754
				c0-0.535-0.258-1.029-1.045-1.029c-0.477,0-0.875,0.244-1.117,0.445l-0.227-0.502c0.363-0.309,0.883-0.535,1.49-0.535
				c1.135,0,1.613,0.779,1.613,1.531c0,0.973-0.705,1.76-1.816,2.828l-0.42,0.389v0.018h2.365v0.59H369.344z"/>
			<path fill="#4C4948" d="M376.918,146.788v0.469l-2.293,4.797h-0.736l2.285-4.658v-0.016h-2.578v-0.592H376.918z"/>
			<path fill="#4C4948" d="M377.711,151.634c0-0.301,0.203-0.512,0.486-0.512s0.479,0.211,0.479,0.512
				c0,0.291-0.188,0.51-0.486,0.51C377.905,152.144,377.711,151.925,377.711,151.634z"/>
			<path fill="#4C4948" d="M382.475,147.388h-2.01l-0.203,1.354c0.123-0.018,0.236-0.033,0.43-0.033c0.406,0,0.811,0.09,1.135,0.283
				c0.414,0.236,0.754,0.689,0.754,1.354c0,1.029-0.818,1.799-1.961,1.799c-0.576,0-1.063-0.162-1.313-0.324l0.178-0.543
				c0.219,0.129,0.648,0.291,1.127,0.291c0.672,0,1.248-0.438,1.248-1.141c-0.01-0.682-0.463-1.168-1.516-1.168
				c-0.301,0-0.535,0.033-0.729,0.057l0.34-2.527h2.52V147.388z"/>
			<path fill="#4C4948" d="M385.69,152.054v-1.434h-2.447v-0.471l2.35-3.361h0.77v3.273h0.738v0.559h-0.738v1.434H385.69z
				 M385.69,150.062v-1.758c0-0.275,0.008-0.551,0.023-0.826h-0.023c-0.162,0.307-0.291,0.533-0.438,0.777l-1.289,1.791v0.016
				H385.69z"/>
			<path fill="#4C4948" d="M390.647,147.29c-0.146-0.008-0.332,0-0.535,0.033c-1.117,0.186-1.709,1.004-1.83,1.871h0.023
				c0.252-0.332,0.689-0.607,1.271-0.607c0.932,0,1.588,0.672,1.588,1.701c0,0.965-0.656,1.855-1.75,1.855
				c-1.125,0-1.863-0.875-1.863-2.244c0-1.037,0.373-1.855,0.893-2.375c0.438-0.428,1.02-0.695,1.684-0.777
				c0.211-0.031,0.391-0.041,0.52-0.041V147.29z M390.444,150.329c0-0.754-0.43-1.207-1.086-1.207c-0.43,0-0.826,0.268-1.02,0.648
				c-0.049,0.08-0.082,0.186-0.082,0.314c0.016,0.867,0.414,1.508,1.158,1.508C390.032,151.593,390.444,151.083,390.444,150.329z"/>
			<path fill="#4C4948" d="M391.795,152.054v-0.438l0.559-0.543c1.346-1.279,1.953-1.961,1.961-2.754
				c0-0.535-0.26-1.029-1.045-1.029c-0.479,0-0.875,0.244-1.117,0.445l-0.229-0.502c0.365-0.309,0.885-0.535,1.492-0.535
				c1.135,0,1.611,0.779,1.611,1.531c0,0.973-0.705,1.76-1.814,2.828l-0.422,0.389v0.018h2.367v0.59H391.795z"/>
		</g>
	</g>
	<g>
		<g>
			<path fill="#4C4948" d="M347.122,163.317h0.713v5.752h-0.713V163.317z"/>
			<path fill="#4C4948" d="M348.936,168.341c0.211,0.137,0.582,0.283,0.939,0.283c0.518,0,0.762-0.26,0.762-0.584
				c0-0.34-0.203-0.525-0.73-0.721c-0.703-0.252-1.037-0.641-1.037-1.109c0-0.633,0.512-1.15,1.354-1.15
				c0.398,0,0.746,0.113,0.965,0.242l-0.178,0.52c-0.154-0.098-0.438-0.229-0.803-0.229c-0.422,0-0.656,0.244-0.656,0.535
				c0,0.324,0.234,0.471,0.746,0.664c0.68,0.26,1.027,0.6,1.027,1.184c0,0.689-0.533,1.176-1.465,1.176
				c-0.43,0-0.828-0.105-1.104-0.268L348.936,168.341z"/>
			<path fill="#4C4948" d="M355.788,167.077c0,1.449-1.004,2.082-1.951,2.082c-1.063,0-1.881-0.777-1.881-2.018
				c0-1.313,0.859-2.082,1.945-2.082C355.028,165.06,355.788,165.878,355.788,167.077z M352.676,167.116
				c0,0.859,0.496,1.508,1.191,1.508c0.682,0,1.191-0.641,1.191-1.523c0-0.664-0.332-1.508-1.174-1.508
				C353.042,165.593,352.676,166.372,352.676,167.116z"/>
			<path fill="#4C4948" d="M356.686,163.317h0.713v2.447h0.018c0.113-0.203,0.291-0.381,0.51-0.504
				c0.211-0.121,0.461-0.201,0.729-0.201c0.527,0,1.369,0.324,1.369,1.676v2.334h-0.713v-2.252c0-0.633-0.234-1.168-0.906-1.168
				c-0.463,0-0.826,0.324-0.957,0.715c-0.041,0.096-0.049,0.201-0.049,0.34v2.365h-0.713V163.317z"/>
			<path fill="#4C4948" d="M361.975,164.046c0.008,0.244-0.17,0.438-0.453,0.438c-0.252,0-0.43-0.193-0.43-0.438
				c0-0.252,0.186-0.445,0.445-0.445C361.805,163.601,361.975,163.794,361.975,164.046z M361.18,169.069v-3.922h0.715v3.922H361.18z
				"/>
			<path fill="#4C4948" d="M362.85,169.069v-0.438l0.559-0.543c1.346-1.279,1.953-1.961,1.961-2.754c0-0.535-0.26-1.029-1.045-1.029
				c-0.479,0-0.875,0.242-1.119,0.445l-0.227-0.502c0.365-0.309,0.883-0.535,1.49-0.535c1.135,0,1.613,0.777,1.613,1.531
				c0,0.973-0.705,1.758-1.814,2.828l-0.422,0.389v0.016h2.365v0.592H362.85z"/>
			<path fill="#4C4948" d="M369.208,169.069v-1.434h-2.445v-0.471l2.35-3.361h0.77v3.273h0.736v0.559h-0.736v1.434H369.208z
				 M369.208,167.077v-1.76c0-0.275,0.01-0.551,0.025-0.826h-0.025c-0.162,0.309-0.291,0.535-0.438,0.779l-1.287,1.789v0.018
				H369.208z"/>
			<path fill="#4C4948" d="M374.165,164.306c-0.145-0.008-0.332,0-0.533,0.031c-1.119,0.188-1.711,1.006-1.832,1.873h0.023
				c0.252-0.332,0.689-0.607,1.273-0.607c0.932,0,1.588,0.672,1.588,1.701c0,0.963-0.656,1.855-1.75,1.855
				c-1.127,0-1.863-0.875-1.863-2.244c0-1.037,0.373-1.855,0.891-2.375c0.438-0.43,1.021-0.697,1.686-0.777
				c0.211-0.033,0.389-0.041,0.518-0.041V164.306z M373.963,167.345c0-0.754-0.43-1.209-1.086-1.209
				c-0.43,0-0.826,0.268-1.021,0.648c-0.049,0.082-0.08,0.188-0.08,0.316c0.016,0.867,0.412,1.508,1.158,1.508
				C373.549,168.608,373.963,168.097,373.963,167.345z"/>
			<path fill="#4C4948" d="M375.249,167.733c0-0.666,0.398-1.135,1.047-1.41l-0.01-0.025c-0.582-0.275-0.834-0.729-0.834-1.182
				c0-0.836,0.705-1.402,1.629-1.402c1.021,0,1.531,0.641,1.531,1.297c0,0.445-0.219,0.924-0.867,1.23v0.025
				c0.656,0.26,1.063,0.721,1.063,1.361c0,0.914-0.787,1.531-1.791,1.531C375.915,169.159,375.249,168.503,375.249,167.733z
				 M378.084,167.7c0-0.641-0.445-0.947-1.158-1.15c-0.615,0.178-0.947,0.584-0.947,1.086c-0.025,0.535,0.381,1.004,1.053,1.004
				C377.672,168.64,378.084,168.243,378.084,167.7z M376.124,165.067c0,0.525,0.398,0.811,1.006,0.973
				c0.453-0.154,0.803-0.479,0.803-0.957c0-0.422-0.252-0.859-0.893-0.859C376.448,164.224,376.124,164.612,376.124,165.067z"/>
			<path fill="#4C4948" d="M383.35,169.589c-0.445,0.234-0.9,0.324-1.443,0.324c-1.328,0-2.453-0.973-2.453-2.529
				c0-1.668,1.158-3.111,2.957-3.111c1.41,0,2.357,0.988,2.357,2.342c0,1.215-0.682,1.928-1.443,1.928
				c-0.322,0-0.623-0.219-0.6-0.713h-0.031c-0.283,0.479-0.656,0.713-1.143,0.713c-0.471,0-0.875-0.381-0.875-1.02
				c0-1.006,0.793-1.92,1.92-1.92c0.348,0,0.656,0.072,0.867,0.17l-0.275,1.467c-0.121,0.615-0.025,0.898,0.242,0.906
				c0.414,0.008,0.875-0.543,0.875-1.482c0-1.174-0.703-2.018-1.959-2.018c-1.322,0-2.432,1.045-2.432,2.689
				c0,1.354,0.883,2.188,2.082,2.188c0.463,0,0.891-0.096,1.225-0.283L383.35,169.589z M382.905,166.087
				c-0.082-0.023-0.219-0.057-0.406-0.057c-0.713,0-1.287,0.674-1.287,1.459c0,0.357,0.178,0.615,0.535,0.615
				c0.469,0,0.898-0.6,0.988-1.102L382.905,166.087z"/>
			<path fill="#4C4948" d="M389.043,165.147c-0.016,0.283-0.031,0.6-0.031,1.078v2.277c0,0.898-0.18,1.449-0.561,1.791
				c-0.381,0.355-0.932,0.469-1.426,0.469c-0.469,0-0.988-0.113-1.305-0.324l0.18-0.543c0.258,0.162,0.664,0.309,1.15,0.309
				c0.729,0,1.264-0.381,1.264-1.369v-0.438h-0.018c-0.219,0.363-0.639,0.656-1.246,0.656c-0.973,0-1.67-0.826-1.67-1.912
				c0-1.33,0.867-2.082,1.766-2.082c0.682,0,1.055,0.355,1.225,0.68h0.016l0.033-0.592H389.043z M388.307,166.696
				c0-0.123-0.01-0.229-0.041-0.324c-0.131-0.414-0.479-0.754-0.996-0.754c-0.682,0-1.168,0.574-1.168,1.482
				c0,0.77,0.389,1.41,1.158,1.41c0.438,0,0.836-0.275,0.99-0.729c0.039-0.123,0.057-0.26,0.057-0.381V166.696z"/>
			<path fill="#4C4948" d="M390.143,166.21c0-0.406-0.008-0.738-0.031-1.063h0.623l0.033,0.633h0.023
				c0.219-0.373,0.584-0.721,1.232-0.721c0.535,0,0.939,0.324,1.109,0.785h0.018c0.121-0.219,0.275-0.389,0.438-0.51
				c0.234-0.18,0.494-0.275,0.865-0.275c0.52,0,1.289,0.34,1.289,1.701v2.309h-0.697v-2.221c0-0.752-0.275-1.207-0.85-1.207
				c-0.406,0-0.723,0.301-0.844,0.648c-0.031,0.098-0.057,0.227-0.057,0.357v2.422h-0.697v-2.35c0-0.623-0.275-1.078-0.818-1.078
				c-0.445,0-0.77,0.357-0.883,0.713c-0.039,0.105-0.057,0.229-0.057,0.35v2.365h-0.697V166.21z"/>
			<path fill="#4C4948" d="M399.071,169.069l-0.057-0.494h-0.025c-0.219,0.309-0.639,0.584-1.199,0.584
				c-0.793,0-1.199-0.559-1.199-1.127c0-0.947,0.844-1.467,2.359-1.459v-0.08c0-0.324-0.09-0.908-0.893-0.908
				c-0.363,0-0.744,0.113-1.021,0.293l-0.16-0.471c0.322-0.211,0.793-0.348,1.287-0.348c1.199,0,1.49,0.818,1.49,1.604v1.467
				c0,0.34,0.018,0.672,0.066,0.939H399.071z M398.965,167.067c-0.777-0.016-1.662,0.123-1.662,0.885c0,0.461,0.309,0.68,0.674,0.68
				c0.51,0,0.834-0.324,0.947-0.656c0.025-0.072,0.041-0.154,0.041-0.227V167.067z"/>
			<path fill="#4C4948" d="M401.596,164.046c0.008,0.244-0.17,0.438-0.453,0.438c-0.252,0-0.43-0.193-0.43-0.438
				c0-0.252,0.186-0.445,0.445-0.445C401.426,163.601,401.596,163.794,401.596,164.046z M400.803,169.069v-3.922h0.713v3.922
				H400.803z"/>
			<path fill="#4C4948" d="M402.698,163.317h0.713v5.752h-0.713V163.317z"/>
			<path fill="#4C4948" d="M404.358,168.647c0-0.299,0.203-0.51,0.486-0.51s0.479,0.211,0.479,0.51c0,0.293-0.188,0.512-0.486,0.512
				C404.553,169.159,404.358,168.94,404.358,168.647z"/>
			<path fill="#4C4948" d="M409,168.923c-0.188,0.098-0.6,0.229-1.127,0.229c-1.184,0-1.953-0.803-1.953-2.002
				c0-1.207,0.826-2.082,2.107-2.082c0.422,0,0.793,0.105,0.988,0.203l-0.162,0.551c-0.17-0.098-0.438-0.188-0.826-0.188
				c-0.9,0-1.387,0.664-1.387,1.482c0,0.908,0.584,1.467,1.361,1.467c0.406,0,0.674-0.105,0.875-0.193L409,168.923z"/>
			<path fill="#4C4948" d="M413.333,167.077c0,1.449-1.004,2.082-1.951,2.082c-1.063,0-1.881-0.777-1.881-2.018
				c0-1.313,0.859-2.082,1.945-2.082C412.573,165.06,413.333,165.878,413.333,167.077z M410.221,167.116
				c0,0.859,0.496,1.508,1.191,1.508c0.682,0,1.191-0.641,1.191-1.523c0-0.664-0.332-1.508-1.174-1.508
				C410.586,165.593,410.221,166.372,410.221,167.116z"/>
			<path fill="#4C4948" d="M414.231,166.21c0-0.406-0.008-0.738-0.031-1.063h0.623l0.033,0.633h0.023
				c0.219-0.373,0.584-0.721,1.232-0.721c0.533,0,0.939,0.324,1.109,0.785h0.016c0.123-0.219,0.275-0.389,0.438-0.51
				c0.236-0.18,0.494-0.275,0.867-0.275c0.52,0,1.289,0.34,1.289,1.701v2.309h-0.697v-2.221c0-0.752-0.275-1.207-0.852-1.207
				c-0.404,0-0.721,0.301-0.842,0.648c-0.033,0.098-0.057,0.227-0.057,0.357v2.422h-0.697v-2.35c0-0.623-0.275-1.078-0.818-1.078
				c-0.445,0-0.77,0.357-0.883,0.713c-0.041,0.105-0.057,0.229-0.057,0.35v2.365h-0.697V166.21z"/>
		</g>
	</g>
	<g>
		<g>
			<path fill="#4C4948" d="M347.122,197.349h0.713v2.447h0.016c0.113-0.203,0.291-0.381,0.51-0.502
				c0.211-0.123,0.463-0.203,0.73-0.203c0.525,0,1.369,0.324,1.369,1.678v2.332h-0.713v-2.252c0-0.631-0.234-1.166-0.908-1.166
				c-0.461,0-0.826,0.324-0.955,0.713c-0.041,0.098-0.049,0.203-0.049,0.34v2.365h-0.713V197.349z"/>
			<path fill="#4C4948" d="M352.442,198.054v1.127h1.021v0.541h-1.021v2.115c0,0.486,0.139,0.762,0.535,0.762
				c0.188,0,0.324-0.023,0.414-0.049l0.031,0.535c-0.137,0.057-0.355,0.098-0.631,0.098c-0.332,0-0.6-0.105-0.77-0.301
				c-0.203-0.209-0.275-0.559-0.275-1.02v-2.141h-0.607v-0.541h0.607v-0.941L352.442,198.054z"/>
			<path fill="#4C4948" d="M355.124,198.054v1.127h1.021v0.541h-1.021v2.115c0,0.486,0.137,0.762,0.535,0.762
				c0.186,0,0.324-0.023,0.412-0.049l0.033,0.535c-0.139,0.057-0.357,0.098-0.633,0.098c-0.332,0-0.6-0.105-0.77-0.301
				c-0.201-0.209-0.275-0.559-0.275-1.02v-2.141h-0.607v-0.541h0.607v-0.941L355.124,198.054z"/>
			<path fill="#4C4948" d="M356.946,200.46c0-0.502-0.018-0.908-0.033-1.279h0.641l0.031,0.672h0.018
				c0.291-0.479,0.754-0.762,1.393-0.762c0.949,0,1.662,0.803,1.662,1.992c0,1.41-0.859,2.107-1.783,2.107
				c-0.518,0-0.973-0.227-1.207-0.615h-0.016v2.131h-0.705V200.46z M357.651,201.505c0,0.105,0.016,0.203,0.031,0.291
				c0.131,0.496,0.559,0.836,1.07,0.836c0.754,0,1.191-0.617,1.191-1.516c0-0.785-0.414-1.459-1.168-1.459
				c-0.486,0-0.939,0.35-1.076,0.883c-0.025,0.09-0.049,0.195-0.049,0.293V201.505z"/>
			<path fill="#4C4948" d="M361.456,202.372c0.211,0.139,0.584,0.283,0.941,0.283c0.518,0,0.762-0.26,0.762-0.582
				c0-0.342-0.203-0.527-0.73-0.723c-0.705-0.25-1.037-0.639-1.037-1.109c0-0.633,0.512-1.15,1.354-1.15
				c0.396,0,0.746,0.113,0.965,0.242l-0.18,0.52c-0.152-0.098-0.438-0.227-0.801-0.227c-0.422,0-0.656,0.242-0.656,0.533
				c0,0.324,0.234,0.471,0.744,0.666c0.682,0.258,1.029,0.6,1.029,1.182c0,0.689-0.535,1.176-1.467,1.176
				c-0.43,0-0.826-0.105-1.102-0.268L361.456,202.372z"/>
			<path fill="#4C4948" d="M364.59,199.827c0-0.299,0.203-0.51,0.486-0.51s0.471,0.211,0.479,0.51c0,0.285-0.186,0.504-0.486,0.504
				C364.786,200.331,364.59,200.112,364.59,199.827z M364.59,202.688c0-0.301,0.203-0.512,0.486-0.512s0.471,0.211,0.479,0.512
				c0,0.283-0.186,0.502-0.486,0.502C364.786,203.19,364.59,202.972,364.59,202.688z"/>
			<path fill="#4C4948" d="M365.838,203.425l2.26-5.873h0.551l-2.268,5.873H365.838z"/>
			<path fill="#4C4948" d="M368.616,203.425l2.262-5.873h0.551l-2.27,5.873H368.616z"/>
			<path fill="#4C4948" d="M371.993,197.349h0.715v5.752h-0.715V197.349z"/>
			<path fill="#4C4948" d="M374.301,201.271c0.018,0.963,0.633,1.361,1.346,1.361c0.51,0,0.818-0.09,1.086-0.203l0.121,0.51
				c-0.252,0.113-0.68,0.244-1.305,0.244c-1.207,0-1.928-0.795-1.928-1.977c0-1.184,0.697-2.115,1.838-2.115
				c1.281,0,1.621,1.127,1.621,1.848c0,0.145-0.016,0.258-0.023,0.332H374.301z M376.393,200.759
				c0.008-0.453-0.188-1.158-0.99-1.158c-0.721,0-1.037,0.664-1.094,1.158H376.393z"/>
			<path fill="#4C4948" d="M378.36,201.271c0.016,0.963,0.631,1.361,1.344,1.361c0.512,0,0.818-0.09,1.086-0.203l0.121,0.51
				c-0.25,0.113-0.68,0.244-1.303,0.244c-1.209,0-1.93-0.795-1.93-1.977c0-1.184,0.697-2.115,1.84-2.115
				c1.279,0,1.621,1.127,1.621,1.848c0,0.145-0.018,0.258-0.025,0.332H378.36z M380.45,200.759c0.008-0.453-0.186-1.158-0.988-1.158
				c-0.721,0-1.037,0.664-1.094,1.158H380.45z"/>
			<path fill="#4C4948" d="M381.922,202.372c0.211,0.139,0.584,0.283,0.941,0.283c0.518,0,0.762-0.26,0.762-0.582
				c0-0.342-0.203-0.527-0.73-0.723c-0.705-0.25-1.037-0.639-1.037-1.109c0-0.633,0.512-1.15,1.354-1.15
				c0.396,0,0.746,0.113,0.965,0.242l-0.18,0.52c-0.152-0.098-0.438-0.227-0.801-0.227c-0.422,0-0.656,0.242-0.656,0.533
				c0,0.324,0.234,0.471,0.744,0.666c0.682,0.258,1.029,0.6,1.029,1.182c0,0.689-0.535,1.176-1.467,1.176
				c-0.43,0-0.826-0.105-1.102-0.268L381.922,202.372z"/>
			<path fill="#4C4948" d="M385.227,197.349h0.713v2.447h0.018c0.113-0.203,0.291-0.381,0.51-0.502
				c0.211-0.123,0.461-0.203,0.729-0.203c0.527,0,1.369,0.324,1.369,1.678v2.332h-0.713v-2.252c0-0.631-0.234-1.166-0.906-1.166
				c-0.463,0-0.826,0.324-0.957,0.713c-0.041,0.098-0.049,0.203-0.049,0.34v2.365h-0.713V197.349z"/>
			<path fill="#4C4948" d="M389.497,203.101v-0.438l0.559-0.543c1.344-1.279,1.953-1.961,1.961-2.754
				c0-0.535-0.26-1.029-1.045-1.029c-0.479,0-0.875,0.244-1.119,0.445l-0.227-0.502c0.365-0.309,0.883-0.535,1.49-0.535
				c1.135,0,1.613,0.779,1.613,1.531c0,0.973-0.705,1.76-1.814,2.828l-0.422,0.389v0.018h2.365v0.59H389.497z"/>
			<path fill="#4C4948" d="M395.854,203.101v-1.434h-2.447v-0.471l2.35-3.361h0.771v3.273h0.736v0.559h-0.736v1.434H395.854z
				 M395.854,201.108v-1.758c0-0.275,0.008-0.551,0.025-0.826h-0.025c-0.162,0.307-0.291,0.533-0.438,0.777l-1.287,1.791v0.016
				H395.854z"/>
			<path fill="#4C4948" d="M400.811,198.337c-0.146-0.008-0.332,0-0.535,0.033c-1.117,0.186-1.709,1.004-1.83,1.871h0.023
				c0.252-0.332,0.689-0.607,1.273-0.607c0.932,0,1.588,0.672,1.588,1.701c0,0.965-0.656,1.855-1.75,1.855
				c-1.127,0-1.865-0.875-1.865-2.244c0-1.037,0.373-1.855,0.893-2.375c0.438-0.428,1.02-0.695,1.686-0.777
				c0.209-0.031,0.389-0.041,0.518-0.041V198.337z M400.608,201.376c0-0.754-0.428-1.207-1.084-1.207
				c-0.43,0-0.828,0.268-1.021,0.648c-0.049,0.08-0.082,0.186-0.082,0.314c0.018,0.867,0.414,1.508,1.16,1.508
				C400.196,202.64,400.608,202.13,400.608,201.376z"/>
			<path fill="#4C4948" d="M401.895,201.765c0-0.664,0.398-1.135,1.047-1.41l-0.01-0.023c-0.582-0.275-0.834-0.73-0.834-1.184
				c0-0.834,0.705-1.402,1.629-1.402c1.021,0,1.531,0.641,1.531,1.297c0,0.445-0.219,0.924-0.867,1.232v0.023
				c0.656,0.26,1.063,0.721,1.063,1.361c0,0.916-0.787,1.531-1.791,1.531C402.561,203.19,401.895,202.534,401.895,201.765z
				 M404.731,201.731c0-0.639-0.445-0.947-1.158-1.15c-0.615,0.178-0.947,0.584-0.947,1.086c-0.025,0.535,0.381,1.006,1.053,1.006
				C404.319,202.673,404.731,202.274,404.731,201.731z M402.77,199.099c0,0.527,0.398,0.811,1.006,0.973
				c0.453-0.154,0.803-0.479,0.803-0.957c0-0.42-0.252-0.857-0.893-0.857C403.094,198.257,402.77,198.646,402.77,199.099z"/>
			<path fill="#4C4948" d="M406.172,202.681c0-0.301,0.203-0.512,0.486-0.512s0.479,0.211,0.479,0.512
				c0,0.291-0.188,0.51-0.486,0.51C406.366,203.19,406.172,202.972,406.172,202.681z"/>
			<path fill="#4C4948" d="M411.397,199.181c-0.016,0.283-0.031,0.6-0.031,1.076v2.277c0,0.898-0.18,1.451-0.561,1.791
				c-0.381,0.355-0.932,0.469-1.426,0.469c-0.469,0-0.988-0.113-1.305-0.324l0.18-0.541c0.258,0.16,0.664,0.307,1.15,0.307
				c0.729,0,1.264-0.381,1.264-1.369v-0.438h-0.018c-0.219,0.365-0.639,0.656-1.246,0.656c-0.973,0-1.67-0.826-1.67-1.912
				c0-1.328,0.867-2.082,1.766-2.082c0.682,0,1.055,0.355,1.225,0.68h0.016l0.033-0.59H411.397z M410.661,200.728
				c0-0.121-0.01-0.227-0.041-0.324c-0.131-0.414-0.479-0.754-0.996-0.754c-0.682,0-1.168,0.576-1.168,1.482
				c0,0.77,0.389,1.41,1.158,1.41c0.438,0,0.836-0.275,0.99-0.729c0.039-0.121,0.057-0.26,0.057-0.381V200.728z"/>
			<path fill="#4C4948" d="M413.292,198.077c0.008,0.244-0.17,0.438-0.453,0.438c-0.252,0-0.43-0.193-0.43-0.438
				c0-0.25,0.186-0.445,0.445-0.445C413.122,197.632,413.292,197.827,413.292,198.077z M412.497,203.101v-3.92h0.715v3.92H412.497z"
				/>
			<path fill="#4C4948" d="M415.25,198.054v1.127h1.021v0.541h-1.021v2.115c0,0.486,0.139,0.762,0.535,0.762
				c0.188,0,0.324-0.023,0.414-0.049l0.031,0.535c-0.137,0.057-0.355,0.098-0.631,0.098c-0.332,0-0.6-0.105-0.77-0.301
				c-0.203-0.209-0.275-0.559-0.275-1.02v-2.141h-0.607v-0.541h0.607v-0.941L415.25,198.054z"/>
			<path fill="#4C4948" d="M417.073,197.349h0.715v2.447h0.016c0.113-0.203,0.291-0.381,0.51-0.502
				c0.211-0.123,0.463-0.203,0.73-0.203c0.525,0,1.369,0.324,1.369,1.678v2.332H419.7v-2.252c0-0.631-0.236-1.166-0.908-1.166
				c-0.463,0-0.826,0.324-0.957,0.713c-0.039,0.098-0.047,0.203-0.047,0.34v2.365h-0.715V197.349z"/>
			<path fill="#4C4948" d="M424.85,202.032c0,0.404,0.008,0.762,0.031,1.068h-0.631l-0.041-0.639h-0.016
				c-0.188,0.314-0.6,0.729-1.297,0.729c-0.615,0-1.354-0.34-1.354-1.717v-2.293h0.713v2.17c0,0.746,0.227,1.248,0.875,1.248
				c0.479,0,0.811-0.332,0.941-0.648c0.039-0.105,0.064-0.234,0.064-0.363v-2.406h0.713V202.032z"/>
			<path fill="#4C4948" d="M425.999,203.101c0.016-0.268,0.033-0.664,0.033-1.012v-4.74h0.705v2.463h0.016
				c0.252-0.438,0.705-0.721,1.336-0.721c0.973,0,1.662,0.811,1.654,2.002c0,1.4-0.883,2.098-1.76,2.098
				c-0.566,0-1.02-0.219-1.313-0.738h-0.023l-0.033,0.648H425.999z M426.737,201.53c0,0.088,0.016,0.178,0.031,0.258
				c0.139,0.494,0.551,0.836,1.07,0.836c0.744,0,1.191-0.609,1.191-1.508c0-0.785-0.406-1.459-1.168-1.459
				c-0.486,0-0.939,0.332-1.086,0.875c-0.016,0.082-0.039,0.18-0.039,0.293V201.53z"/>
			<path fill="#4C4948" d="M430.276,202.681c0-0.301,0.201-0.512,0.486-0.512c0.283,0,0.477,0.211,0.477,0.512
				c0,0.291-0.186,0.51-0.486,0.51C430.469,203.19,430.276,202.972,430.276,202.681z"/>
			<path fill="#4C4948" d="M432.917,198.077c0.008,0.244-0.17,0.438-0.455,0.438c-0.25,0-0.428-0.193-0.428-0.438
				c0-0.25,0.186-0.445,0.445-0.445C432.747,197.632,432.917,197.827,432.917,198.077z M432.122,203.101v-3.92h0.713v3.92H432.122z"
				/>
			<path fill="#4C4948" d="M437.565,201.108c0,1.449-1.004,2.082-1.951,2.082c-1.063,0-1.881-0.777-1.881-2.018
				c0-1.313,0.859-2.082,1.945-2.082C436.805,199.091,437.565,199.909,437.565,201.108z M434.454,201.149
				c0,0.857,0.496,1.506,1.191,1.506c0.682,0,1.191-0.641,1.191-1.523c0-0.664-0.332-1.506-1.174-1.506
				C434.819,199.626,434.454,200.403,434.454,201.149z"/>
		</g>
	</g>
	<g>
		<g>
			<path fill="#4C4948" d="M349.778,184.733h-2.811v-0.656h6.414v0.656h-2.77v1.871h-0.834V184.733z M352.645,182.87l-0.381,0.551
				c-0.195-0.043-0.398-0.115-0.611-0.215s-0.418-0.217-0.611-0.352c-0.184-0.125-0.35-0.26-0.498-0.406
				c-0.148-0.145-0.264-0.299-0.346-0.461c-0.096,0.162-0.219,0.316-0.363,0.461c-0.146,0.146-0.309,0.275-0.486,0.389
				c-0.205,0.141-0.418,0.262-0.641,0.361c-0.221,0.1-0.432,0.174-0.631,0.223l-0.414-0.559c0.324-0.092,0.621-0.209,0.893-0.35
				c0.27-0.141,0.496-0.314,0.68-0.525c0.156-0.178,0.277-0.379,0.365-0.604c0.086-0.225,0.129-0.482,0.129-0.773v-0.268h0.883
				v0.268c0,0.303,0.049,0.57,0.146,0.805c0.096,0.236,0.23,0.441,0.404,0.621c0.178,0.193,0.395,0.359,0.648,0.494
				S352.342,182.778,352.645,182.87z"/>
			<path fill="#4C4948" d="M356.014,184.206l-1.848,0.008v-0.623h1.346c0.27,0,0.564-0.006,0.887-0.016
				c0.32-0.012,0.635-0.025,0.943-0.041c0.313-0.016,0.609-0.035,0.887-0.057s0.514-0.047,0.709-0.072v0.607
				c-0.227,0.031-0.533,0.064-0.92,0.096c-0.385,0.033-0.787,0.057-1.203,0.074v1.02h-0.801V184.206z M356.436,180.253
				c0.23,0,0.451,0.041,0.66,0.123c0.207,0.08,0.389,0.191,0.545,0.332c0.152,0.141,0.273,0.305,0.365,0.494
				c0.092,0.188,0.139,0.391,0.139,0.607c0,0.215-0.047,0.418-0.139,0.607c-0.092,0.188-0.213,0.354-0.365,0.494
				c-0.156,0.139-0.338,0.25-0.545,0.332c-0.209,0.08-0.43,0.121-0.66,0.121c-0.238,0-0.461-0.041-0.67-0.121
				c-0.207-0.082-0.387-0.193-0.537-0.332c-0.158-0.141-0.279-0.307-0.365-0.494c-0.086-0.189-0.129-0.393-0.129-0.607
				c0-0.217,0.043-0.42,0.129-0.607c0.086-0.189,0.207-0.354,0.365-0.494c0.15-0.141,0.33-0.252,0.537-0.332
				C355.975,180.294,356.198,180.253,356.436,180.253z M356.436,182.724c0.248,0,0.465-0.088,0.65-0.268
				c0.188-0.178,0.279-0.396,0.279-0.656c0-0.252-0.092-0.471-0.279-0.65c-0.186-0.182-0.402-0.271-0.65-0.271
				c-0.25,0-0.467,0.09-0.652,0.271c-0.188,0.18-0.279,0.398-0.279,0.65c0,0.26,0.092,0.479,0.279,0.656
				C355.969,182.636,356.186,182.724,356.436,182.724z M356.022,185.583h0.785v1.182h3.313v0.674h-4.098V185.583z M359.293,185.089
				h-1.521v-0.615h1.521v-4.229h0.779v5.492h-0.779V185.089z"/>
			<path fill="#4C4948" d="M363.417,182.206c0-0.244,0.047-0.473,0.139-0.689c0.092-0.215,0.219-0.402,0.379-0.559
				c0.158-0.162,0.344-0.289,0.561-0.385c0.215-0.094,0.445-0.141,0.688-0.141c0.244,0,0.471,0.047,0.686,0.141
				c0.213,0.096,0.4,0.223,0.563,0.385c0.156,0.156,0.281,0.344,0.377,0.559c0.094,0.217,0.141,0.445,0.141,0.689
				c0,0.248-0.047,0.48-0.141,0.695c-0.096,0.217-0.221,0.402-0.377,0.561c-0.162,0.16-0.35,0.287-0.563,0.379
				c-0.215,0.092-0.441,0.139-0.686,0.139c-0.242,0-0.473-0.047-0.688-0.139c-0.217-0.092-0.402-0.219-0.561-0.379
				c-0.16-0.158-0.287-0.344-0.379-0.561C363.463,182.687,363.417,182.454,363.417,182.206z M366.163,182.206
				c0-0.297-0.096-0.551-0.287-0.758s-0.424-0.313-0.693-0.313c-0.275,0-0.508,0.105-0.697,0.313
				c-0.188,0.207-0.283,0.461-0.283,0.758c0,0.303,0.096,0.557,0.283,0.762c0.189,0.205,0.422,0.307,0.697,0.307
				c0.27,0,0.502-0.102,0.693-0.307S366.163,182.509,366.163,182.206z M368.909,186.206c0,0.227-0.047,0.439-0.139,0.637
				s-0.215,0.371-0.373,0.521c-0.156,0.146-0.338,0.262-0.545,0.346c-0.209,0.082-0.432,0.125-0.67,0.125
				c-0.236,0-0.461-0.043-0.672-0.125c-0.211-0.084-0.395-0.199-0.551-0.346c-0.156-0.15-0.279-0.324-0.367-0.521
				c-0.09-0.197-0.135-0.41-0.135-0.637s0.045-0.438,0.135-0.635c0.088-0.197,0.211-0.371,0.367-0.523
				c0.156-0.145,0.34-0.262,0.551-0.348s0.436-0.129,0.672-0.129c0.238,0,0.461,0.043,0.67,0.129
				c0.207,0.086,0.389,0.203,0.545,0.348c0.158,0.152,0.281,0.326,0.373,0.523S368.909,185.979,368.909,186.206z M367.159,187.163
				c0.264,0,0.492-0.094,0.684-0.279c0.191-0.188,0.289-0.412,0.289-0.678c0-0.264-0.092-0.49-0.275-0.68s-0.408-0.283-0.674-0.283
				c-0.27,0-0.498,0.094-0.684,0.283s-0.279,0.416-0.279,0.68c0,0.266,0.09,0.49,0.268,0.678
				C366.665,187.069,366.889,187.163,367.159,187.163z M368.293,181.112v-0.875h0.777v4.414h-0.777v-1.313h-1.168V182.7h1.168
				v-0.947h-1.143v-0.641H368.293z"/>
			<path fill="#4C4948" d="M373.395,183.396h-1.678v-2.963h4.059v0.615h-3.223v0.566h3.189v0.584h-3.182v0.574h3.354v0.623h-1.758
				v0.6h2.916v0.615h-6.586v-0.615h2.908V183.396z M373.799,184.862c0.244,0,0.471,0.039,0.686,0.117
				c0.213,0.078,0.396,0.186,0.555,0.32c0.156,0.135,0.281,0.293,0.377,0.473c0.094,0.182,0.141,0.375,0.141,0.58
				s-0.047,0.398-0.141,0.578c-0.096,0.182-0.221,0.34-0.377,0.475c-0.158,0.135-0.342,0.24-0.555,0.316
				c-0.215,0.074-0.441,0.113-0.686,0.113c-0.242,0-0.473-0.039-0.688-0.113c-0.217-0.076-0.402-0.182-0.559-0.316
				c-0.158-0.135-0.281-0.293-0.373-0.475c-0.092-0.18-0.139-0.373-0.139-0.578s0.047-0.398,0.139-0.58
				c0.092-0.18,0.215-0.338,0.373-0.473c0.156-0.135,0.342-0.242,0.559-0.32C373.327,184.901,373.557,184.862,373.799,184.862z
				 M373.776,187.228c0.27,0,0.502-0.086,0.695-0.256c0.195-0.17,0.293-0.377,0.293-0.619s-0.092-0.449-0.275-0.619
				s-0.414-0.256-0.689-0.256s-0.508,0.086-0.701,0.256c-0.191,0.17-0.287,0.377-0.287,0.619s0.092,0.449,0.275,0.619
				S373.5,187.228,373.776,187.228z"/>
			<path fill="#4C4948" d="M381.94,183.632c0.037-0.174,0.074-0.369,0.109-0.588s0.066-0.439,0.094-0.66
				c0.025-0.217,0.047-0.424,0.061-0.623c0.014-0.201,0.02-0.365,0.02-0.494h-3.215v-0.682h4.041c0,0.205-0.008,0.439-0.023,0.701
				c-0.018,0.262-0.041,0.531-0.074,0.807c-0.031,0.279-0.07,0.555-0.113,0.822c-0.043,0.266-0.088,0.506-0.137,0.717h1.547v0.656
				h-2.762v2.316h-0.834v-2.316h-2.811v-0.656H381.94z"/>
			<path fill="#4C4948" d="M387.002,182.206c0-0.244,0.045-0.473,0.137-0.689c0.092-0.215,0.219-0.402,0.381-0.559
				c0.156-0.162,0.344-0.289,0.559-0.385c0.217-0.094,0.445-0.141,0.689-0.141c0.242,0,0.471,0.047,0.684,0.141
				c0.213,0.096,0.4,0.223,0.563,0.385c0.156,0.156,0.283,0.344,0.377,0.559c0.094,0.217,0.143,0.445,0.143,0.689
				c0,0.248-0.049,0.48-0.143,0.695c-0.094,0.217-0.221,0.402-0.377,0.561c-0.162,0.16-0.35,0.287-0.563,0.379
				s-0.441,0.139-0.684,0.139c-0.244,0-0.473-0.047-0.689-0.139c-0.215-0.092-0.402-0.219-0.559-0.379
				c-0.162-0.158-0.289-0.344-0.381-0.561C387.047,182.687,387.002,182.454,387.002,182.206z M389.747,182.206
				c0-0.297-0.096-0.551-0.287-0.758s-0.422-0.313-0.691-0.313c-0.275,0-0.508,0.105-0.697,0.313s-0.283,0.461-0.283,0.758
				c0,0.303,0.094,0.557,0.283,0.762s0.422,0.307,0.697,0.307c0.27,0,0.5-0.102,0.691-0.307S389.747,182.509,389.747,182.206z
				 M392.493,186.206c0,0.227-0.045,0.439-0.137,0.637s-0.217,0.371-0.373,0.521c-0.156,0.146-0.34,0.262-0.547,0.346
				c-0.207,0.082-0.43,0.125-0.668,0.125s-0.461-0.043-0.672-0.125c-0.211-0.084-0.395-0.199-0.551-0.346
				c-0.156-0.15-0.279-0.324-0.369-0.521s-0.133-0.41-0.133-0.637s0.043-0.438,0.133-0.635s0.213-0.371,0.369-0.523
				c0.156-0.145,0.34-0.262,0.551-0.348s0.434-0.129,0.672-0.129s0.461,0.043,0.668,0.129s0.391,0.203,0.547,0.348
				c0.156,0.152,0.281,0.326,0.373,0.523S392.493,185.979,392.493,186.206z M390.743,187.163c0.266,0,0.494-0.094,0.686-0.279
				c0.191-0.188,0.287-0.412,0.287-0.678c0-0.264-0.092-0.49-0.275-0.68s-0.408-0.283-0.672-0.283c-0.27,0-0.498,0.094-0.686,0.283
				c-0.186,0.189-0.279,0.416-0.279,0.68c0,0.266,0.09,0.49,0.268,0.678C390.249,187.069,390.473,187.163,390.743,187.163z
				 M391.877,181.112v-0.875h0.777v4.414h-0.777v-1.313h-1.166V182.7h1.166v-0.947h-1.143v-0.641H391.877z"/>
			<path fill="#4C4948" d="M396.981,183.396h-1.678v-2.963h4.059v0.615h-3.225v0.566h3.191v0.584h-3.184v0.574h3.354v0.623h-1.758
				v0.6h2.916v0.615h-6.584v-0.615h2.908V183.396z M397.385,184.862c0.242,0,0.471,0.039,0.684,0.117
				c0.215,0.078,0.398,0.186,0.555,0.32c0.158,0.135,0.283,0.293,0.377,0.473c0.096,0.182,0.143,0.375,0.143,0.58
				s-0.047,0.398-0.143,0.578c-0.094,0.182-0.219,0.34-0.377,0.475c-0.156,0.135-0.34,0.24-0.555,0.316
				c-0.213,0.074-0.441,0.113-0.684,0.113s-0.473-0.039-0.689-0.113c-0.215-0.076-0.402-0.182-0.559-0.316s-0.279-0.293-0.371-0.475
				c-0.092-0.18-0.139-0.373-0.139-0.578s0.047-0.398,0.139-0.58c0.092-0.18,0.215-0.338,0.371-0.473s0.344-0.242,0.559-0.32
				C396.913,184.901,397.143,184.862,397.385,184.862z M397.362,187.228c0.27,0,0.502-0.086,0.695-0.256
				c0.195-0.17,0.291-0.377,0.291-0.619s-0.092-0.449-0.275-0.619s-0.412-0.256-0.688-0.256s-0.51,0.086-0.701,0.256
				s-0.287,0.377-0.287,0.619s0.092,0.449,0.275,0.619S397.086,187.228,397.362,187.228z"/>
			<path fill="#4C4948" d="M404.27,182.927h-1.637v-2.447h3.961v0.666h-3.191v1.141h3.264v0.641h-1.637v0.801h2.9v0.656h-6.568
				v-0.656h2.908V182.927z M404.674,184.733c0.242,0,0.471,0.041,0.684,0.125c0.215,0.084,0.398,0.195,0.555,0.336
				c0.158,0.141,0.283,0.305,0.377,0.494c0.096,0.189,0.143,0.389,0.143,0.6c0,0.215-0.047,0.416-0.143,0.604
				c-0.094,0.186-0.219,0.35-0.377,0.49c-0.156,0.139-0.34,0.25-0.555,0.332c-0.213,0.08-0.441,0.121-0.684,0.121
				s-0.473-0.041-0.689-0.121c-0.215-0.082-0.402-0.193-0.559-0.332c-0.156-0.141-0.279-0.305-0.371-0.49
				c-0.092-0.188-0.139-0.389-0.139-0.604c0-0.211,0.047-0.41,0.139-0.6s0.215-0.354,0.371-0.494s0.344-0.252,0.559-0.336
				C404.202,184.774,404.432,184.733,404.674,184.733z M404.651,187.194c0.27,0,0.502-0.088,0.695-0.264
				c0.195-0.174,0.291-0.389,0.291-0.643s-0.092-0.471-0.275-0.648s-0.412-0.268-0.688-0.268s-0.51,0.09-0.701,0.268
				s-0.287,0.395-0.287,0.648s0.092,0.469,0.275,0.643C404.145,187.106,404.375,187.194,404.651,187.194z"/>
		</g>
	</g>
	<g>
		<g>
			<path fill="#4C4948" d="M347.122,214.364h0.713v2.447h0.016c0.113-0.203,0.291-0.381,0.51-0.502
				c0.211-0.123,0.463-0.203,0.73-0.203c0.525,0,1.369,0.324,1.369,1.678v2.332h-0.713v-2.252c0-0.631-0.234-1.166-0.908-1.166
				c-0.461,0-0.826,0.324-0.955,0.713c-0.041,0.098-0.049,0.203-0.049,0.34v2.365h-0.713V214.364z"/>
			<path fill="#4C4948" d="M352.442,215.069v1.127h1.021v0.541h-1.021v2.115c0,0.486,0.139,0.762,0.535,0.762
				c0.188,0,0.324-0.023,0.414-0.049l0.031,0.535c-0.137,0.057-0.355,0.098-0.631,0.098c-0.332,0-0.6-0.105-0.77-0.301
				c-0.203-0.209-0.275-0.559-0.275-1.02v-2.141h-0.607v-0.541h0.607v-0.941L352.442,215.069z"/>
			<path fill="#4C4948" d="M355.124,215.069v1.127h1.021v0.541h-1.021v2.115c0,0.486,0.137,0.762,0.535,0.762
				c0.186,0,0.324-0.023,0.412-0.049l0.033,0.535c-0.139,0.057-0.357,0.098-0.633,0.098c-0.332,0-0.6-0.105-0.77-0.301
				c-0.201-0.209-0.275-0.559-0.275-1.02v-2.141h-0.607v-0.541h0.607v-0.941L355.124,215.069z"/>
			<path fill="#4C4948" d="M356.946,217.476c0-0.502-0.018-0.908-0.033-1.279h0.641l0.031,0.672h0.018
				c0.291-0.479,0.754-0.762,1.393-0.762c0.949,0,1.662,0.803,1.662,1.992c0,1.41-0.859,2.107-1.783,2.107
				c-0.518,0-0.973-0.227-1.207-0.615h-0.016v2.131h-0.705V217.476z M357.651,218.521c0,0.105,0.016,0.203,0.031,0.291
				c0.131,0.496,0.559,0.836,1.07,0.836c0.754,0,1.191-0.617,1.191-1.516c0-0.785-0.414-1.459-1.168-1.459
				c-0.486,0-0.939,0.35-1.076,0.883c-0.025,0.09-0.049,0.195-0.049,0.293V218.521z"/>
			<path fill="#4C4948" d="M361.456,219.388c0.211,0.139,0.584,0.283,0.941,0.283c0.518,0,0.762-0.26,0.762-0.582
				c0-0.342-0.203-0.527-0.73-0.723c-0.705-0.25-1.037-0.639-1.037-1.109c0-0.633,0.512-1.15,1.354-1.15
				c0.396,0,0.746,0.113,0.965,0.242l-0.18,0.52c-0.152-0.098-0.438-0.227-0.801-0.227c-0.422,0-0.656,0.242-0.656,0.533
				c0,0.324,0.234,0.471,0.744,0.666c0.682,0.258,1.029,0.6,1.029,1.182c0,0.689-0.535,1.176-1.467,1.176
				c-0.43,0-0.826-0.105-1.102-0.268L361.456,219.388z"/>
			<path fill="#4C4948" d="M364.59,216.843c0-0.299,0.203-0.51,0.486-0.51s0.471,0.211,0.479,0.51c0,0.285-0.186,0.504-0.486,0.504
				C364.786,217.347,364.59,217.128,364.59,216.843z M364.59,219.704c0-0.301,0.203-0.512,0.486-0.512s0.471,0.211,0.479,0.512
				c0,0.283-0.186,0.502-0.486,0.502C364.786,220.206,364.59,219.987,364.59,219.704z"/>
			<path fill="#4C4948" d="M365.838,220.44l2.26-5.873h0.551l-2.268,5.873H365.838z"/>
			<path fill="#4C4948" d="M368.616,220.44l2.262-5.873h0.551l-2.27,5.873H368.616z"/>
			<path fill="#4C4948" d="M375.372,216.196c-0.016,0.283-0.031,0.6-0.031,1.076v2.277c0,0.898-0.178,1.451-0.559,1.791
				c-0.381,0.355-0.934,0.469-1.428,0.469c-0.469,0-0.988-0.113-1.303-0.324l0.178-0.541c0.26,0.16,0.664,0.307,1.15,0.307
				c0.729,0,1.264-0.381,1.264-1.369v-0.438h-0.016c-0.219,0.365-0.641,0.656-1.248,0.656c-0.973,0-1.67-0.826-1.67-1.912
				c0-1.328,0.867-2.082,1.768-2.082c0.68,0,1.053,0.355,1.223,0.68h0.016l0.033-0.59H375.372z M374.635,217.743
				c0-0.121-0.008-0.227-0.041-0.324c-0.129-0.414-0.479-0.754-0.996-0.754c-0.682,0-1.168,0.576-1.168,1.482
				c0,0.77,0.391,1.41,1.16,1.41c0.438,0,0.834-0.275,0.988-0.729c0.041-0.121,0.057-0.26,0.057-0.381V217.743z"/>
			<path fill="#4C4948" d="M377.266,215.093c0.008,0.244-0.17,0.438-0.453,0.438c-0.252,0-0.43-0.193-0.43-0.438
				c0-0.25,0.186-0.445,0.445-0.445C377.096,214.647,377.266,214.843,377.266,215.093z M376.473,220.116v-3.92h0.713v3.92H376.473z"
				/>
			<path fill="#4C4948" d="M379.227,215.069v1.127h1.02v0.541h-1.02v2.115c0,0.486,0.137,0.762,0.533,0.762
				c0.188,0,0.324-0.023,0.414-0.049l0.033,0.535c-0.139,0.057-0.357,0.098-0.633,0.098c-0.332,0-0.6-0.105-0.77-0.301
				c-0.203-0.209-0.275-0.559-0.275-1.02v-2.141h-0.607v-0.541h0.607v-0.941L379.227,215.069z"/>
			<path fill="#4C4948" d="M381.047,214.364h0.715v2.447h0.016c0.113-0.203,0.291-0.381,0.51-0.502
				c0.211-0.123,0.463-0.203,0.73-0.203c0.525,0,1.369,0.324,1.369,1.678v2.332h-0.713v-2.252c0-0.631-0.236-1.166-0.908-1.166
				c-0.463,0-0.826,0.324-0.957,0.713c-0.039,0.098-0.047,0.203-0.047,0.34v2.365h-0.715V214.364z"/>
			<path fill="#4C4948" d="M388.825,219.048c0,0.404,0.008,0.762,0.033,1.068h-0.633l-0.041-0.639h-0.016
				c-0.186,0.314-0.6,0.729-1.297,0.729c-0.615,0-1.352-0.34-1.352-1.717v-2.293h0.713v2.17c0,0.746,0.227,1.248,0.875,1.248
				c0.477,0,0.809-0.332,0.939-0.648c0.041-0.105,0.064-0.234,0.064-0.363v-2.406h0.713V219.048z"/>
			<path fill="#4C4948" d="M389.973,220.116c0.018-0.268,0.033-0.664,0.033-1.012v-4.74h0.705v2.463h0.016
				c0.252-0.438,0.705-0.721,1.338-0.721c0.971,0,1.66,0.811,1.652,2.002c0,1.4-0.883,2.098-1.758,2.098
				c-0.568,0-1.021-0.219-1.313-0.738h-0.025l-0.031,0.648H389.973z M390.711,218.546c0,0.088,0.016,0.178,0.031,0.258
				c0.139,0.494,0.553,0.836,1.07,0.836c0.746,0,1.191-0.609,1.191-1.508c0-0.785-0.406-1.459-1.166-1.459
				c-0.486,0-0.941,0.332-1.086,0.875c-0.018,0.082-0.041,0.18-0.041,0.293V218.546z"/>
			<path fill="#4C4948" d="M394.25,219.696c0-0.301,0.203-0.512,0.486-0.512s0.479,0.211,0.479,0.512c0,0.291-0.188,0.51-0.486,0.51
				C394.444,220.206,394.25,219.987,394.25,219.696z"/>
			<path fill="#4C4948" d="M398.891,219.972c-0.186,0.096-0.6,0.227-1.125,0.227c-1.184,0-1.953-0.803-1.953-2.002
				c0-1.207,0.826-2.082,2.107-2.082c0.42,0,0.793,0.105,0.988,0.203l-0.162,0.551c-0.17-0.098-0.438-0.188-0.826-0.188
				c-0.9,0-1.387,0.666-1.387,1.484c0,0.906,0.584,1.465,1.361,1.465c0.406,0,0.672-0.104,0.875-0.193L398.891,219.972z"/>
			<path fill="#4C4948" d="M403.225,218.124c0,1.449-1.004,2.082-1.953,2.082c-1.061,0-1.879-0.777-1.879-2.018
				c0-1.313,0.859-2.082,1.945-2.082C402.463,216.106,403.225,216.925,403.225,218.124z M400.114,218.165
				c0,0.857,0.494,1.506,1.191,1.506c0.682,0,1.191-0.641,1.191-1.523c0-0.664-0.332-1.506-1.176-1.506
				C400.479,216.642,400.114,217.419,400.114,218.165z"/>
			<path fill="#4C4948" d="M404.124,217.257c0-0.404-0.008-0.738-0.033-1.061h0.625l0.031,0.631h0.025
				c0.219-0.373,0.584-0.721,1.23-0.721c0.535,0,0.941,0.324,1.111,0.785h0.016c0.121-0.219,0.275-0.389,0.438-0.51
				c0.234-0.178,0.494-0.275,0.867-0.275c0.518,0,1.289,0.34,1.289,1.701v2.309h-0.697v-2.219c0-0.754-0.275-1.207-0.852-1.207
				c-0.404,0-0.721,0.299-0.842,0.646c-0.033,0.098-0.057,0.229-0.057,0.357v2.422h-0.697v-2.35c0-0.623-0.275-1.076-0.818-1.076
				c-0.445,0-0.77,0.355-0.883,0.713c-0.041,0.105-0.057,0.227-0.057,0.348v2.365h-0.697V217.257z"/>
			<path fill="#4C4948" d="M410.278,220.44l2.262-5.873h0.551l-2.27,5.873H410.278z"/>
			<path fill="#4C4948" d="M413.657,214.364h0.713v5.752h-0.713V214.364z"/>
			<path fill="#4C4948" d="M415.963,218.286c0.018,0.963,0.633,1.361,1.346,1.361c0.51,0,0.818-0.09,1.086-0.203l0.121,0.51
				c-0.25,0.113-0.68,0.244-1.305,0.244c-1.207,0-1.928-0.795-1.928-1.977c0-1.184,0.697-2.115,1.84-2.115
				c1.279,0,1.619,1.127,1.619,1.848c0,0.145-0.016,0.258-0.023,0.332H415.963z M418.055,217.774
				c0.008-0.453-0.188-1.158-0.988-1.158c-0.723,0-1.037,0.664-1.094,1.158H418.055z"/>
			<path fill="#4C4948" d="M420.022,218.286c0.016,0.963,0.633,1.361,1.346,1.361c0.51,0,0.818-0.09,1.086-0.203l0.121,0.51
				c-0.252,0.113-0.682,0.244-1.305,0.244c-1.207,0-1.928-0.795-1.928-1.977c0-1.184,0.695-2.115,1.838-2.115
				c1.281,0,1.621,1.127,1.621,1.848c0,0.145-0.016,0.258-0.025,0.332H420.022z M422.112,217.774
				c0.008-0.453-0.186-1.158-0.988-1.158c-0.721,0-1.037,0.664-1.094,1.158H422.112z"/>
			<path fill="#4C4948" d="M423.586,219.388c0.211,0.139,0.582,0.283,0.939,0.283c0.518,0,0.762-0.26,0.762-0.582
				c0-0.342-0.203-0.527-0.73-0.723c-0.703-0.25-1.037-0.639-1.037-1.109c0-0.633,0.512-1.15,1.354-1.15
				c0.398,0,0.746,0.113,0.965,0.242l-0.178,0.52c-0.154-0.098-0.438-0.227-0.803-0.227c-0.422,0-0.656,0.242-0.656,0.533
				c0,0.324,0.234,0.471,0.746,0.666c0.68,0.258,1.027,0.6,1.027,1.182c0,0.689-0.533,1.176-1.465,1.176
				c-0.43,0-0.828-0.105-1.104-0.268L423.586,219.388z"/>
			<path fill="#4C4948" d="M426.889,214.364h0.715v2.447h0.016c0.113-0.203,0.291-0.381,0.51-0.502
				c0.211-0.123,0.463-0.203,0.73-0.203c0.525,0,1.369,0.324,1.369,1.678v2.332h-0.713v-2.252c0-0.631-0.236-1.166-0.908-1.166
				c-0.463,0-0.826,0.324-0.957,0.713c-0.039,0.098-0.047,0.203-0.047,0.34v2.365h-0.715V214.364z"/>
			<path fill="#4C4948" d="M431.159,220.116v-0.438l0.559-0.543c1.346-1.279,1.953-1.961,1.961-2.754
				c0-0.535-0.26-1.029-1.045-1.029c-0.479,0-0.875,0.244-1.119,0.445l-0.227-0.502c0.365-0.309,0.883-0.535,1.49-0.535
				c1.135,0,1.613,0.779,1.613,1.531c0,0.973-0.705,1.76-1.814,2.828l-0.422,0.389v0.018h2.365v0.59H431.159z"/>
			<path fill="#4C4948" d="M437.516,220.116v-1.434h-2.445v-0.471l2.35-3.361h0.77v3.273h0.736v0.559h-0.736v1.434H437.516z
				 M437.516,218.124v-1.758c0-0.275,0.01-0.551,0.025-0.826h-0.025c-0.162,0.307-0.291,0.533-0.438,0.777l-1.287,1.791v0.016
				H437.516z"/>
			<path fill="#4C4948" d="M442.473,215.353c-0.145-0.008-0.332,0-0.533,0.033c-1.119,0.186-1.711,1.004-1.832,1.871h0.023
				c0.252-0.332,0.689-0.607,1.273-0.607c0.932,0,1.588,0.672,1.588,1.701c0,0.965-0.656,1.855-1.75,1.855
				c-1.127,0-1.863-0.875-1.863-2.244c0-1.037,0.373-1.855,0.891-2.375c0.438-0.428,1.021-0.695,1.686-0.777
				c0.211-0.031,0.389-0.041,0.518-0.041V215.353z M442.272,218.392c0-0.754-0.43-1.207-1.086-1.207
				c-0.43,0-0.826,0.268-1.021,0.648c-0.049,0.08-0.08,0.186-0.08,0.314c0.016,0.867,0.412,1.508,1.158,1.508
				C441.858,219.655,442.272,219.146,442.272,218.392z"/>
			<path fill="#4C4948" d="M443.559,218.78c0-0.664,0.396-1.135,1.045-1.41l-0.008-0.023c-0.584-0.275-0.836-0.73-0.836-1.184
				c0-0.834,0.705-1.402,1.629-1.402c1.021,0,1.531,0.641,1.531,1.297c0,0.445-0.219,0.924-0.867,1.232v0.023
				c0.656,0.26,1.063,0.721,1.063,1.361c0,0.916-0.787,1.531-1.791,1.531C444.223,220.206,443.559,219.55,443.559,218.78z
				 M446.395,218.747c0-0.639-0.447-0.947-1.16-1.15c-0.615,0.178-0.947,0.584-0.947,1.086c-0.023,0.535,0.381,1.006,1.053,1.006
				C445.981,219.688,446.395,219.29,446.395,218.747z M444.434,216.114c0,0.527,0.396,0.811,1.004,0.973
				c0.453-0.154,0.803-0.479,0.803-0.957c0-0.42-0.252-0.857-0.893-0.857C444.758,215.272,444.434,215.661,444.434,216.114z"/>
		</g>
	</g>
	<g>
		<g>
			<path fill="#2E3131" d="M274.561,72.265c0-0.984,0.18-1.912,0.539-2.785c0.359-0.871,0.855-1.637,1.492-2.293
				s1.381-1.174,2.232-1.555c0.85-0.379,1.77-0.568,2.754-0.568c0.965,0,1.871,0.189,2.725,0.568c0.85,0.381,1.594,0.898,2.23,1.555
				s1.145,1.422,1.523,2.293c0.379,0.873,0.57,1.801,0.57,2.785c0,1.006-0.191,1.945-0.57,2.816
				c-0.379,0.873-0.887,1.637-1.523,2.293s-1.381,1.17-2.23,1.539c-0.854,0.369-1.76,0.555-2.725,0.555
				c-0.984,0-1.904-0.186-2.754-0.555c-0.852-0.369-1.596-0.883-2.232-1.539s-1.133-1.42-1.492-2.293
				C274.741,74.21,274.561,73.271,274.561,72.265z M285.61,72.265c0-1.25-0.385-2.318-1.154-3.201
				c-0.77-0.881-1.729-1.322-2.877-1.322c-1.17,0-2.135,0.441-2.893,1.322c-0.76,0.883-1.139,1.951-1.139,3.201
				c0,1.273,0.379,2.346,1.139,3.217c0.758,0.873,1.723,1.309,2.893,1.309c1.148,0,2.107-0.436,2.877-1.309
				C285.225,74.61,285.61,73.538,285.61,72.265z M292.596,87.438V63.925h2.986v23.514H292.596z"/>
			<path fill="#2E3131" d="M318.387,81.683v-5.047h2.895v5.047h10.803v2.555h-24.346v-2.555H318.387z M329.375,75.157l-1.354,2.156
				c-0.781-0.205-1.592-0.52-2.432-0.939c-0.842-0.42-1.631-0.908-2.371-1.463c-0.738-0.533-1.4-1.111-1.984-1.738
				c-0.584-0.625-1-1.266-1.246-1.924c-0.287,0.637-0.713,1.262-1.277,1.877c-0.564,0.617-1.205,1.191-1.924,1.725
				c-0.779,0.574-1.611,1.076-2.492,1.508c-0.883,0.432-1.725,0.75-2.525,0.955l-1.354-2.156c1.189-0.348,2.287-0.809,3.293-1.385
				c1.006-0.574,1.857-1.262,2.555-2.061c0.615-0.74,1.104-1.58,1.463-2.525c0.357-0.943,0.537-2.01,0.537-3.199v-1.602h3.264v1.602
				c0,1.211,0.189,2.297,0.568,3.262c0.381,0.965,0.908,1.816,1.586,2.555c0.697,0.801,1.533,1.473,2.508,2.016
				S328.227,74.81,329.375,75.157z"/>
			<path fill="#2E3131" d="M359.721,79.743v2.371c-0.615,0.104-1.395,0.195-2.338,0.277c-0.945,0.082-1.961,0.152-3.047,0.215
				c-1.109,0.082-2.232,0.145-3.371,0.184c-1.139,0.043-2.201,0.063-3.186,0.063l-5.264,0.031v-2.432h4.188
				c1.025,0,2.148-0.02,3.369-0.063c1.221-0.041,2.416-0.092,3.586-0.152c1.189-0.063,2.313-0.135,3.369-0.217
				S358.983,79.847,359.721,79.743z M352.211,66.079h5.572v2.461h-3.232c0.615,0.535,1.107,1.166,1.477,1.895
				s0.555,1.512,0.555,2.354c0,0.82-0.16,1.59-0.477,2.309c-0.318,0.719-0.744,1.344-1.277,1.877
				c-0.535,0.535-1.17,0.955-1.908,1.262c-0.738,0.309-1.52,0.463-2.34,0.463c-0.842,0-1.627-0.154-2.354-0.463
				c-0.729-0.307-1.359-0.727-1.895-1.262c-0.553-0.533-0.979-1.158-1.275-1.877c-0.299-0.719-0.447-1.488-0.447-2.309
				c0-0.842,0.18-1.625,0.539-2.354c0.357-0.729,0.836-1.359,1.432-1.895h-3.387v-2.461h5.939v-3.016h3.078V66.079z M353.936,72.696
				c0-0.924-0.344-1.729-1.031-2.416s-1.463-1.031-2.324-1.031c-0.883,0-1.662,0.344-2.34,1.031
				c-0.676,0.688-1.016,1.492-1.016,2.416s0.34,1.723,1.016,2.4c0.678,0.678,1.457,1.016,2.34,1.016
				c0.861,0,1.637-0.338,2.324-1.016S353.936,73.62,353.936,72.696z M361.045,87.438V63.925h2.984v23.514H361.045z"/>
		</g>
	</g>
</g>
</svg>
