<?xml version="1.0" encoding="utf-8"?>
<!-- Generator: Adobe Illustrator 16.0.0, SVG Export Plug-In . SVG Version: 6.00 Build 0)  -->
<!DOCTYPE svg PUBLIC "-//W3C//DTD SVG 1.1//EN" "http://www.w3.org/Graphics/SVG/1.1/DTD/svg11.dtd">
<svg version="1.1" id="Layer_1" xmlns="http://www.w3.org/2000/svg" xmlns:xlink="http://www.w3.org/1999/xlink" x="0px" y="0px"
	 width="595.072px" height="279.904px" viewBox="0 0 595.072 279.904" enable-background="new 0 0 595.072 279.904"
	 xml:space="preserve">
<g>
	<g>
		<path fill="#303232" d="M73.07,137.074c0.332-0.069,0.855-0.122,1.389-0.122c0.761,0,1.25,0.132,1.616,0.428
			c0.306,0.227,0.49,0.577,0.49,1.04c0,0.568-0.376,1.065-0.996,1.294v0.017c0.559,0.14,1.214,0.604,1.214,1.477
			c0,0.507-0.2,0.891-0.498,1.18c-0.41,0.376-1.075,0.55-2.035,0.55c-0.524,0-0.927-0.034-1.18-0.07V137.074z M73.831,139.485h0.689
			c0.804,0,1.275-0.419,1.275-0.987c0-0.689-0.524-0.96-1.293-0.96c-0.35,0-0.55,0.025-0.672,0.052V139.485z M73.831,142.308
			c0.147,0.026,0.366,0.036,0.637,0.036c0.787,0,1.512-0.289,1.512-1.146c0-0.804-0.69-1.136-1.521-1.136h-0.628V142.308z"/>
		<path fill="#303232" d="M82.837,139.88c0,2.026-1.232,3.101-2.735,3.101c-1.555,0-2.646-1.206-2.646-2.988
			c0-1.869,1.162-3.093,2.734-3.093C81.797,136.899,82.837,138.132,82.837,139.88z M78.267,139.975c0,1.258,0.683,2.386,1.879,2.386
			c1.206,0,1.888-1.109,1.888-2.446c0-1.171-0.612-2.395-1.879-2.395C78.896,137.52,78.267,138.683,78.267,139.975z"/>
		<path fill="#303232" d="M88.854,139.88c0,2.026-1.231,3.101-2.734,3.101c-1.555,0-2.647-1.206-2.647-2.988
			c0-1.869,1.162-3.093,2.734-3.093C87.815,136.899,88.854,138.132,88.854,139.88z M84.285,139.975c0,1.258,0.682,2.386,1.879,2.386
			c1.205,0,1.887-1.109,1.887-2.446c0-1.171-0.611-2.395-1.878-2.395C84.915,137.52,84.285,138.683,84.285,139.975z"/>
		<path fill="#303232" d="M89.841,136.996h0.76v2.84h0.026c0.157-0.228,0.314-0.438,0.462-0.63l1.801-2.21h0.943l-2.131,2.498
			l2.297,3.391h-0.9l-1.939-2.893l-0.559,0.647v2.245h-0.76V136.996z"/>
	</g>
	<path fill="none" d="M77.015,109.7c-1.756-0.16-4.102,0.343-4.121,0.348c-0.177,0.036-0.207-0.007-0.349-0.121
		s-0.067-0.284-0.067-0.467V96.382c-0.802,0.031-0.802,0.06-0.802,0.087v15.15c0.802-0.389,2.369-0.917,3.653-0.917
		c2.863,0,4.866,0.646,6.206,1.317C80.721,110.989,79.312,109.91,77.015,109.7z"/>
	<path fill="none" d="M93.916,109.927c-0.142,0.114-0.322,0.157-0.499,0.121c-0.02-0.005-2.362-0.508-4.115-0.348
		c-2.346,0.215-3.742,1.352-4.552,2.41c1.373-0.701,3.547-1.408,6.382-1.408c1.282,0,2.998,0.528,3.8,0.917v-15.15
		c0-0.027-0.802-0.056-0.802-0.087v13.078C94.13,109.643,94.058,109.813,93.916,109.927z"/>
	<path fill="#84BAE5" d="M82.876,114.43c0.003,0.002,0.005,0.007,0.01,0.009c0.012,0.006,0.022,0.016,0.034,0.02
		c0.005,0.002,0.008,0.005,0.012,0.007c0.021,0.009,0.045,0.008,0.067,0.014c-0.027-0.008-0.057-0.014-0.083-0.026
		C82.902,114.446,82.889,114.438,82.876,114.43z"/>
	<path fill="#84BAE5" d="M83.296,114.485c0.023-0.005,0.047-0.004,0.07-0.013c0.005-0.002,0.008-0.005,0.013-0.007
		c0.015-0.006,0.028-0.017,0.042-0.023c0.002-0.001,0.005-0.004,0.008-0.006c-0.009,0.006-0.018,0.013-0.028,0.016
		C83.366,114.468,83.331,114.476,83.296,114.485z"/>
	<path fill="#84BAE5" d="M82.748,114.339c0.028,0.027,0.058,0.051,0.09,0.071c0.013,0.008,0.025,0.012,0.038,0.02
		c-0.052-0.027-0.098-0.061-0.138-0.102C82.741,114.33,82.744,114.336,82.748,114.339z"/>
	<path fill="#84BAE5" d="M83.031,114.489c0.02,0.004,0.036,0.013,0.056,0.017c0.023,0.003,0.047,0.003,0.07,0.003l0,0h0.001
		c-0.054,0-0.106-0.016-0.159-0.03C83.01,114.481,83.02,114.486,83.031,114.489z"/>
	<path fill="#84BAE5" d="M83.159,114.509L83.159,114.509c0.023,0,0.047,0,0.07-0.003c0.02-0.004,0.036-0.013,0.056-0.017
		c0.004-0.001,0.007-0.003,0.011-0.004C83.249,114.496,83.204,114.509,83.159,114.509L83.159,114.509z"/>
	<path fill="#84BAE5" d="M83.479,114.408c0.02-0.013,0.036-0.026,0.054-0.041c-0.032,0.025-0.066,0.051-0.104,0.069
		C83.445,114.429,83.463,114.421,83.479,114.408z"/>
	<path fill="#303232" d="M95.335,95.367c-0.042-0.008-0.403-0.104-1.205-0.197v-0.951c0-0.288-0.196-0.537-0.481-0.59
		c-0.093-0.018-2.539-0.466-4.438-0.367c-3.448,0.184-5.239,2.44-6.055,3.934c-0.817-1.493-2.608-3.75-6.056-3.932
		c-1.908-0.104-4.197,0.348-4.289,0.365c-0.285,0.053-0.334,0.302-0.334,0.59v0.953c-0.802,0.092-1.563,0.188-1.605,0.195
		c-0.285,0.054-0.801,0.303-0.801,0.592v16.595c0,0.208,0.264,0.402,0.442,0.513c0.178,0.107,0.477,0.115,0.664,0.021
		c0.022-0.013,2.368-1.184,4.065-1.184c5.245,0,7.405,2.358,7.441,2.397c0.006,0.008,0.027,0.011,0.035,0.021
		c0.003,0.001,0.011,0.003,0.014,0.006c0.041,0.041,0.088,0.074,0.14,0.102c0.014,0.009,0.028,0.017,0.042,0.022
		c0.026,0.013,0.056,0.019,0.084,0.026c0.052,0.015,0.105,0.03,0.158,0.03c0.046,0,0.092-0.013,0.139-0.023
		c0.035-0.01,0.07-0.018,0.104-0.033c0.011-0.003,0.02-0.01,0.028-0.016c0.037-0.019,0.071-0.044,0.104-0.069
		c0.009-0.008,0.021-0.012,0.029-0.019c0.008-0.008,0.019-0.011,0.026-0.021c0.023-0.023,2.436-2.424,7.446-2.424
		c1.691,0,4.007,1.171,4.03,1.184c0.186,0.094,0.304,0.086,0.483-0.021c0.179-0.11,0.186-0.305,0.186-0.513V95.959
		C95.733,95.67,95.62,95.421,95.335,95.367z M73.279,96.251v-1.206v-0.316c0.802-0.122,2.423-0.337,3.714-0.265
		c2.24,0.117,3.833,1.262,4.666,2.349c0.66,0.863,0.441,1.693,1.243,1.949v0.189v12.487c-1.604-1.287-2.809-2.68-5.605-2.935
		c-0.275-0.025-0.694-0.036-0.987-0.036c-1.08,0-2.229,0.15-3.03,0.268V96.251z M75.329,110.702c-1.284,0-2.852,0.528-3.653,0.917
		v-15.15c0-0.027,0-0.056,0.802-0.087v13.078c0,0.183-0.074,0.353,0.067,0.467s0.25,0.157,0.427,0.121
		c0.02-0.005,2.326-0.508,4.082-0.348c2.297,0.21,3.687,1.289,4.501,2.319C80.215,111.348,78.192,110.702,75.329,110.702z
		 M83.704,111.44V98.951v-0.189c0-0.257,0.417-1.086,1.077-1.947c0.832-1.089,2.435-2.233,4.676-2.351
		c1.283-0.071,3.068,0.143,3.87,0.265v0.316v1.206v12.484c-1.604-0.148-2.681-0.354-3.971-0.231
		C86.559,108.759,84.506,110.151,83.704,111.44z M94.932,111.619c-0.802-0.389-2.516-0.917-3.8-0.917
		c-2.834,0-4.959,0.707-6.332,1.408c0.81-1.059,2.184-2.195,4.528-2.41c1.753-0.16,4.086,0.343,4.105,0.348
		c0.178,0.036,0.348-0.007,0.488-0.121c0.142-0.114,0.208-0.284,0.208-0.467V96.382c0,0.031,0.802,0.06,0.802,0.087V111.619z"/>
	
		<circle fill="none" stroke="#303232" stroke-width="1.6199" stroke-linecap="round" stroke-miterlimit="10" cx="83.158" cy="103.88" r="19.143"/>
	<g>
		<path fill="#303232" d="M150.172,142.622c-0.342,0.122-1.014,0.323-1.81,0.323c-0.891,0-1.625-0.227-2.201-0.777
			c-0.507-0.488-0.821-1.275-0.821-2.193c0.009-1.755,1.215-3.04,3.188-3.04c0.682,0,1.215,0.149,1.468,0.271l-0.183,0.62
			c-0.315-0.141-0.708-0.254-1.302-0.254c-1.434,0-2.368,0.892-2.368,2.368c0,1.493,0.9,2.376,2.271,2.376
			c0.498,0,0.839-0.07,1.015-0.157v-1.757h-1.198v-0.61h1.94V142.622z"/>
		<path fill="#303232" d="M152.284,141.032l-0.612,1.853h-0.786l2.001-5.889h0.917l2.01,5.889h-0.813l-0.629-1.853H152.284z
			 M154.215,140.438l-0.577-1.695c-0.13-0.385-0.218-0.733-0.306-1.075h-0.017c-0.088,0.35-0.184,0.708-0.298,1.066l-0.576,1.704
			H154.215z"/>
		<path fill="#303232" d="M161.605,140.298c-0.044-0.821-0.097-1.808-0.088-2.542h-0.026c-0.201,0.69-0.445,1.424-0.742,2.236
			l-1.04,2.857h-0.577l-0.952-2.805c-0.278-0.829-0.515-1.59-0.681-2.289h-0.018c-0.018,0.734-0.062,1.721-0.113,2.604l-0.158,2.525
			h-0.725l0.41-5.889h0.97l1.006,2.848c0.244,0.725,0.444,1.372,0.593,1.983h0.027c0.148-0.595,0.357-1.24,0.62-1.983l1.048-2.848
			h0.97l0.368,5.889h-0.743L161.605,140.298z"/>
		<path fill="#303232" d="M166.715,140.124h-2.289v2.122h2.55v0.639h-3.311v-5.889h3.181v0.638h-2.42v1.86h2.289V140.124z"/>
	</g>
	
		<circle fill="none" stroke="#303232" stroke-width="1.6199" stroke-linecap="round" stroke-miterlimit="10" cx="156.162" cy="103.88" r="19.143"/>
	<path fill="#303232" d="M164.687,98.119h-7.559c-0.044-0.802,0.08-2.729,1.14-3.551c0.675-0.526,1.73-0.496,3.134-0.016
		c1.559,0.536,2.805,0.462,3.701-0.267c1.735-1.409,1.34-4.548,1.106-6.433c-0.04-0.32-0.091-0.714-0.087-0.822
		c0.035-0.537-0.372-0.997-0.909-1.032c-0.535-0.031-1.001,0.373-1.035,0.91c-0.018,0.276,0.027,0.644,0.098,1.198
		c0.147,1.186,0.495,3.965-0.401,4.692c-0.424,0.344-1.234,0.17-1.841-0.039c-2.067-0.708-3.739-0.685-4.968,0.272
		c-1.845,1.439-1.916,4.284-1.889,5.086h-7.539c-3.969,0-7.186,3.319-7.186,7.288s3.217,7.261,7.186,7.261
		c2.577,0,4.832-1.718,6.099-3.322h4.852c1.268,1.604,3.521,3.374,6.099,3.374c3.969,0,7.186-3.331,7.186-7.3
		C171.872,101.45,168.655,98.119,164.687,98.119z M151.869,106.139h-3.208v4.01h-1.604v-4.01h-4.01v-1.604h4.01v-3.207h1.604v3.207
		h3.208V106.139z M159.888,100.904c0,0.233-0.188,0.423-0.422,0.423h-6.373c-0.233,0-0.422-0.189-0.422-0.423v-0.76
		c0-0.233,0.188-0.422,0.422-0.422h6.373c0.233,0,0.422,0.188,0.422,0.422V100.904z M161.216,106.997
		c-0.82,0-1.486-0.666-1.486-1.488c0-0.82,0.666-1.488,1.486-1.488c0.822,0,1.486,0.668,1.486,1.488
		C162.702,106.331,162.038,106.997,161.216,106.997z M164.686,110.466c-0.821,0-1.486-0.665-1.486-1.487
		c0-0.821,0.665-1.487,1.486-1.487c0.822,0,1.489,0.666,1.489,1.487C166.175,109.801,165.508,110.466,164.686,110.466z
		 M164.687,103.525c-0.822,0-1.487-0.664-1.487-1.486c0-0.82,0.665-1.487,1.487-1.487c0.821,0,1.488,0.667,1.488,1.487
		C166.175,102.861,165.508,103.525,164.687,103.525z M168.156,106.997c-0.82,0-1.486-0.666-1.486-1.486
		c0-0.822,0.666-1.49,1.486-1.49c0.822,0,1.488,0.668,1.488,1.49C169.645,106.331,168.979,106.997,168.156,106.997z"/>
	<g>
		<path fill="#303232" d="M211.961,137.074c0.332-0.069,0.855-0.122,1.389-0.122c0.76,0,1.249,0.132,1.616,0.428
			c0.306,0.227,0.489,0.577,0.489,1.04c0,0.568-0.376,1.065-0.996,1.294v0.017c0.559,0.14,1.215,0.604,1.215,1.477
			c0,0.507-0.202,0.891-0.498,1.18c-0.411,0.376-1.075,0.55-2.036,0.55c-0.524,0-0.926-0.034-1.179-0.07V137.074z M212.721,139.485
			h0.69c0.804,0,1.274-0.419,1.274-0.987c0-0.689-0.523-0.96-1.292-0.96c-0.35,0-0.551,0.025-0.673,0.052V139.485z M212.721,142.308
			c0.148,0.026,0.367,0.036,0.638,0.036c0.786,0,1.512-0.289,1.512-1.146c0-0.804-0.69-1.136-1.521-1.136h-0.629V142.308z"/>
		<path fill="#303232" d="M221.728,139.88c0,2.026-1.232,3.101-2.735,3.101c-1.555,0-2.647-1.206-2.647-2.988
			c0-1.869,1.162-3.093,2.734-3.093C220.688,136.899,221.728,138.132,221.728,139.88z M217.157,139.975
			c0,1.258,0.682,2.386,1.879,2.386c1.205,0,1.887-1.109,1.887-2.446c0-1.171-0.611-2.395-1.878-2.395
			C217.787,137.52,217.157,138.683,217.157,139.975z"/>
		<path fill="#303232" d="M223.674,142.885l-1.493-5.889h0.804l0.698,2.979c0.176,0.734,0.332,1.468,0.437,2.037h0.018
			c0.097-0.586,0.28-1.285,0.48-2.045l0.786-2.971h0.795l0.717,2.987c0.166,0.699,0.324,1.398,0.41,2.019h0.018
			c0.123-0.646,0.289-1.302,0.473-2.035l0.777-2.971h0.777l-1.669,5.889h-0.794l-0.744-3.067c-0.183-0.751-0.305-1.327-0.383-1.922
			h-0.018c-0.105,0.585-0.236,1.162-0.454,1.922l-0.84,3.067H223.674z"/>
		<path fill="#303232" d="M230.103,136.996h0.76v5.25h2.516v0.639h-3.275V136.996z"/>
		<path fill="#303232" d="M234.984,136.996v5.889h-0.76v-5.889H234.984z"/>
		<path fill="#303232" d="M236.313,142.885v-5.889h0.83l1.887,2.979c0.438,0.691,0.778,1.312,1.058,1.914l0.018-0.009
			c-0.07-0.786-0.088-1.503-0.088-2.42v-2.464h0.716v5.889h-0.769l-1.869-2.988c-0.41-0.655-0.804-1.328-1.101-1.966l-0.026,0.009
			c0.044,0.743,0.061,1.45,0.061,2.429v2.517H236.313z"/>
		<path fill="#303232" d="M246.542,142.622c-0.342,0.122-1.014,0.323-1.809,0.323c-0.892,0-1.625-0.227-2.201-0.777
			c-0.507-0.488-0.822-1.275-0.822-2.193c0.01-1.755,1.215-3.04,3.189-3.04c0.681,0,1.215,0.149,1.467,0.271l-0.183,0.62
			c-0.315-0.141-0.708-0.254-1.302-0.254c-1.434,0-2.368,0.892-2.368,2.368c0,1.493,0.9,2.376,2.271,2.376
			c0.498,0,0.839-0.07,1.014-0.157v-1.757h-1.196v-0.61h1.939V142.622z"/>
	</g>
	<g>
		<path fill="#303232" d="M114.921,229.404c-0.043-0.821-0.097-1.808-0.087-2.543h-0.026c-0.201,0.691-0.446,1.424-0.743,2.237
			l-1.04,2.856h-0.576l-0.952-2.805c-0.279-0.829-0.516-1.589-0.682-2.289h-0.017c-0.019,0.735-0.062,1.722-0.115,2.604
			l-0.156,2.524h-0.725l0.41-5.888h0.97l1.004,2.847c0.245,0.726,0.446,1.372,0.595,1.984h0.026c0.148-0.595,0.357-1.241,0.62-1.984
			l1.049-2.847h0.969l0.367,5.888h-0.742L114.921,229.404z"/>
		<path fill="#303232" d="M122.014,228.985c0,2.027-1.232,3.102-2.735,3.102c-1.555,0-2.646-1.206-2.646-2.988
			c0-1.869,1.162-3.093,2.734-3.093C120.974,226.006,122.014,227.237,122.014,228.985z M117.444,229.081
			c0,1.258,0.682,2.386,1.878,2.386c1.206,0,1.888-1.109,1.888-2.446c0-1.171-0.612-2.395-1.879-2.395
			C118.073,226.626,117.444,227.788,117.444,229.081z"/>
		<path fill="#303232" d="M124.292,231.99l-1.922-5.888h0.821l0.917,2.9c0.254,0.795,0.473,1.512,0.629,2.201h0.018
			c0.166-0.682,0.41-1.425,0.673-2.193l0.996-2.908h0.813l-2.106,5.888H124.292z"/>
		<path fill="#303232" d="M128.633,226.103v5.888h-0.76v-5.888H128.633z"/>
		<path fill="#303232" d="M133.01,229.23h-2.289v2.122h2.551v0.638h-3.311v-5.888h3.18v0.637h-2.42v1.861h2.289V229.23z"/>
	</g>
	
		<circle fill="none" stroke="#303232" stroke-width="1.6199" stroke-linecap="round" stroke-miterlimit="10" cx="121.444" cy="192.986" r="19.144"/>
	<g>
		<polygon fill="#303232" points="117.904,183.244 115.143,187.275 121.046,185.693 123.807,181.662 		"/>
		<polygon fill="#303232" points="130.732,183.098 129.91,180.026 126.181,181.024 123.419,185.058 		"/>
		<polygon fill="#303232" points="109.051,185.615 109.874,188.687 112.77,187.911 115.53,183.878 		"/>
	</g>
	<g>
		<path fill="#303232" d="M109.876,190.433v3.717v3.866v2.969c0,1.509,1.167,3.081,2.606,3.081h16.377
			c1.441,0,2.669-1.572,2.669-3.081v-2.969v-3.866v-3.717H109.876z M117.896,201.258v-8.271l7.164,4.135L117.896,201.258z"/>
	</g>
	<g>
		<path fill="#303232" d="M179.351,226.181c0.463-0.07,1.014-0.122,1.617-0.122c1.092,0,1.868,0.254,2.385,0.733
			c0.523,0.48,0.83,1.162,0.83,2.114c0,0.961-0.297,1.747-0.849,2.289c-0.55,0.55-1.458,0.848-2.603,0.848
			c-0.542,0-0.996-0.026-1.381-0.07V226.181z M180.11,231.388c0.193,0.035,0.472,0.044,0.77,0.044c1.625,0,2.508-0.909,2.508-2.499
			c0.008-1.39-0.779-2.271-2.386-2.271c-0.394,0-0.69,0.034-0.892,0.078V231.388z"/>
		<path fill="#303232" d="M185.168,226.181c0.384-0.078,0.935-0.122,1.458-0.122c0.813,0,1.338,0.148,1.704,0.48
			c0.298,0.262,0.463,0.664,0.463,1.118c0,0.777-0.489,1.292-1.109,1.502v0.027c0.454,0.156,0.726,0.576,0.865,1.188
			c0.192,0.821,0.332,1.39,0.454,1.616h-0.786c-0.097-0.166-0.227-0.673-0.393-1.406c-0.175-0.813-0.49-1.118-1.18-1.145h-0.717
			v2.551h-0.76V226.181z M185.928,228.862h0.777c0.813,0,1.328-0.445,1.328-1.118c0-0.76-0.55-1.092-1.354-1.1
			c-0.367,0-0.63,0.034-0.752,0.068V228.862z"/>
		<path fill="#303232" d="M190.968,231.99l-1.494-5.888h0.804l0.698,2.979c0.176,0.733,0.332,1.468,0.438,2.036h0.018
			c0.097-0.586,0.279-1.284,0.48-2.045l0.786-2.97h0.796l0.716,2.987c0.166,0.699,0.324,1.397,0.411,2.018h0.017
			c0.123-0.646,0.289-1.301,0.473-2.035l0.776-2.97h0.779l-1.67,5.888h-0.794l-0.743-3.066c-0.184-0.751-0.307-1.327-0.385-1.922
			h-0.018c-0.104,0.585-0.236,1.161-0.454,1.922l-0.839,3.066H190.968z"/>
		<path fill="#303232" d="M198.155,226.103v5.888h-0.76v-5.888H198.155z"/>
		<path fill="#303232" d="M199.483,231.99v-5.888h0.83l1.888,2.979c0.438,0.69,0.777,1.312,1.058,1.913l0.017-0.009
			c-0.07-0.786-0.087-1.503-0.087-2.419v-2.464h0.716v5.888h-0.769l-1.869-2.987c-0.411-0.655-0.804-1.328-1.102-1.966l-0.026,0.008
			c0.044,0.743,0.061,1.45,0.061,2.43v2.516H199.483z"/>
		<path fill="#303232" d="M209.713,231.729c-0.341,0.122-1.013,0.323-1.809,0.323c-0.892,0-1.624-0.228-2.201-0.778
			c-0.507-0.488-0.822-1.274-0.822-2.192c0.01-1.756,1.216-3.04,3.189-3.04c0.682,0,1.215,0.148,1.468,0.271l-0.184,0.62
			c-0.314-0.141-0.707-0.254-1.302-0.254c-1.433,0-2.367,0.891-2.367,2.368c0,1.493,0.899,2.376,2.271,2.376
			c0.498,0,0.838-0.07,1.014-0.157v-1.757h-1.196v-0.61h1.938V231.729z"/>
	</g>
	
		<circle fill="none" stroke="#303232" stroke-width="1.6199" stroke-linecap="round" stroke-miterlimit="10" cx="194.448" cy="194.616" r="19.144"/>
	<g>
		<path fill="#303232" d="M191.563,188.451c-3.185,0-8.775-0.499-8.261,1.932c0.526,2.485,4.476,1.48,4.476,3.007
			c0,1.683-1.816,2.987-4.714,2.987c-1.212,0-1.126-2.597-3.042-1.87c-0.772,0.293-0.704,1.31-0.704,1.318
			c0,4.072,5.481,7.376,12.245,7.376c6.763,0,12.246-3.304,12.246-7.376S198.325,188.451,191.563,188.451z M187.437,202.014
			c-0.939,0-1.7-0.761-1.7-1.699s0.761-1.698,1.7-1.698c0.938,0,1.7,0.76,1.7,1.698S188.375,202.014,187.437,202.014z
			 M188.005,190.549c0.159-0.772,1.219-1.206,2.364-0.968s1.943,1.057,1.784,1.829c-0.162,0.772-1.22,1.206-2.366,0.968
			C188.642,192.141,187.842,191.321,188.005,190.549z M192.037,202.014c-0.938,0-1.701-0.761-1.701-1.699s0.763-1.698,1.701-1.698
			s1.698,0.76,1.698,1.698S192.976,202.014,192.037,202.014z M197.359,200.841c-0.939,0-1.7-0.76-1.7-1.698
			c0-0.939,0.761-1.7,1.7-1.7c0.938,0,1.698,0.761,1.698,1.7C199.058,200.081,198.297,200.841,197.359,200.841z M200.757,198.136
			c-0.938,0-1.699-0.761-1.699-1.701c0-0.937,0.761-1.699,1.699-1.699c0.938,0,1.699,0.763,1.699,1.699
			C202.456,197.375,201.694,198.136,200.757,198.136z"/>
	</g>
	<path fill="#FFFFFF" d="M199.545,188.342l0.688,0.781l4.421-3.866c0,0,0.234-0.383-0.172-0.712
		c-0.408-0.33-0.716,0.075-0.716,0.075L199.545,188.342z"/>
	<path fill="#FFFFFF" d="M197.313,190.308l1.527-1.346l0.689,0.782l-1.527,1.345C198.003,191.089,197.651,190.649,197.313,190.308z"
		/>
	<path fill="#303232" d="M203.203,183.865l-6.807,6.001c-0.812-0.207-1.711-0.025-2.392,0.569c-0.74,0.653-0.619,1.639-0.531,2.357
		c0.036,0.279,0.067,0.544,0.048,0.727c-0.031,0.276-0.136,0.495-0.313,0.65c-0.147,0.129-0.299,0.177-0.321,0.184
		c-0.073,0.017-0.142,0.052-0.202,0.104c-0.194,0.173-0.212,0.467-0.042,0.663c1.076,1.218,3.878,0.063,4.824-0.768
		c0.675-0.597,0.969-1.468,0.86-2.3l6.805-5.998c0.602-0.533,0.66-1.455,0.129-2.06
		C204.729,183.393,203.806,183.335,203.203,183.865z M197.271,191.734c0.162,0.381,0.177,0.801,0.051,1.186
		c-0.092,0.272-0.246,0.528-0.476,0.73c-0.609,0.535-1.99,1.074-2.855,1.062c0.257-0.293,0.415-0.664,0.462-1.089
		c0.033-0.293-0.006-0.609-0.047-0.944c-0.091-0.732-0.125-1.237,0.221-1.542c0.231-0.201,0.501-0.321,0.781-0.377
		c0.4-0.079,0.817-0.014,1.174,0.193c0.15,0.088,0.293,0.194,0.414,0.332C197.115,191.421,197.203,191.574,197.271,191.734z
		 M197.313,190.308l1.527-1.346l0.689,0.782l-1.527,1.345c-0.087-0.148-0.187-0.291-0.305-0.424
		C197.581,190.53,197.451,190.412,197.313,190.308z M204.512,185.352l-4.279,3.771l-0.688-0.781l4.278-3.773
		c0.216-0.189,0.545-0.167,0.733,0.049C204.749,184.832,204.727,185.161,204.512,185.352z"/>
	<path fill="#FFFFFF" d="M197.274,191.742c0.161,0.379,0.178,0.801,0.049,1.188c-0.091,0.271-0.244,0.526-0.474,0.727
		c-0.609,0.537-1.992,1.073-2.858,1.063c0.258-0.293,0.417-0.666,0.463-1.089c0.035-0.293-0.004-0.611-0.045-0.946
		c-0.093-0.732-0.124-1.235,0.223-1.543c0.229-0.198,0.501-0.319,0.779-0.374c0.401-0.08,0.817-0.013,1.175,0.194
		c0.15,0.088,0.292,0.192,0.413,0.33C197.119,191.429,197.206,191.583,197.274,191.742z"/>
	
		<circle fill="none" stroke="#303232" stroke-width="1.6199" stroke-linecap="round" stroke-miterlimit="10" cx="229.167" cy="103.878" r="19.143"/>
	<path fill="#242424" d="M224.565,103.708c-3.832,0-6.934,3.107-6.934,6.939c0,3.834,3.102,6.941,6.934,6.941
		c3.841,0,6.948-3.107,6.948-6.941C231.514,106.815,228.406,103.708,224.565,103.708z M220.002,109.456
		c-0.467,0-0.847-0.379-0.847-0.846c0-0.469,0.38-0.848,0.847-0.848c0.468,0,0.846,0.379,0.846,0.848
		C220.848,109.077,220.47,109.456,220.002,109.456z M221.438,106.544c0-0.467,0.378-0.846,0.846-0.846
		c0.467,0,0.847,0.379,0.847,0.846c0,0.469-0.38,0.848-0.847,0.848C221.816,107.392,221.438,107.013,221.438,106.544z
		 M222.907,110.444c-0.508,0-0.921-0.406-0.921-0.913c0-0.508,0.413-0.921,0.921-0.921s0.914,0.413,0.914,0.921
		C223.821,110.038,223.415,110.444,222.907,110.444z"/>
	<path fill="#242424" d="M239.034,101.813c-0.165-0.321-0.338-0.639-0.511-0.957c-0.706-1.3-1.373-2.529-1.542-3.93
		c-0.025-0.213-0.033-0.398-0.023-0.576c0.019-0.44,0.148-0.912,0.287-1.41c0.1-0.361,0.203-0.734,0.269-1.121
		c0.063-0.399,0.063-0.791,0.063-1.138c0-3.201-1.672-3.873-3.072-3.873c-1.406,0-3.085,0.672-3.085,3.873
		c0,0.347,0,0.736,0.064,1.144c0.063,0.381,0.167,0.754,0.267,1.115c0.139,0.498,0.27,0.97,0.287,1.426
		c0.011,0.162,0.002,0.345-0.024,0.57c-0.152,1.435-0.834,2.703-1.557,4.045c-0.264,0.49-0.526,0.98-0.764,1.479
		c-0.791,1.66-1.176,3.543-1.176,5.755c0,3.806,1.556,7.497,3.784,9.138l0.172,0.014h4.049l0.172-0.014
		c2.231-1.642,3.79-5.39,3.79-9.194C240.484,105.773,239.997,103.676,239.034,101.813z M235.927,98.119
		c0.1,0.802,0.224,0.802,0.359,0.802h-3.548c0.133,0,0.251,0,0.347-0.802H235.927z M234.505,90.107c0.575,0,1.772,0,1.772,2.573
		c0,0.313,0,0.637-0.046,0.93c-0.053,0.312-0.143,0.637-0.238,0.981c-0.151,0.548-0.31,0.972-0.332,1.549
		c-0.01,0.163-0.005,0.375,0.008,0.375h-2.342c0.012,0,0.019-0.209,0.008-0.362c-0.023-0.59-0.18-1.085-0.332-1.635
		c-0.095-0.343-0.186-0.633-0.236-0.938c-0.048-0.299-0.048-0.604-0.048-0.916C232.719,90.089,233.925,90.107,234.505,90.107z
		 M236.087,116.563h-3.178c-1.563-1.604-3.093-4.529-3.093-8.214c0-2.016,0.344-3.782,1.049-5.263
		c0.228-0.48,0.481-1.146,0.735-1.617c0.133-0.248,0.267-0.143,0.397-0.944h5.047c0.112,0.802,0.225,0.581,0.337,0.787
		c0.168,0.311,0.336,0.702,0.498,1.016c0.88,1.7,1.306,3.775,1.306,5.981C239.186,111.991,237.653,114.96,236.087,116.563z"/>
	<polygon fill="none" stroke="#C30D23" stroke-miterlimit="10" points="64.058,55.216 73.206,55.216 64.058,63.964 	"/>
</g>
<g>
	<polygon fill="none" stroke="#C30D23" stroke-miterlimit="10" points="318.293,55.216 327.442,55.216 318.293,63.964 	"/>
	<g opacity="0.5">
		<path fill="#E9D8D7" d="M335.05,197.852h7.956v44.441h-7.956V197.852z"/>
		<path fill="#E9D8D7" d="M346.673,197.914h7.832l20.075,32.88v-32.88h7.396v44.379h-7.893l-20.077-32.88v32.88h-7.334V197.914z"/>
		<path fill="#E9D8D7" d="M398.199,242.293V204.44h-11.934v-6.526h31.389v6.526h-11.872v37.853H398.199z"/>
		<path fill="#E9D8D7" d="M440.216,197.914c1.657,0,3.304,0.342,4.941,1.025c1.636,0.684,3.098,1.627,4.382,2.828
			c1.284,1.203,2.331,2.652,3.139,4.352c0.809,1.699,1.212,3.563,1.212,5.594s-0.414,3.875-1.242,5.532
			c-0.829,1.657-1.907,3.087-3.232,4.288c-1.326,1.203-2.828,2.124-4.507,2.766c-1.678,0.644-3.366,0.964-5.065,0.964h-10.256v17.03
			h-7.645v-44.379H440.216z M429.587,204.379v14.357h9.572c1.781,0,3.428-0.642,4.941-1.927c1.512-1.284,2.269-2.983,2.269-5.097
			c0-1.118-0.217-2.123-0.652-3.015c-0.435-0.891-0.984-1.667-1.647-2.33c-0.704-0.622-1.482-1.108-2.33-1.462
			c-0.851-0.352-1.71-0.527-2.58-0.527H429.587z"/>
	</g>
	<g>
		<g>
			<path fill="#2E3131" d="M438.75,98.835v0.745c-0.139,0.04-0.308,0.074-0.507,0.104c-0.198,0.029-0.403,0.055-0.615,0.074
				c-0.205,0.02-0.403,0.035-0.596,0.045s-0.348,0.015-0.467,0.015h-1.262v-4.836h0.964v4.042l0.507-0.011
				c0.317,0,0.649-0.02,0.997-0.06S438.445,98.875,438.75,98.835z M441.153,97.257v-2.661h0.933v7.646h-0.933V98.17h-1.014v3.843
				h-0.894v-7.278h0.894v2.522H441.153z"/>
			<path fill="#2E3131" d="M446.714,95.32h2.035v0.795h-1.152c0.192,0.178,0.35,0.387,0.472,0.625
				c0.123,0.238,0.184,0.489,0.184,0.755c0,0.277-0.055,0.537-0.163,0.779c-0.109,0.241-0.257,0.451-0.442,0.631
				c-0.192,0.179-0.414,0.319-0.665,0.422c-0.252,0.103-0.521,0.153-0.805,0.153c-0.291,0-0.563-0.051-0.814-0.153
				c-0.251-0.103-0.47-0.243-0.655-0.422c-0.185-0.18-0.33-0.39-0.437-0.631c-0.106-0.242-0.158-0.502-0.158-0.779
				c0-0.266,0.06-0.517,0.178-0.755c0.119-0.238,0.274-0.447,0.467-0.625h-1.171V95.32h2.085v-1.003h1.043V95.32z M447.329,97.455
				c0-0.158-0.033-0.313-0.1-0.462c-0.066-0.148-0.152-0.276-0.258-0.382c-0.106-0.113-0.229-0.202-0.368-0.269
				c-0.139-0.065-0.28-0.099-0.427-0.099c-0.152,0-0.298,0.033-0.437,0.099c-0.14,0.066-0.262,0.155-0.367,0.269
				c-0.106,0.105-0.19,0.233-0.254,0.382c-0.063,0.149-0.094,0.304-0.094,0.462c0,0.166,0.031,0.321,0.094,0.467
				c0.063,0.146,0.147,0.271,0.254,0.377c0.105,0.113,0.228,0.2,0.367,0.264c0.139,0.063,0.284,0.095,0.437,0.095
				c0.146,0,0.288-0.031,0.427-0.095c0.14-0.063,0.262-0.15,0.368-0.264c0.105-0.105,0.191-0.231,0.258-0.377
				S447.329,97.621,447.329,97.455z M450.407,101.894c0,0.278-0.057,0.538-0.169,0.78c-0.112,0.241-0.265,0.455-0.457,0.64
				c-0.192,0.179-0.415,0.319-0.67,0.422s-0.528,0.154-0.819,0.154c-0.292,0-0.566-0.052-0.824-0.154
				c-0.259-0.103-0.483-0.243-0.675-0.422c-0.192-0.185-0.343-0.398-0.452-0.64c-0.109-0.242-0.164-0.502-0.164-0.78
				s0.055-0.537,0.164-0.779s0.26-0.455,0.452-0.641c0.191-0.179,0.416-0.321,0.675-0.427c0.258-0.105,0.532-0.159,0.824-0.159
				c0.291,0,0.564,0.054,0.819,0.159s0.478,0.248,0.67,0.427c0.192,0.186,0.345,0.398,0.457,0.641S450.407,101.615,450.407,101.894z
				 M449.454,101.894c0-0.324-0.113-0.603-0.338-0.834c-0.226-0.231-0.5-0.348-0.824-0.348c-0.331,0-0.61,0.116-0.839,0.348
				s-0.343,0.51-0.343,0.834s0.109,0.601,0.327,0.829c0.219,0.229,0.494,0.343,0.825,0.343c0.324,0,0.604-0.114,0.839-0.343
				C449.336,102.494,449.454,102.218,449.454,101.894z M450.536,95.906h1.251v0.774h-1.251v1.043h1.271v0.774h-1.271v1.32h-0.953
				v-5.233h0.953V95.906z"/>
			<path fill="#2E3131" d="M457.726,98.637l-0.566,0.655c-0.186-0.093-0.372-0.207-0.561-0.342
				c-0.189-0.136-0.362-0.284-0.521-0.442c-0.172-0.159-0.322-0.328-0.451-0.507c-0.13-0.178-0.234-0.357-0.313-0.536
				c-0.079,0.192-0.193,0.388-0.343,0.586c-0.148,0.199-0.316,0.388-0.501,0.566c-0.192,0.186-0.393,0.355-0.601,0.511
				c-0.209,0.156-0.413,0.287-0.611,0.393l-0.615-0.626c0.352-0.218,0.665-0.45,0.943-0.695c0.277-0.244,0.513-0.519,0.705-0.823
				c0.158-0.259,0.283-0.545,0.372-0.859c0.09-0.314,0.134-0.667,0.134-1.058v-0.685h1.033v0.755c0,0.356,0.039,0.691,0.119,1.002
				c0.079,0.312,0.202,0.596,0.367,0.854c0.159,0.258,0.355,0.491,0.591,0.7C457.141,98.294,457.414,98.478,457.726,98.637z
				 M459.563,101.894c0,0.278-0.057,0.538-0.169,0.78c-0.112,0.241-0.266,0.455-0.457,0.64c-0.191,0.179-0.415,0.319-0.67,0.422
				s-0.528,0.154-0.819,0.154c-0.292,0-0.565-0.052-0.824-0.154s-0.483-0.243-0.675-0.422c-0.191-0.185-0.343-0.398-0.452-0.64
				c-0.108-0.242-0.163-0.502-0.163-0.78s0.055-0.537,0.163-0.779c0.109-0.242,0.261-0.455,0.452-0.641
				c0.191-0.179,0.416-0.321,0.675-0.427s0.532-0.159,0.824-0.159c0.291,0,0.564,0.054,0.819,0.159s0.479,0.248,0.67,0.427
				c0.191,0.186,0.345,0.398,0.457,0.641S459.563,101.615,459.563,101.894z M457.417,103.065c0.325,0,0.604-0.114,0.84-0.343
				s0.353-0.505,0.353-0.829s-0.113-0.603-0.338-0.834c-0.226-0.231-0.499-0.348-0.824-0.348c-0.331,0-0.61,0.116-0.839,0.348
				s-0.342,0.51-0.342,0.834s0.108,0.601,0.327,0.829C456.812,102.951,457.087,103.065,457.417,103.065z M458.808,96.174v-1.598
				h0.953v5.421h-0.953v-2.999h-1.678v-0.824H458.808z"/>
			<path fill="#2E3131" d="M463.661,94.461c-0.725,0.981-1.25,2.263-1.25,4.068c0,1.767,0.546,3.026,1.25,4.019h-0.685
				c-0.625-0.822-1.3-2.093-1.3-4.028c0.01-1.945,0.675-3.226,1.3-4.059H463.661z"/>
			<path fill="#2E3131" d="M465.479,95.056v6.689h-0.863v-6.689H465.479z"/>
			<path fill="#2E3131" d="M466.433,102.548c0.705-0.981,1.251-2.262,1.251-4.049c0-1.786-0.536-3.046-1.251-4.038h0.675
				c0.636,0.813,1.3,2.094,1.3,4.038c0,1.945-0.664,3.216-1.3,4.049H466.433z"/>
		</g>
	</g>
	<g>
		<g>
			<path fill="#2E3131" d="M523.797,167.86l-0.565,0.616c-0.18-0.1-0.366-0.227-0.562-0.383c-0.196-0.155-0.382-0.322-0.562-0.501
				c-0.178-0.179-0.342-0.364-0.49-0.557c-0.149-0.191-0.268-0.38-0.354-0.565c-0.1,0.192-0.222,0.383-0.367,0.57
				c-0.146,0.189-0.308,0.373-0.486,0.552c-0.192,0.191-0.397,0.379-0.616,0.562c-0.218,0.182-0.41,0.325-0.575,0.432l-0.606-0.597
				c0.417-0.297,0.767-0.597,1.048-0.897c0.281-0.302,0.504-0.611,0.67-0.929c0.146-0.292,0.252-0.604,0.318-0.938
				c0.066-0.335,0.099-0.71,0.099-1.127v-0.774h1.003v0.755c0,0.437,0.037,0.837,0.109,1.201s0.192,0.694,0.357,0.993
				c0.159,0.305,0.367,0.582,0.626,0.834C523.102,167.357,523.419,167.609,523.797,167.86z M525.465,165.527h1.261v0.805h-1.261v4.2
				h-0.942v-7.576h0.942V165.527z"/>
			<path fill="#2E3131" d="M530.479,168.675v-2.492h0.934v2.492h4.031v0.824h-7.904v-0.824H530.479z M533.706,167.781h-0.953
				c0.046-0.265,0.094-0.551,0.139-0.859c0.047-0.308,0.09-0.62,0.13-0.938c0.032-0.318,0.06-0.628,0.079-0.929
				s0.029-0.577,0.029-0.829h-4.07v-0.824h5.084c0,0.317-0.012,0.664-0.035,1.037c-0.023,0.375-0.055,0.751-0.094,1.128
				c-0.047,0.41-0.097,0.808-0.15,1.191C533.813,167.143,533.759,167.483,533.706,167.781z"/>
			<path fill="#2E3131" d="M538.591,162.821c-0.725,0.981-1.25,2.262-1.25,4.068c0,1.767,0.545,3.026,1.25,4.019h-0.686
				c-0.625-0.823-1.299-2.093-1.299-4.028c0.01-1.945,0.674-3.226,1.299-4.059H538.591z"/>
			<path fill="#2E3131" d="M540.815,164.15h-2.035v-0.734h4.953v0.734h-2.045v5.954h-0.873V164.15z"/>
			<path fill="#2E3131" d="M543.923,170.908c0.705-0.981,1.251-2.263,1.251-4.049s-0.535-3.046-1.251-4.038h0.676
				c0.635,0.813,1.3,2.094,1.3,4.038c0,1.945-0.665,3.216-1.3,4.049H543.923z"/>
		</g>
	</g>
	<g>
		<path fill="#B5B5B6" d="M359.43,168.389l-0.437-0.5c0.253-0.096,0.521-0.223,0.802-0.382c0.281-0.158,0.54-0.347,0.778-0.563
			c0.238-0.212,0.444-0.45,0.62-0.715c0.175-0.265,0.286-0.554,0.334-0.866h-2.226v-0.643h3.154
			c-0.031,0.471-0.133,0.901-0.302,1.29c-0.17,0.39-0.39,0.734-0.659,1.037c-0.275,0.307-0.589,0.571-0.941,0.794
			S359.827,168.246,359.43,168.389z M360.581,171.432v-2.526h3.75v2.526H360.581z M361.352,169.541v1.255h2.208v-1.255H361.352z
			 M364.347,165.998h1.001v0.667h-1.001v1.851h-0.763v-4.138h0.763V165.998z"/>
		<path fill="#B5B5B6" d="M367.651,165.331h-1.271v-0.644h3.36v0.644h-1.271v0.302c0,0.249,0.04,0.477,0.123,0.684
			c0.082,0.206,0.197,0.392,0.345,0.556c0.144,0.169,0.308,0.32,0.493,0.453c0.186,0.132,0.389,0.249,0.611,0.349l-0.405,0.533
			c-0.143-0.063-0.289-0.143-0.44-0.235s-0.298-0.196-0.441-0.313c-0.138-0.111-0.265-0.231-0.381-0.361
			c-0.117-0.13-0.212-0.261-0.286-0.394c-0.063,0.127-0.146,0.259-0.247,0.394c-0.1,0.135-0.213,0.264-0.341,0.385
			c-0.143,0.144-0.297,0.274-0.461,0.394s-0.32,0.219-0.468,0.298l-0.501-0.508c0.206-0.101,0.407-0.233,0.604-0.397
			c0.195-0.164,0.371-0.35,0.524-0.557c0.138-0.18,0.248-0.376,0.33-0.587c0.082-0.213,0.123-0.438,0.123-0.675V165.331z
			 M371.567,170.224c0,0.223-0.045,0.431-0.136,0.624c-0.09,0.193-0.211,0.364-0.364,0.513c-0.154,0.143-0.333,0.255-0.537,0.338
			c-0.203,0.082-0.422,0.122-0.655,0.122c-0.232,0-0.452-0.04-0.659-0.122c-0.206-0.083-0.387-0.195-0.54-0.338
			c-0.154-0.148-0.273-0.319-0.361-0.513s-0.131-0.401-0.131-0.624c0-0.222,0.043-0.43,0.131-0.623s0.207-0.364,0.361-0.512
			c0.153-0.144,0.334-0.258,0.54-0.343c0.207-0.085,0.427-0.127,0.659-0.127c0.233,0,0.452,0.042,0.655,0.127
			c0.204,0.085,0.383,0.199,0.537,0.343c0.153,0.147,0.274,0.318,0.364,0.512C371.522,169.794,371.567,170.002,371.567,170.224z
			 M369.852,171.161c0.259,0,0.483-0.092,0.671-0.273c0.188-0.183,0.282-0.404,0.282-0.664c0-0.259-0.09-0.481-0.271-0.667
			c-0.18-0.186-0.399-0.278-0.659-0.278c-0.265,0-0.488,0.093-0.671,0.278s-0.274,0.408-0.274,0.667c0,0.26,0.088,0.481,0.263,0.664
			C369.367,171.069,369.587,171.161,369.852,171.161z M370.964,165.99v-1.621h0.763v4.321h-0.763v-2.041h-1.406v-0.659H370.964z"/>
		<path fill="#B5B5B6" d="M374.847,164.276c-0.579,0.786-1,1.811-1,3.255c0,1.414,0.437,2.423,1,3.217h-0.548
			c-0.499-0.659-1.04-1.675-1.04-3.225c0.008-1.556,0.541-2.58,1.04-3.247H374.847z"/>
		<path fill="#B5B5B6" d="M375.61,164.752h2.883v0.58h-2.191v1.779h2.025v0.571h-2.025v2.422h-0.691V164.752z"/>
		<path fill="#B5B5B6" d="M379.034,170.748c0.564-0.786,1.001-1.811,1.001-3.24c0-1.429-0.429-2.438-1.001-3.231h0.54
			c0.508,0.65,1.041,1.675,1.041,3.231c0,1.558-0.533,2.573-1.041,3.24H379.034z"/>
	</g>
	<g>
		<path fill="#B5B5B6" d="M435.405,238.537v-0.763c-0.371-0.085-0.677-0.278-0.918-0.579c-0.241-0.303-0.361-0.654-0.361-1.057
			c0-0.233,0.043-0.452,0.131-0.655c0.087-0.204,0.205-0.384,0.354-0.537c0.153-0.153,0.333-0.274,0.536-0.365
			c0.204-0.09,0.422-0.135,0.655-0.135c0.228,0,0.445,0.045,0.652,0.135c0.205,0.091,0.383,0.212,0.531,0.365
			c0.153,0.153,0.275,0.333,0.366,0.537c0.09,0.203,0.134,0.422,0.134,0.655c0,0.396-0.12,0.745-0.36,1.044
			c-0.241,0.3-0.544,0.494-0.91,0.584v0.738c0.366-0.016,0.719-0.035,1.061-0.06c0.342-0.023,0.624-0.052,0.847-0.083v0.611
			c-0.159,0.027-0.36,0.051-0.604,0.072c-0.243,0.021-0.506,0.039-0.786,0.055c-0.281,0.021-0.569,0.038-0.866,0.048
			c-0.297,0.012-0.571,0.016-0.826,0.016l-1.414,0.009v-0.628h1.137L435.405,238.537z M436.739,236.139
			c0-0.281-0.093-0.523-0.277-0.727c-0.186-0.205-0.406-0.307-0.66-0.307c-0.26,0-0.479,0.102-0.659,0.307
			c-0.18,0.203-0.271,0.445-0.271,0.727c0,0.285,0.091,0.527,0.271,0.727c0.181,0.198,0.399,0.298,0.659,0.298
			c0.254,0,0.475-0.1,0.66-0.298C436.646,236.666,436.739,236.424,436.739,236.139z M438.479,240.349v-6.037h0.755v6.037H438.479z"
			/>
		<path fill="#B5B5B6" d="M443.086,234.891h1.629v0.636h-0.922c0.153,0.143,0.28,0.31,0.378,0.501
			c0.098,0.19,0.146,0.392,0.146,0.604c0,0.223-0.043,0.43-0.131,0.624c-0.087,0.193-0.205,0.36-0.354,0.504
			c-0.154,0.144-0.331,0.255-0.532,0.338c-0.201,0.082-0.416,0.122-0.644,0.122c-0.232,0-0.45-0.04-0.651-0.122
			c-0.201-0.083-0.376-0.194-0.524-0.338s-0.265-0.311-0.35-0.504c-0.084-0.194-0.127-0.401-0.127-0.624
			c0-0.212,0.047-0.413,0.143-0.604c0.096-0.191,0.221-0.358,0.374-0.501h-0.938v-0.636h1.668v-0.802h0.834V234.891z
			 M443.579,236.599c0-0.127-0.027-0.25-0.08-0.369s-0.122-0.221-0.206-0.306c-0.085-0.09-0.183-0.161-0.294-0.215
			c-0.111-0.053-0.226-0.079-0.342-0.079c-0.122,0-0.238,0.026-0.35,0.079c-0.111,0.054-0.209,0.125-0.294,0.215
			c-0.084,0.085-0.152,0.187-0.202,0.306c-0.051,0.119-0.075,0.242-0.075,0.369c0,0.133,0.024,0.257,0.075,0.374
			c0.05,0.116,0.118,0.217,0.202,0.302c0.085,0.09,0.183,0.16,0.294,0.21c0.111,0.051,0.228,0.075,0.35,0.075
			c0.116,0,0.23-0.024,0.342-0.075c0.111-0.05,0.209-0.12,0.294-0.21c0.084-0.085,0.153-0.186,0.206-0.302
			C443.552,236.855,443.579,236.731,443.579,236.599z M446.042,240.149c0,0.223-0.046,0.43-0.136,0.624
			c-0.09,0.193-0.212,0.363-0.365,0.513c-0.154,0.143-0.333,0.255-0.536,0.337c-0.205,0.083-0.422,0.123-0.655,0.123
			s-0.453-0.04-0.66-0.123c-0.206-0.082-0.387-0.194-0.54-0.337c-0.153-0.149-0.274-0.319-0.361-0.513
			c-0.088-0.194-0.131-0.401-0.131-0.624s0.043-0.43,0.131-0.623c0.087-0.193,0.208-0.364,0.361-0.513
			c0.153-0.143,0.334-0.257,0.54-0.342c0.207-0.085,0.427-0.127,0.66-0.127s0.45,0.042,0.655,0.127
			c0.203,0.085,0.382,0.199,0.536,0.342c0.153,0.148,0.275,0.319,0.365,0.513S446.042,239.927,446.042,240.149z M445.278,240.149
			c0-0.259-0.09-0.481-0.27-0.667c-0.181-0.186-0.4-0.278-0.659-0.278c-0.265,0-0.489,0.093-0.672,0.278s-0.273,0.408-0.273,0.667
			c0,0.26,0.087,0.481,0.262,0.663c0.175,0.183,0.395,0.274,0.659,0.274c0.26,0,0.483-0.092,0.672-0.274
			C445.185,240.631,445.278,240.409,445.278,240.149z M446.145,235.36h1.001v0.619h-1.001v0.834h1.017v0.619h-1.017v1.057h-0.763
			v-4.186h0.763V235.36z"/>
		<path fill="#B5B5B6" d="M451.896,237.544l-0.453,0.525c-0.147-0.075-0.297-0.166-0.448-0.274c-0.151-0.109-0.29-0.227-0.417-0.354
			c-0.139-0.127-0.258-0.262-0.361-0.404c-0.104-0.144-0.188-0.286-0.251-0.43c-0.063,0.154-0.154,0.311-0.274,0.47
			c-0.118,0.158-0.252,0.309-0.4,0.452c-0.153,0.148-0.314,0.284-0.48,0.409c-0.167,0.124-0.329,0.229-0.488,0.313l-0.492-0.5
			c0.28-0.175,0.531-0.36,0.754-0.556c0.223-0.196,0.41-0.416,0.564-0.66c0.127-0.206,0.227-0.436,0.298-0.688
			c0.071-0.251,0.107-0.533,0.107-0.846v-0.548h0.826v0.604c0,0.286,0.031,0.554,0.095,0.803s0.162,0.477,0.294,0.683
			c0.127,0.207,0.284,0.394,0.473,0.561C451.428,237.271,451.646,237.417,451.896,237.544z M453.365,240.149
			c0,0.223-0.045,0.43-0.136,0.624c-0.09,0.193-0.211,0.363-0.364,0.513c-0.153,0.143-0.333,0.255-0.537,0.337
			c-0.203,0.083-0.422,0.123-0.655,0.123c-0.232,0-0.452-0.04-0.659-0.123c-0.206-0.082-0.386-0.194-0.54-0.337
			c-0.154-0.149-0.273-0.319-0.361-0.513c-0.088-0.194-0.131-0.401-0.131-0.624s0.043-0.43,0.131-0.623s0.207-0.364,0.361-0.513
			c0.154-0.143,0.334-0.257,0.54-0.342c0.207-0.085,0.427-0.127,0.659-0.127c0.233,0,0.452,0.042,0.655,0.127
			c0.204,0.085,0.384,0.199,0.537,0.342c0.153,0.148,0.274,0.319,0.364,0.513C453.32,239.72,453.365,239.927,453.365,240.149z
			 M451.649,241.087c0.26,0,0.483-0.092,0.671-0.274c0.188-0.182,0.282-0.403,0.282-0.663c0-0.259-0.09-0.481-0.271-0.667
			c-0.18-0.186-0.399-0.278-0.659-0.278c-0.265,0-0.488,0.093-0.671,0.278s-0.274,0.408-0.274,0.667c0,0.26,0.088,0.481,0.263,0.663
			C451.165,240.995,451.385,241.087,451.649,241.087z M452.762,235.574v-1.279h0.763v4.338h-0.763v-2.399h-1.343v-0.659H452.762z"/>
		<path fill="#B5B5B6" d="M456.646,234.202c-0.58,0.786-1.001,1.811-1.001,3.255c0,1.414,0.437,2.423,1.001,3.217h-0.549
			c-0.499-0.659-1.04-1.676-1.04-3.225c0.008-1.556,0.541-2.58,1.04-3.247H456.646z"/>
		<path fill="#B5B5B6" d="M460.181,237.521H458.1v1.93h2.318v0.579h-3.009v-5.353h2.89v0.58H458.1v1.691h2.081V237.521z"/>
		<path fill="#B5B5B6" d="M460.872,240.674c0.563-0.786,1-1.811,1-3.24c0-1.429-0.429-2.438-1-3.231h0.539
			c0.509,0.65,1.041,1.675,1.041,3.231s-0.532,2.573-1.041,3.24H460.872z"/>
	</g>
	<g>
		<g>
			<path fill="#2E3131" d="M496.721,114.548h-1.588v-0.804h4.2v0.804h-1.589v0.268c0,0.292,0.046,0.56,0.139,0.805
				s0.222,0.467,0.388,0.666c0.179,0.218,0.391,0.418,0.636,0.601c0.244,0.182,0.513,0.342,0.804,0.481l-0.506,0.665
				c-0.179-0.079-0.365-0.179-0.557-0.298s-0.377-0.251-0.556-0.396c-0.173-0.14-0.329-0.289-0.472-0.447
				c-0.143-0.159-0.26-0.321-0.353-0.486c-0.08,0.165-0.186,0.334-0.317,0.506c-0.133,0.172-0.281,0.337-0.447,0.496
				c-0.179,0.172-0.366,0.33-0.562,0.473c-0.194,0.143-0.385,0.263-0.57,0.361l-0.626-0.635c0.259-0.126,0.51-0.292,0.755-0.497
				c0.244-0.205,0.463-0.437,0.655-0.695c0.172-0.225,0.31-0.47,0.412-0.734s0.153-0.546,0.153-0.844V114.548z M496.86,119.881
				v-0.795h4.846v3.178h-0.964v-2.383H496.86z M500.803,118.619v-5.272h0.953v5.272H500.803z"/>
			<path fill="#2E3131" d="M505.042,117.854v-2.035h0.943v2.016c0.563-0.021,1.122-0.05,1.679-0.09
				c0.556-0.039,1.009-0.079,1.36-0.119v0.765c-0.199,0.033-0.451,0.063-0.756,0.09c-0.304,0.026-0.635,0.049-0.992,0.068
				c-0.352,0.027-0.71,0.047-1.078,0.061c-0.367,0.014-0.709,0.02-1.027,0.02l-1.697,0.011v-0.785H505.042z M507.763,117.1h-0.964
				c0.04-0.192,0.08-0.401,0.12-0.631c0.039-0.228,0.073-0.461,0.099-0.7c0.026-0.231,0.046-0.461,0.06-0.689
				s0.021-0.441,0.021-0.641h-2.93v-0.834h3.942c0,0.238-0.009,0.512-0.025,0.819s-0.041,0.624-0.074,0.948
				c-0.033,0.317-0.071,0.629-0.113,0.934C507.854,116.61,507.809,116.875,507.763,117.1z M505.509,119.572h0.963v1.777h4.062v0.824
				h-5.024V119.572z M510.403,117.021v2.77h-0.952v-6.434h0.952v2.859h1.231v0.805H510.403z"/>
			<path fill="#2E3131" d="M514.593,113.231c-0.725,0.982-1.25,2.263-1.25,4.068c0,1.767,0.546,3.027,1.25,4.02h-0.685
				c-0.625-0.823-1.3-2.094-1.3-4.028c0.01-1.945,0.675-3.227,1.3-4.06H514.593z"/>
			<path fill="#2E3131" d="M515.548,120.516v-6.688h0.942l2.144,3.384c0.496,0.784,0.883,1.488,1.201,2.173l0.02-0.01
				c-0.08-0.893-0.1-1.707-0.1-2.748v-2.799h0.814v6.688h-0.873l-2.125-3.395c-0.465-0.743-0.912-1.508-1.25-2.232l-0.029,0.011
				c0.05,0.843,0.069,1.646,0.069,2.758v2.858H515.548z"/>
			<path fill="#2E3131" d="M521.524,121.319c0.705-0.982,1.25-2.263,1.25-4.049s-0.535-3.047-1.25-4.039h0.675
				c0.636,0.813,1.3,2.095,1.3,4.039c0,1.945-0.664,3.215-1.3,4.049H521.524z"/>
		</g>
	</g>
	<g>
		<g>
			<path fill="#2E3131" d="M383.917,115.849c0-0.305,0.059-0.594,0.174-0.869c0.115-0.274,0.273-0.512,0.472-0.709
				c0.198-0.206,0.432-0.368,0.7-0.487c0.268-0.119,0.555-0.179,0.858-0.179c0.299,0,0.581,0.06,0.85,0.179
				c0.268,0.119,0.501,0.281,0.699,0.487c0.199,0.197,0.358,0.435,0.478,0.709c0.119,0.275,0.178,0.564,0.178,0.869
				c0,0.312-0.059,0.604-0.178,0.879s-0.278,0.512-0.478,0.71c-0.198,0.205-0.432,0.366-0.699,0.481
				c-0.269,0.115-0.551,0.174-0.85,0.174c-0.304,0-0.591-0.059-0.858-0.174c-0.269-0.115-0.502-0.276-0.7-0.481
				c-0.198-0.198-0.356-0.436-0.472-0.71S383.917,116.16,383.917,115.849z M387.353,115.849c0-0.384-0.118-0.71-0.357-0.978
				c-0.238-0.269-0.529-0.403-0.874-0.403c-0.351,0-0.644,0.135-0.879,0.403c-0.234,0.268-0.353,0.594-0.353,0.978
				c0,0.391,0.118,0.719,0.353,0.983c0.235,0.265,0.528,0.396,0.879,0.396c0.345,0,0.636-0.132,0.874-0.396
				C387.234,116.567,387.353,116.239,387.353,115.849z M385.993,119.443h0.963v1.906h4.07v0.824h-5.033V119.443z M389.865,119.83
				v-6.483h0.953v6.483H389.865z"/>
			<path fill="#2E3131" d="M397.788,117.259l-0.565,0.655c-0.186-0.086-0.369-0.195-0.551-0.327
				c-0.183-0.133-0.353-0.278-0.512-0.438c-0.173-0.159-0.327-0.331-0.462-0.517c-0.136-0.185-0.243-0.367-0.323-0.546
				c-0.079,0.179-0.187,0.361-0.322,0.546c-0.136,0.186-0.29,0.368-0.461,0.547c-0.199,0.198-0.407,0.38-0.626,0.546
				c-0.219,0.165-0.434,0.305-0.646,0.417l-0.616-0.626c0.371-0.231,0.7-0.479,0.988-0.739c0.288-0.262,0.528-0.558,0.72-0.89
				c0.14-0.244,0.248-0.518,0.328-0.818c0.079-0.301,0.119-0.631,0.119-0.988v-0.536h1.033v0.606c0,0.337,0.036,0.652,0.108,0.947
				c0.073,0.295,0.182,0.567,0.327,0.819c0.159,0.278,0.361,0.53,0.606,0.755C397.179,116.898,397.464,117.093,397.788,117.259z
				 M394.859,119.881v-0.795h4.845v3.178h-0.963v-2.383H394.859z M398.802,118.619v-5.272h0.953v5.272H398.802z"/>
			<path fill="#2E3131" d="M403.655,113.231c-0.725,0.982-1.25,2.263-1.25,4.068c0,1.767,0.546,3.027,1.25,4.02h-0.685
				c-0.625-0.823-1.3-2.094-1.3-4.028c0.01-1.945,0.675-3.227,1.3-4.06H403.655z"/>
			<path fill="#2E3131" d="M404.61,113.906c0.416-0.069,0.962-0.129,1.657-0.129c0.854,0,1.479,0.198,1.875,0.556
				c0.367,0.317,0.586,0.804,0.586,1.399c0,0.605-0.179,1.081-0.516,1.429c-0.457,0.486-1.201,0.734-2.044,0.734
				c-0.259,0-0.497-0.01-0.695-0.059v2.679h-0.863V113.906z M405.474,117.132c0.188,0.049,0.426,0.069,0.715,0.069
				c1.041,0,1.676-0.507,1.676-1.429c0-0.884-0.624-1.311-1.576-1.311c-0.378,0-0.665,0.029-0.814,0.069V117.132z"/>
			<path fill="#2E3131" d="M409.336,121.319c0.705-0.982,1.251-2.263,1.251-4.049s-0.535-3.047-1.251-4.039h0.676
				c0.635,0.813,1.3,2.095,1.3,4.039c0,1.945-0.665,3.215-1.3,4.049H409.336z"/>
		</g>
	</g>
	<g>
		<path fill="#B5B5B6" d="M497.65,217.427l-0.023,2.359l1.152-0.087v0.643c-0.196,0.021-0.433,0.042-0.707,0.06
			c-0.276,0.019-0.56,0.033-0.851,0.044c-0.296,0.016-0.584,0.026-0.861,0.032c-0.278,0.006-0.518,0.008-0.719,0.008h-1.049v-0.644
			h0.763l-0.017-2.415h-0.604v-0.636h3.504v0.636H497.65z M496.943,217.427h-0.897l0.016,2.415l0.858-0.031L496.943,217.427z
			 M496.149,221.352h0.771v1.524h3.177v0.659h-3.947V221.352z M499.986,218.459h1.009v0.667h-1.009v2.535h-0.763v-5.188h0.763
			V218.459z"/>
		<path fill="#B5B5B6" d="M505.841,219.54v0.619c-0.144,0.032-0.326,0.06-0.549,0.083c-0.222,0.024-0.455,0.044-0.699,0.061
			c-0.238,0.016-0.471,0.027-0.698,0.035s-0.413,0.012-0.556,0.012l-1.296,0.009v-3.567h2.972v0.667h-2.201v2.257l0.652-0.008
			c0.158,0,0.339-0.004,0.54-0.012c0.201-0.009,0.405-0.018,0.611-0.028c0.212-0.016,0.422-0.033,0.632-0.052
			C505.458,219.597,505.655,219.571,505.841,219.54z M503.299,221.352h0.771v1.524h3.177v0.659h-3.947V221.352z M507.135,218.459
			h1.01v0.667h-1.01v2.535h-0.762v-5.188h0.762V218.459z"/>
		<path fill="#B5B5B6" d="M510.495,216.38c-0.58,0.786-1.001,1.811-1.001,3.256c0,1.413,0.437,2.422,1.001,3.216h-0.549
			c-0.499-0.658-1.04-1.675-1.04-3.224c0.008-1.557,0.541-2.581,1.04-3.248H510.495z"/>
		<path fill="#B5B5B6" d="M512.354,216.856h0.689v3.582c0,1.421-0.697,1.858-1.619,1.858c-0.254,0-0.563-0.056-0.738-0.128
			l0.103-0.563c0.144,0.056,0.351,0.103,0.581,0.103c0.619,0,0.984-0.277,0.984-1.325V216.856z"/>
		<path fill="#B5B5B6" d="M513.753,222.852c0.563-0.786,1-1.811,1-3.239c0-1.43-0.429-2.438-1-3.232h0.539
			c0.508,0.651,1.041,1.676,1.041,3.232s-0.533,2.573-1.041,3.239H513.753z"/>
	</g>
	<g>
		<path fill="#B5B5B6" d="M384.313,220.493l-0.437-0.5c0.254-0.096,0.521-0.223,0.802-0.382c0.281-0.159,0.54-0.347,0.778-0.563
			c0.239-0.212,0.444-0.451,0.62-0.716c0.175-0.265,0.286-0.554,0.334-0.866h-2.225v-0.643h3.153
			c-0.031,0.472-0.133,0.901-0.302,1.291c-0.17,0.389-0.389,0.734-0.659,1.036c-0.275,0.308-0.589,0.572-0.941,0.794
			C385.085,220.167,384.711,220.35,384.313,220.493z M385.465,223.535v-2.526h3.75v2.526H385.465z M386.235,221.646v1.254h2.209
			v-1.254H386.235z M389.23,218.103h1.001v0.667h-1.001v1.851h-0.763v-4.139h0.763V218.103z"/>
		<path fill="#B5B5B6" d="M391.463,220.493l-0.437-0.5c0.253-0.096,0.521-0.223,0.802-0.382c0.281-0.159,0.54-0.347,0.778-0.563
			c0.238-0.212,0.444-0.451,0.62-0.716c0.175-0.265,0.286-0.554,0.333-0.866h-2.225v-0.643h3.154
			c-0.031,0.472-0.133,0.901-0.302,1.291c-0.17,0.389-0.39,0.734-0.659,1.036c-0.276,0.308-0.589,0.572-0.941,0.794
			C392.234,220.167,391.86,220.35,391.463,220.493z M392.503,221.7v-0.636h3.877v2.542h-0.771V221.7H392.503z M396.38,218.103h1.001
			v0.667h-1.001v1.898h-0.763v-4.187h0.763V218.103z"/>
		<path fill="#B5B5B6" d="M399.731,216.38c-0.58,0.786-1.001,1.811-1.001,3.256c0,1.413,0.437,2.422,1.001,3.216h-0.549
			c-0.499-0.658-1.04-1.675-1.04-3.224c0.008-1.557,0.541-2.581,1.04-3.248H399.731z"/>
		<path fill="#B5B5B6" d="M400.399,221.367c0.309,0.19,0.763,0.349,1.238,0.349c0.707,0,1.12-0.372,1.12-0.913
			c0-0.5-0.286-0.786-1.009-1.063c-0.874-0.31-1.413-0.763-1.413-1.518c0-0.833,0.69-1.452,1.731-1.452
			c0.547,0,0.944,0.127,1.183,0.262l-0.19,0.563c-0.175-0.095-0.532-0.254-1.017-0.254c-0.73,0-1.009,0.438-1.009,0.802
			c0,0.501,0.326,0.747,1.064,1.032c0.905,0.35,1.365,0.786,1.365,1.572c0,0.826-0.611,1.541-1.873,1.541
			c-0.517,0-1.08-0.15-1.366-0.342L400.399,221.367z"/>
		<path fill="#B5B5B6" d="M403.966,222.852c0.564-0.786,1.001-1.811,1.001-3.239c0-1.43-0.429-2.438-1.001-3.232h0.54
			c0.509,0.651,1.041,1.676,1.041,3.232s-0.532,2.573-1.041,3.239H403.966z"/>
	</g>
	<g>
		<polygon fill="none" stroke="#B5B5B6" stroke-width="0.9286" stroke-miterlimit="10" points="450.676,108.725 493.406,126.425 
			511.104,169.152 493.406,211.885 450.676,229.583 407.947,211.885 390.247,169.152 407.945,126.425 		"/>
		<polygon fill="none" stroke="#B5B5B6" stroke-width="0.9286" stroke-miterlimit="10" points="450.679,135.47 474.491,145.335 
			484.358,169.155 474.493,192.969 450.676,202.837 426.858,192.971 416.993,169.152 426.858,145.335 		"/>
		<line fill="none" stroke="#B5B5B6" stroke-miterlimit="10" x1="510.869" y1="169.718" x2="390.723" y2="169.718"/>
		
			<line fill="none" stroke="#B5B5B6" stroke-width="0.9286" stroke-miterlimit="10" x1="493.406" y1="126.425" x2="407.947" y2="211.885"/>
		
			<line fill="none" stroke="#B5B5B6" stroke-width="0.9286" stroke-miterlimit="10" x1="493.406" y1="211.885" x2="407.945" y2="126.425"/>
		<line fill="none" stroke="#B5B5B6" stroke-miterlimit="10" x1="450.184" y1="229.178" x2="450.184" y2="109.033"/>
	</g>
	<circle fill="#D78888" cx="450.676" cy="127.617" r="2.866"/>
	<circle fill="#D78888" cx="420.884" cy="139.04" r="2.867"/>
	<circle fill="#D78888" cx="478.872" cy="141.112" r="2.868"/>
	<circle fill="#D78888" cx="450.676" cy="183.215" r="1.585"/>
	<circle fill="#D78888" cx="437.528" cy="181.63" r="1.585"/>
	<circle fill="#D78888" cx="470.643" cy="188.678" r="1.586"/>
	<circle fill="#D78888" cx="493.406" cy="169.155" r="1.585"/>
	<circle fill="#D78888" cx="416.993" cy="169.155" r="1.585"/>
	<polygon opacity="0.5" fill="#D88C90" points="493.406,169.155 470.642,188.678 450.676,183.215 437.528,181.63 416.993,169.152 
		420.884,139.04 450.676,127.617 478.871,141.112 	"/>
</g>
<g>
	<g>
		<path fill="#323333" d="M333.36,57.976h3.135c2.475,0,4.125,0.825,4.125,3.225c0,2.325-1.65,3.405-4.051,3.405h-1.814v4.364
			h-1.395V57.976z M336.39,63.48c1.936,0,2.85-0.705,2.85-2.28c0-1.59-0.975-2.1-2.91-2.1h-1.574v4.38H336.39z"/>
		<path fill="#323333" d="M342.84,57.976h6.345v1.17h-4.949v3.45h4.17v1.185h-4.17v4.005h5.114v1.185h-6.51V57.976z"/>
		<path fill="#323333" d="M357.704,68.97l-2.67-4.664h-1.979v4.664h-1.396V57.976h3.45c2.235,0,3.84,0.795,3.84,3.09
			c0,1.71-0.989,2.73-2.489,3.09l2.819,4.814H357.704z M353.055,63.181h1.845c1.725,0,2.67-0.689,2.67-2.115
			c0-1.455-0.945-1.965-2.67-1.965h-1.845V63.181z"/>
		<path fill="#323333" d="M360.165,67.53l0.824-0.945c0.795,0.825,1.905,1.365,3.045,1.365c1.439,0,2.311-0.72,2.311-1.8
			c0-1.125-0.795-1.485-1.83-1.95l-1.59-0.689c-1.021-0.436-2.235-1.215-2.235-2.82c0-1.695,1.47-2.925,3.465-2.925
			c1.306,0,2.46,0.556,3.239,1.364l-0.734,0.886c-0.675-0.63-1.484-1.035-2.505-1.035c-1.245,0-2.056,0.63-2.056,1.62
			c0,1.064,0.961,1.47,1.815,1.83l1.575,0.675c1.275,0.556,2.265,1.306,2.265,2.94c0,1.739-1.44,3.119-3.735,3.119
			C362.46,69.165,361.124,68.535,360.165,67.53z"/>
		<path fill="#323333" d="M369.284,63.436c0-3.524,1.936-5.67,4.695-5.67s4.695,2.146,4.695,5.67s-1.936,5.729-4.695,5.729
			S369.284,66.96,369.284,63.436z M377.249,63.436c0-2.76-1.305-4.455-3.27-4.455c-1.98,0-3.27,1.695-3.27,4.455
			c0,2.745,1.289,4.515,3.27,4.515C375.944,67.95,377.249,66.181,377.249,63.436z"/>
		<path fill="#323333" d="M381.044,57.976h1.44l4.005,6.93l1.17,2.266h0.074c-0.074-1.11-0.18-2.34-0.18-3.48v-5.715h1.32V68.97
			h-1.425l-4.005-6.944l-1.186-2.265h-0.06c0.06,1.109,0.165,2.279,0.165,3.435v5.774h-1.32V57.976z"/>
		<path fill="#323333" d="M396.913,65.61h-4.02l-1.064,3.359h-1.41l3.734-10.994h1.545l3.735,10.994h-1.47L396.913,65.61z
			 M396.569,64.501l-0.525-1.681c-0.405-1.245-0.75-2.444-1.109-3.72h-0.061c-0.346,1.29-0.705,2.475-1.096,3.72l-0.539,1.681
			H396.569z"/>
		<path fill="#323333" d="M400.979,57.976h1.395v9.81h4.8v1.185h-6.194V57.976z"/>
		<path fill="#323333" d="M409.108,57.976h1.396V68.97h-1.396V57.976z"/>
		<path fill="#323333" d="M415.799,59.146h-3.33v-1.17h8.055v1.17h-3.329v9.824h-1.396V59.146z"/>
		<path fill="#323333" d="M424.048,64.695l-3.299-6.72h1.484l1.41,3.105c0.359,0.81,0.689,1.574,1.08,2.399h0.061
			c0.389-0.825,0.764-1.59,1.094-2.399l1.426-3.105h1.439l-3.3,6.72v4.274h-1.396V64.695z"/>
	</g>
</g>
<g>
	<g>
		<path fill="#323333" d="M77.464,58.577h1.396v10.995h-1.396V58.577z"/>
		<path fill="#323333" d="M81.859,58.577h1.44l4.004,6.93l1.17,2.266h0.075c-0.075-1.109-0.18-2.34-0.18-3.48v-5.715h1.319v10.995
			h-1.424l-4.006-6.944l-1.185-2.266h-0.06c0.06,1.11,0.164,2.28,0.164,3.436v5.774h-1.319V58.577z"/>
		<path fill="#323333" d="M94.983,59.747h-3.33v-1.17h8.055v1.17h-3.329v9.825h-1.396V59.747z"/>
		<path fill="#323333" d="M101.675,58.577h6.344v1.17h-4.949v3.451h4.17v1.184h-4.17v4.006h5.115v1.185h-6.51V58.577z"/>
		<path fill="#323333" d="M116.539,69.572l-2.67-4.665h-1.979v4.665h-1.396V58.577h3.45c2.234,0,3.84,0.795,3.84,3.09
			c0,1.711-0.99,2.73-2.49,3.09l2.82,4.815H116.539z M111.89,63.782h1.844c1.726,0,2.67-0.689,2.67-2.115
			c0-1.454-0.944-1.965-2.67-1.965h-1.844V63.782z"/>
		<path fill="#323333" d="M120.019,58.577h6.346v1.17h-4.95v3.451h4.17v1.184h-4.17v4.006h5.114v1.185h-6.51V58.577z"/>
		<path fill="#323333" d="M128.044,68.132l0.824-0.944c0.795,0.825,1.906,1.364,3.045,1.364c1.44,0,2.311-0.719,2.311-1.799
			c0-1.125-0.795-1.485-1.83-1.951l-1.59-0.689c-1.02-0.435-2.234-1.215-2.234-2.82c0-1.694,1.469-2.924,3.465-2.924
			c1.305,0,2.459,0.555,3.239,1.364l-0.735,0.886c-0.674-0.631-1.484-1.035-2.504-1.035c-1.246,0-2.055,0.63-2.055,1.619
			c0,1.065,0.959,1.471,1.814,1.83l1.574,0.676c1.275,0.555,2.266,1.305,2.266,2.939c0,1.74-1.44,3.119-3.734,3.119
			C130.339,69.767,129.004,69.138,128.044,68.132z"/>
		<path fill="#323333" d="M139.759,59.747h-3.33v-1.17h8.055v1.17h-3.33v9.825h-1.395V59.747z"/>
		<path fill="#323333" d="M146.448,58.577h1.396v10.995h-1.396V58.577z"/>
		<path fill="#323333" d="M150.844,58.577h1.44l4.004,6.93l1.17,2.266h0.075c-0.075-1.109-0.18-2.34-0.18-3.48v-5.715h1.319v10.995
			h-1.424l-4.006-6.944l-1.185-2.266h-0.06c0.06,1.11,0.164,2.28,0.164,3.436v5.774h-1.319V58.577z"/>
		<path fill="#323333" d="M161.044,64.083c0-3.555,2.13-5.715,5.039-5.715c1.531,0,2.535,0.689,3.166,1.364l-0.75,0.9
			c-0.556-0.585-1.26-1.05-2.385-1.05c-2.205,0-3.646,1.709-3.646,4.455c0,2.774,1.306,4.514,3.659,4.514
			c0.795,0,1.561-0.239,1.996-0.645v-2.88h-2.325v-1.155h3.6v4.62c-0.705,0.735-1.92,1.274-3.405,1.274
			C163.099,69.767,161.044,67.652,161.044,64.083z"/>
	</g>
</g>
</svg>
