<?xml version="1.0" encoding="utf-8"?>
<!-- Generator: Adobe Illustrator 16.0.0, SVG Export Plug-In . SVG Version: 6.00 Build 0)  -->
<!DOCTYPE svg PUBLIC "-//W3C//DTD SVG 1.1//EN" "http://www.w3.org/Graphics/SVG/1.1/DTD/svg11.dtd">
<svg version="1.1" xmlns="http://www.w3.org/2000/svg" xmlns:xlink="http://www.w3.org/1999/xlink" x="0px" y="0px" width="1920px"
	 height="900px" viewBox="0 0 1920 900" enable-background="new 0 0 1920 900" xml:space="preserve">
<g id="Layer_1" display="none">
	<g display="inline">
		<rect x="492.987" fill="#EEF5DC" width="59" height="900"/>
		<rect x="572.535" fill="#EEF5DC" width="59" height="900"/>
		<rect x="652.083" fill="#EEF5DC" width="59" height="900"/>
		<rect x="731.63" fill="#EEF5DC" width="59" height="900"/>
		<rect x="811.178" fill="#EEF5DC" width="59" height="900"/>
		<rect x="890.726" fill="#EEF5DC" width="59" height="900"/>
		<rect x="970.274" fill="#EEF5DC" width="59" height="900"/>
		<rect x="1049.822" fill="#EEF5DC" width="59" height="900"/>
		<rect x="1129.37" fill="#EEF5DC" width="59" height="900"/>
		<rect x="1208.917" fill="#EEF5DC" width="59" height="900"/>
		<rect x="1288.465" fill="#EEF5DC" width="59" height="900"/>
		<rect x="1368.013" fill="#EEF5DC" width="59" height="900"/>
	</g>
</g>
<g id="Layer_3">
</g>
<g id="Layer_2">
	<line fill="none" stroke="#AE1B1F" stroke-miterlimit="10" x1="1168" y1="289.5" x2="1920" y2="289.5"/>
	<line fill="none" stroke="#AE1B1F" stroke-miterlimit="10" x1="0" y1="442.5" x2="858" y2="442.5"/>
	<path d="M889.032,427c0.109,7,4.27,9.305,9.088,9.305c3.449,0,5.529-0.549,7.336-1.315l0.821,3.476
		c-1.697,0.767-4.599,1.656-8.814,1.656c-8.157,0-13.029-5.359-13.029-13.352s4.708-14.285,12.427-14.285
		c8.65,0,10.949,7.504,10.949,12.376c0,0.985-0.11,2.139-0.165,2.139H889.032z M903.156,424c0.055-3-1.259-7.829-6.679-7.829
		c-4.873,0-7.007,3.829-7.391,7.829H903.156z"/>
	<path d="M916.459,427c0.109,7,4.27,9.305,9.088,9.305c3.449,0,5.529-0.549,7.336-1.315l0.821,3.476
		c-1.697,0.767-4.598,1.656-8.814,1.656c-8.157,0-13.029-5.359-13.029-13.352s4.708-14.285,12.427-14.285
		c8.65,0,10.949,7.504,10.949,12.376c0,0.985-0.11,2.139-0.165,2.139H916.459z M930.583,424c0.055-3-1.259-7.829-6.679-7.829
		c-4.872,0-7.007,3.829-7.391,7.829H930.583z"/>
	<path d="M952.153,434.66c1.423,0.931,3.941,1.916,6.35,1.916c3.504,0,5.146-1.752,5.146-3.942c0-2.299-1.369-3.558-4.927-4.872
		c-4.763-1.697-7.007-4.325-7.007-7.5c0-4.27,3.449-7.774,9.143-7.774c2.683,0,5.037,0.767,6.515,1.642l-1.204,3.504
		c-1.04-0.657-2.957-1.533-5.42-1.533c-2.847,0-4.435,1.642-4.435,3.613c0,2.19,1.588,3.175,5.037,4.489
		c4.599,1.752,6.953,4.051,6.953,7.993c0,4.653-3.613,7.938-9.909,7.938c-2.901,0-5.584-0.711-7.445-1.807L952.153,434.66z"/>
	<path d="M998.468,426.12c0,9.799-6.789,14.069-13.193,14.069c-7.172,0-12.701-5.255-12.701-13.631
		c0-8.869,5.803-14.07,13.139-14.07C993.322,412.488,998.468,418.017,998.468,426.12z M977.446,426.393
		c0,5.803,3.339,10.183,8.047,10.183c4.599,0,8.048-4.325,8.048-10.292c0-4.489-2.245-10.183-7.938-10.183
		S977.446,421.356,977.446,426.393z"/>
	<path d="M1016,401h5v16h0.078c0.767-1,1.971-2.447,3.449-3.269c1.424-0.821,3.268-1.306,5.074-1.306
		c3.559,0,9.399,2.252,9.399,11.395V440h-5v-15.632c0-4.271-1.644-7.883-6.188-7.883c-3.12,0-5.596,2.189-6.472,4.817
		c-0.274,0.657-0.341,1.369-0.341,2.299V440h-5V401z"/>
	<path d="M1051.899,405.645c0.055,1.643-1.149,2.957-3.065,2.957c-1.697,0-2.901-1.314-2.901-2.957c0-1.697,1.259-3.011,3.011-3.011
		C1050.75,402.634,1051.899,403.947,1051.899,405.645z M1047,440v-27h4v27H1047z"/>
	<polygon fill="none" stroke="#AE1B1F" stroke-width="2" stroke-miterlimit="10" points="858.5,397.761 858.5,442.5 881.851,442.5 	
		"/>
	<line fill="none" stroke="#AE1B1F" stroke-miterlimit="10" x1="881.851" y1="442.5" x2="858.5" y2="397.761"/>
	<g>
		<path d="M725.287,290.704c4.205-0.701,9.711-1.301,16.719-1.301c8.609,0,14.917,2.002,18.921,5.606
			c3.704,3.204,5.906,8.109,5.906,14.116c0,6.107-1.802,10.912-5.206,14.416c-4.605,4.906-12.114,7.409-20.624,7.409
			c-2.603,0-5.005-0.1-7.008-0.601v27.03h-8.71V290.704z M733.997,323.24c1.902,0.501,4.305,0.701,7.208,0.701
			c10.512,0,16.919-5.106,16.919-14.417c0-8.91-6.307-13.215-15.918-13.215c-3.805,0-6.708,0.3-8.209,0.701V323.24z"/>
		<path d="M836.212,322.94c0,23.226-14.116,35.54-31.335,35.54c-17.82,0-30.334-13.815-30.334-34.238
			c0-21.424,13.315-35.44,31.335-35.44C824.299,288.802,836.212,302.917,836.212,322.94z M783.854,324.042
			c0,14.416,7.809,27.331,21.524,27.331c13.815,0,21.624-12.714,21.624-28.032c0-13.415-7.008-27.431-21.524-27.431
			C791.062,295.91,783.854,309.225,783.854,324.042z"/>
		<path d="M847.525,290.804c4.405-0.901,10.712-1.401,16.719-1.401c9.311,0,15.317,1.702,19.522,5.506
			c3.404,3.003,5.306,7.609,5.306,12.814c0,8.91-5.606,14.817-12.714,17.22v0.3c5.206,1.802,8.31,6.607,9.911,13.615
			c2.203,9.411,3.805,15.918,5.206,18.521h-9.01c-1.101-1.902-2.603-7.708-4.505-16.118c-2.002-9.311-5.606-12.814-13.515-13.115
			h-8.209v29.233h-8.71V290.804z M856.235,321.539h8.91c9.311,0,15.217-5.106,15.217-12.814c0-8.71-6.307-12.514-15.518-12.614
			c-4.205,0-7.208,0.4-8.61,0.801V321.539z"/>
		<path d="M915.1,297.311h-20.523v-7.408h49.957v7.408H923.91v60.068h-8.81V297.311z"/>
		<path d="M952.041,289.903h36.341v7.308h-27.631v22.425h25.529v7.208h-25.529v30.535h-8.71V289.903z"/>
		<path d="M1058.461,322.94c0,23.226-14.116,35.54-31.335,35.54c-17.82,0-30.334-13.815-30.334-34.238
			c0-21.424,13.315-35.44,31.335-35.44C1046.548,288.802,1058.461,302.917,1058.461,322.94z M1006.103,324.042
			c0,14.416,7.809,27.331,21.524,27.331c13.815,0,21.624-12.714,21.624-28.032c0-13.415-7.008-27.431-21.524-27.431
			C1013.311,295.91,1006.103,309.225,1006.103,324.042z"/>
		<path d="M1069.774,289.903h8.71v60.168h28.833v7.308h-37.542V289.903z"/>
		<path d="M1125.736,289.903v67.476h-8.71v-67.476H1125.736z"/>
		<path d="M1198.618,322.94c0,23.226-14.116,35.54-31.335,35.54c-17.82,0-30.334-13.815-30.334-34.238
			c0-21.424,13.315-35.44,31.335-35.44C1186.705,288.802,1198.618,302.917,1198.618,322.94z M1146.259,324.042
			c0,14.416,7.809,27.331,21.524,27.331c13.815,0,21.624-12.714,21.624-28.032c0-13.415-7.008-27.431-21.524-27.431
			C1153.467,295.91,1146.259,309.225,1146.259,324.042z"/>
	</g>
</g>
</svg>
